<?xml version="1.0" encoding="utf-8" standalone="no"?>
<!DOCTYPE svg PUBLIC "-//W3C//DTD SVG 1.1//EN"
  "http://www.w3.org/Graphics/SVG/1.1/DTD/svg11.dtd">
<!-- Created with matplotlib (http://matplotlib.org/) -->
<svg height="432pt" version="1.1" viewBox="0 0 576 432" width="576pt" xmlns="http://www.w3.org/2000/svg" xmlns:xlink="http://www.w3.org/1999/xlink">
 <defs>
  <style type="text/css">
*{stroke-linecap:butt;stroke-linejoin:round;}
  </style>
 </defs>
 <g id="figure_1">
  <g id="patch_1">
   <path d="M 0 432 
L 576 432 
L 576 0 
L 0 0 
z
" style="fill:#ffffff;"/>
  </g>
  <g id="axes_1">
   <g id="patch_2">
    <path d="M 72 378 
L 518.4 378 
L 518.4 51.84 
L 72 51.84 
z
" style="fill:#ffffff;"/>
   </g>
   <g id="matplotlib.axis_1">
    <g id="xtick_1">
     <g id="line2d_1">
      <defs>
       <path d="M 0 0 
L 0 6 
" id="m7b6639418f" style="stroke:#262626;stroke-width:0.8;"/>
      </defs>
      <g>
       <use style="fill:#262626;stroke:#262626;stroke-width:0.8;" x="72" xlink:href="#m7b6639418f" y="378"/>
      </g>
     </g>
     <g id="text_1">
      <!-- 1 -->
      <defs>
       <path d="M 26.5625 0 
L 26.5625 49.90625 
L 26.5625 49.90625 
L 10.109375 49.90625 
L 10.109375 56.9375 
Q 17.390625 56.78125 21.921875 60.0625 
Q 26.515625 63.375 28.71875 70.3125 
L 35.890625 70.3125 
L 35.890625 70.3125 
L 35.890625 0 
L 35.890625 0 
L 31.25 0 
L 26.5625 0 
z
" id="Helvetica-31"/>
      </defs>
      <g style="fill:#262626;" transform="translate(67.55125 398.985)scale(0.16 -0.16)">
       <use xlink:href="#Helvetica-31"/>
      </g>
     </g>
    </g>
    <g id="xtick_2">
     <g id="line2d_2">
      <g>
       <use style="fill:#262626;stroke:#262626;stroke-width:0.8;" x="85.129412" xlink:href="#m7b6639418f" y="378"/>
      </g>
     </g>
     <g id="text_2">
      <!-- 2 -->
      <defs>
       <path d="M 50.734375 49.609375 
Q 50.734375 41.84375 46.75 36.84375 
Q 42.78125 31.84375 31.78125 25.78125 
Q 19.875 19.234375 15.53125 13.8125 
Q 13.71875 11.46875 12.546875 8.546875 
L 12.546875 8.546875 
L 50.734375 8.546875 
L 50.734375 0 
L 2.59375 0 
L 2.59375 0 
Q 2.59375 11.078125 8.109375 18.140625 
Q 13.625 25.203125 28.8125 33.546875 
Q 36.1875 37.640625 38.859375 41.0625 
Q 41.546875 44.484375 41.546875 49.859375 
Q 41.546875 55.46875 37.546875 59.03125 
Q 33.546875 62.59375 27.296875 62.59375 
Q 20.75 62.59375 17.015625 58.125 
Q 13.28125 53.65625 13.03125 45.453125 
L 13.03125 45.453125 
L 4.5 45.453125 
L 4.5 45.453125 
Q 4.296875 57.078125 10.6875 63.6875 
Q 17.09375 70.3125 28.515625 70.3125 
Q 38.28125 70.3125 44.53125 64.5 
Q 50.734375 58.734375 50.734375 49.609375 
z
" id="Helvetica-32"/>
      </defs>
      <g style="fill:#262626;" transform="translate(80.680662 398.985)scale(0.16 -0.16)">
       <use xlink:href="#Helvetica-32"/>
      </g>
     </g>
    </g>
    <g id="xtick_3">
     <g id="line2d_3">
      <g>
       <use style="fill:#262626;stroke:#262626;stroke-width:0.8;" x="98.258824" xlink:href="#m7b6639418f" y="378"/>
      </g>
     </g>
     <g id="text_3">
      <!-- 3 -->
      <defs>
       <path d="M 40.625 51.21875 
Q 40.625 56.203125 36.84375 59.34375 
Q 33.0625 62.5 27.15625 62.5 
Q 20.90625 62.5 17.578125 58.65625 
Q 14.265625 54.828125 13.921875 47.21875 
L 13.921875 47.21875 
L 5.375 47.21875 
L 5.375 47.21875 
Q 5.375 58.25 11.15625 64.28125 
Q 16.9375 70.3125 27.546875 70.3125 
Q 37.546875 70.3125 43.671875 65.296875 
Q 49.8125 60.296875 49.8125 52.09375 
Q 49.8125 43.953125 43.65625 38.921875 
Q 42.484375 37.9375 41.109375 37.15625 
L 41.109375 37.15625 
Q 43.65625 36.03125 45.609375 34.46875 
Q 52.203125 29.296875 52.203125 20.515625 
Q 52.203125 10.640625 45.359375 4.359375 
Q 38.53125 -1.90625 27.78125 -1.90625 
Q 15.96875 -1.90625 9.953125 3.78125 
Q 3.953125 9.46875 3.421875 21.1875 
L 3.421875 21.1875 
L 12.640625 21.1875 
L 12.640625 21.1875 
Q 13.421875 12.984375 16.984375 9.4375 
Q 20.5625 5.90625 28.078125 5.90625 
Q 34.578125 5.90625 38.71875 9.640625 
Q 42.875 13.375 42.875 19.234375 
Q 42.875 25.390625 38.875 29 
Q 35.453125 32.125 30.078125 32.515625 
Q 27.59375 32.671875 25.359375 32.671875 
Q 23.140625 32.671875 22.40625 32.46875 
L 22.40625 40.1875 
Q 23.484375 39.9375 25.734375 39.9375 
Q 27.984375 39.9375 30.171875 40.234375 
Q 34.421875 40.765625 37.0625 43.015625 
Q 40.625 45.953125 40.625 51.21875 
z
" id="Helvetica-33"/>
      </defs>
      <g style="fill:#262626;" transform="translate(93.810074 398.985)scale(0.16 -0.16)">
       <use xlink:href="#Helvetica-33"/>
      </g>
     </g>
    </g>
    <g id="xtick_4">
     <g id="line2d_4">
      <g>
       <use style="fill:#262626;stroke:#262626;stroke-width:0.8;" x="111.388235" xlink:href="#m7b6639418f" y="378"/>
      </g>
     </g>
     <g id="text_4">
      <!-- 4 -->
      <defs>
       <path d="M 33.5 16.84375 
L 2.484375 16.84375 
L 2.484375 20.953125 
L 2.484375 25.046875 
L 35.015625 70.265625 
L 38.671875 70.265625 
L 42.328125 70.265625 
L 42.328125 24.359375 
L 42.328125 24.359375 
L 52.296875 24.359375 
L 52.296875 16.84375 
L 42.328125 16.84375 
L 42.328125 16.84375 
L 42.328125 0 
L 33.5 0 
L 33.5 16.84375 
z
M 33.5 24.359375 
L 33.5 24.359375 
L 33.5 56.453125 
L 33.5 56.453125 
L 33.5 56.453125 
L 11.078125 25.046875 
L 10.59375 24.359375 
L 10.59375 24.359375 
z
" id="Helvetica-34"/>
      </defs>
      <g style="fill:#262626;" transform="translate(106.939485 398.985)scale(0.16 -0.16)">
       <use xlink:href="#Helvetica-34"/>
      </g>
     </g>
    </g>
    <g id="xtick_5">
     <g id="line2d_5">
      <g>
       <use style="fill:#262626;stroke:#262626;stroke-width:0.8;" x="124.517647" xlink:href="#m7b6639418f" y="378"/>
      </g>
     </g>
     <g id="text_5">
      <!-- 5 -->
      <defs>
       <path d="M 51.421875 22.609375 
Q 51.421875 11.8125 44.65625 4.953125 
Q 37.890625 -1.90625 27.296875 -1.90625 
Q 16.75 -1.90625 10.34375 3.359375 
Q 3.953125 8.640625 3.21875 17.921875 
L 3.21875 17.921875 
L 12.359375 17.921875 
L 12.359375 17.921875 
Q 13.09375 12.0625 17.09375 8.859375 
Q 21.09375 5.671875 27.6875 5.671875 
Q 34.03125 5.671875 38.0625 10.109375 
Q 42.09375 14.546875 42.09375 21.53125 
Q 42.09375 28.859375 37.890625 33.171875 
Q 33.6875 37.5 26.515625 37.5 
Q 22.65625 37.5 19.015625 35.640625 
Q 15.375 33.796875 13.53125 30.90625 
L 6.109375 31.390625 
L 11.1875 68.890625 
L 11.1875 68.890625 
L 47.609375 68.890625 
L 47.609375 60.359375 
L 17.78125 60.359375 
L 17.78125 60.359375 
L 14.75 41.109375 
L 14.75 41.109375 
L 15.046875 41.3125 
Q 20.84375 45.3125 27.296875 45.3125 
Q 38.375 45.3125 44.921875 39.15625 
Q 51.421875 33.0625 51.421875 22.609375 
z
" id="Helvetica-35"/>
      </defs>
      <g style="fill:#262626;" transform="translate(120.068897 398.985)scale(0.16 -0.16)">
       <use xlink:href="#Helvetica-35"/>
      </g>
     </g>
    </g>
    <g id="xtick_6">
     <g id="line2d_6">
      <g>
       <use style="fill:#262626;stroke:#262626;stroke-width:0.8;" x="137.647059" xlink:href="#m7b6639418f" y="378"/>
      </g>
     </g>
     <g id="text_6">
      <!-- 6 -->
      <defs>
       <path d="M 29.734375 70.3125 
Q 39.015625 70.3125 44.5 65.296875 
Q 50 60.296875 50.390625 51.515625 
L 50.390625 51.515625 
L 41.703125 51.515625 
L 41.703125 51.515625 
Q 41.21875 56.734375 38.09375 59.5625 
Q 34.96875 62.40625 29.734375 62.40625 
Q 21.578125 62.40625 17.1875 54.59375 
Q 13.375 47.90625 12.984375 36.375 
L 12.984375 36.375 
Q 19.53125 44.734375 29.6875 44.734375 
Q 39.65625 44.734375 45.734375 38.3125 
Q 51.8125 31.890625 51.8125 21.390625 
Q 51.8125 10.890625 45.1875 4.484375 
Q 38.578125 -1.90625 27.78125 -1.90625 
Q 16.265625 -1.90625 10.03125 7 
Q 3.8125 15.921875 3.8125 32.375 
Q 3.8125 50.59375 10.59375 60.453125 
Q 17.328125 70.3125 29.734375 70.3125 
z
M 14.0625 21.390625 
Q 14.0625 14.59375 18.03125 10.296875 
Q 22.015625 6 28.265625 6 
Q 34.515625 6 38.5 10.296875 
Q 42.484375 14.59375 42.484375 21.390625 
Q 42.484375 28.171875 38.5 32.484375 
Q 34.515625 36.8125 28.265625 36.8125 
Q 22.015625 36.8125 18.015625 32.46875 
Q 14.0625 28.171875 14.0625 21.390625 
z
" id="Helvetica-36"/>
      </defs>
      <g style="fill:#262626;" transform="translate(133.198309 398.985)scale(0.16 -0.16)">
       <use xlink:href="#Helvetica-36"/>
      </g>
     </g>
    </g>
    <g id="xtick_7">
     <g id="line2d_7">
      <g>
       <use style="fill:#262626;stroke:#262626;stroke-width:0.8;" x="150.776471" xlink:href="#m7b6639418f" y="378"/>
      </g>
     </g>
     <g id="text_7">
      <!-- 7 -->
      <defs>
       <path d="M 13.875 0 
Q 17.234375 17.671875 24.515625 32.71875 
Q 31.640625 47.265625 42.875 60.359375 
L 42.875 60.359375 
L 3.71875 60.359375 
L 3.71875 68.890625 
L 52.296875 68.890625 
L 52.296875 64.984375 
L 52.296875 61.078125 
Q 40.765625 47.515625 33.734375 32.5625 
Q 26.703125 17.578125 23.6875 0 
z
" id="Helvetica-37"/>
      </defs>
      <g style="fill:#262626;" transform="translate(146.327721 398.985)scale(0.16 -0.16)">
       <use xlink:href="#Helvetica-37"/>
      </g>
     </g>
    </g>
    <g id="xtick_8">
     <g id="line2d_8">
      <g>
       <use style="fill:#262626;stroke:#262626;stroke-width:0.8;" x="163.905882" xlink:href="#m7b6639418f" y="378"/>
      </g>
     </g>
     <g id="text_8">
      <!-- 8 -->
      <defs>
       <path d="M 39.9375 37.203125 
L 39.9375 37.203125 
Q 42.78125 35.9375 45.125 34.03125 
Q 51.703125 28.71875 51.703125 19.96875 
Q 51.703125 10.109375 45.109375 4.09375 
Q 38.53125 -1.90625 27.734375 -1.90625 
Q 16.9375 -1.90625 10.375 4.09375 
Q 3.8125 10.109375 3.8125 19.96875 
Q 3.8125 28.71875 10.40625 34.078125 
Q 12.703125 35.9375 15.484375 37.15625 
L 15.484375 37.15625 
Q 13.71875 38.140625 12.109375 39.3125 
Q 6.203125 43.890625 6.203125 51.421875 
Q 6.203125 59.90625 12.125 65.109375 
Q 18.0625 70.3125 27.734375 70.3125 
Q 37.40625 70.3125 43.328125 65.109375 
Q 49.265625 59.90625 49.265625 51.421875 
Q 49.265625 43.890625 43.3125 39.3125 
Q 41.75 38.09375 39.9375 37.203125 
z
M 27.734375 40.875 
Q 33.109375 40.875 36.515625 43.875 
Q 39.9375 46.875 39.9375 51.609375 
Q 39.9375 56.34375 36.515625 59.375 
Q 33.109375 62.40625 27.734375 62.40625 
Q 22.359375 62.40625 18.9375 59.375 
Q 15.53125 56.34375 15.53125 51.609375 
Q 15.53125 46.875 18.953125 43.84375 
Q 22.359375 40.875 27.734375 40.875 
z
M 27.734375 33.25 
Q 21.296875 33.25 17.21875 29.421875 
Q 13.140625 25.59375 13.140625 19.578125 
Q 13.140625 13.625 17.21875 9.8125 
Q 21.296875 6 27.734375 6 
Q 34.1875 6 38.28125 9.8125 
Q 42.390625 13.625 42.390625 19.578125 
Q 42.390625 25.59375 38.28125 29.4375 
Q 34.1875 33.25 27.734375 33.25 
z
" id="Helvetica-38"/>
      </defs>
      <g style="fill:#262626;" transform="translate(159.457132 398.985)scale(0.16 -0.16)">
       <use xlink:href="#Helvetica-38"/>
      </g>
     </g>
    </g>
    <g id="xtick_9">
     <g id="line2d_9">
      <g>
       <use style="fill:#262626;stroke:#262626;stroke-width:0.8;" x="177.035294" xlink:href="#m7b6639418f" y="378"/>
      </g>
     </g>
     <g id="text_9">
      <!-- 9 -->
      <defs>
       <path d="M 25.921875 -1.953125 
Q 16.609375 -1.953125 11.0625 3.046875 
Q 5.515625 8.0625 5.125 16.84375 
L 5.125 16.84375 
L 13.625 16.84375 
L 13.625 16.84375 
Q 14.15625 11.421875 17.359375 8.46875 
Q 20.5625 5.515625 25.921875 5.515625 
Q 33.84375 5.515625 38.140625 14.359375 
Q 41.265625 20.953125 42.1875 31.6875 
L 42.1875 31.6875 
Q 35.640625 23.640625 25.921875 23.640625 
Q 16.15625 23.640625 10.171875 30.046875 
Q 4.203125 36.46875 4.203125 46.96875 
Q 4.203125 57.46875 10.6875 63.859375 
Q 17.1875 70.265625 27.828125 70.265625 
Q 39.15625 70.265625 45.28125 62.234375 
Q 51.421875 54.203125 51.421875 39.40625 
Q 51.421875 19.53125 44.78125 8.796875 
Q 38.140625 -1.953125 25.921875 -1.953125 
z
M 41.15625 46.96875 
Q 41.15625 53.765625 37.296875 58.0625 
Q 33.453125 62.359375 27.34375 62.359375 
Q 21.234375 62.359375 17.375 58.0625 
Q 13.53125 53.765625 13.53125 46.96875 
Q 13.53125 40.1875 17.375 35.859375 
Q 21.234375 31.546875 27.34375 31.546875 
Q 33.453125 31.546875 37.3125 35.890625 
Q 41.15625 40.1875 41.15625 46.96875 
z
" id="Helvetica-39"/>
      </defs>
      <g style="fill:#262626;" transform="translate(172.586544 398.985)scale(0.16 -0.16)">
       <use xlink:href="#Helvetica-39"/>
      </g>
     </g>
    </g>
    <g id="xtick_10">
     <g id="line2d_10">
      <g>
       <use style="fill:#262626;stroke:#262626;stroke-width:0.8;" x="190.164706" xlink:href="#m7b6639418f" y="378"/>
      </g>
     </g>
     <g id="text_10">
      <!-- 10 -->
      <defs>
       <path d="M 27.78125 -1.90625 
Q 16.265625 -1.90625 9.984375 7.46875 
Q 3.71875 16.84375 3.71875 34.1875 
Q 3.71875 51.515625 9.984375 60.90625 
Q 16.265625 70.3125 27.78125 70.3125 
Q 39.40625 70.3125 45.65625 60.90625 
Q 51.90625 51.515625 51.90625 34.1875 
Q 51.90625 16.84375 45.65625 7.46875 
Q 39.40625 -1.90625 27.78125 -1.90625 
z
M 27.78125 6 
Q 35.203125 6 38.90625 13.03125 
Q 42.625 20.0625 42.578125 34.1875 
Q 42.625 48.296875 38.90625 55.34375 
Q 35.203125 62.40625 27.78125 62.40625 
Q 20.40625 62.40625 16.75 55.34375 
Q 13.09375 48.296875 13.03125 34.1875 
Q 13.09375 20.0625 16.75 13.03125 
Q 20.40625 6 27.78125 6 
z
" id="Helvetica-30"/>
      </defs>
      <g style="fill:#262626;" transform="translate(181.267206 398.985)scale(0.16 -0.16)">
       <use xlink:href="#Helvetica-31"/>
       <use x="55.615234" xlink:href="#Helvetica-30"/>
      </g>
     </g>
    </g>
    <g id="xtick_11">
     <g id="line2d_11">
      <g>
       <use style="fill:#262626;stroke:#262626;stroke-width:0.8;" x="203.294118" xlink:href="#m7b6639418f" y="378"/>
      </g>
     </g>
     <g id="text_11">
      <!-- 11 -->
      <g style="fill:#262626;" transform="translate(194.396618 398.985)scale(0.16 -0.16)">
       <use xlink:href="#Helvetica-31"/>
       <use x="55.615234" xlink:href="#Helvetica-31"/>
      </g>
     </g>
    </g>
    <g id="xtick_12">
     <g id="line2d_12">
      <g>
       <use style="fill:#262626;stroke:#262626;stroke-width:0.8;" x="216.423529" xlink:href="#m7b6639418f" y="378"/>
      </g>
     </g>
     <g id="text_12">
      <!-- 12 -->
      <g style="fill:#262626;" transform="translate(207.526029 398.985)scale(0.16 -0.16)">
       <use xlink:href="#Helvetica-31"/>
       <use x="55.615234" xlink:href="#Helvetica-32"/>
      </g>
     </g>
    </g>
    <g id="xtick_13">
     <g id="line2d_13">
      <g>
       <use style="fill:#262626;stroke:#262626;stroke-width:0.8;" x="229.552941" xlink:href="#m7b6639418f" y="378"/>
      </g>
     </g>
     <g id="text_13">
      <!-- 13 -->
      <g style="fill:#262626;" transform="translate(220.655441 398.985)scale(0.16 -0.16)">
       <use xlink:href="#Helvetica-31"/>
       <use x="55.615234" xlink:href="#Helvetica-33"/>
      </g>
     </g>
    </g>
    <g id="xtick_14">
     <g id="line2d_14">
      <g>
       <use style="fill:#262626;stroke:#262626;stroke-width:0.8;" x="242.682353" xlink:href="#m7b6639418f" y="378"/>
      </g>
     </g>
     <g id="text_14">
      <!-- 14 -->
      <g style="fill:#262626;" transform="translate(233.784853 398.985)scale(0.16 -0.16)">
       <use xlink:href="#Helvetica-31"/>
       <use x="55.615234" xlink:href="#Helvetica-34"/>
      </g>
     </g>
    </g>
    <g id="xtick_15">
     <g id="line2d_15">
      <g>
       <use style="fill:#262626;stroke:#262626;stroke-width:0.8;" x="255.811765" xlink:href="#m7b6639418f" y="378"/>
      </g>
     </g>
     <g id="text_15">
      <!-- 15 -->
      <g style="fill:#262626;" transform="translate(246.914265 398.985)scale(0.16 -0.16)">
       <use xlink:href="#Helvetica-31"/>
       <use x="55.615234" xlink:href="#Helvetica-35"/>
      </g>
     </g>
    </g>
    <g id="xtick_16">
     <g id="line2d_16">
      <g>
       <use style="fill:#262626;stroke:#262626;stroke-width:0.8;" x="268.941176" xlink:href="#m7b6639418f" y="378"/>
      </g>
     </g>
     <g id="text_16">
      <!-- 16 -->
      <g style="fill:#262626;" transform="translate(260.043676 398.985)scale(0.16 -0.16)">
       <use xlink:href="#Helvetica-31"/>
       <use x="55.615234" xlink:href="#Helvetica-36"/>
      </g>
     </g>
    </g>
    <g id="xtick_17">
     <g id="line2d_17">
      <g>
       <use style="fill:#262626;stroke:#262626;stroke-width:0.8;" x="282.070588" xlink:href="#m7b6639418f" y="378"/>
      </g>
     </g>
     <g id="text_17">
      <!-- 17 -->
      <g style="fill:#262626;" transform="translate(273.173088 398.985)scale(0.16 -0.16)">
       <use xlink:href="#Helvetica-31"/>
       <use x="55.615234" xlink:href="#Helvetica-37"/>
      </g>
     </g>
    </g>
    <g id="xtick_18">
     <g id="line2d_18">
      <g>
       <use style="fill:#262626;stroke:#262626;stroke-width:0.8;" x="295.2" xlink:href="#m7b6639418f" y="378"/>
      </g>
     </g>
     <g id="text_18">
      <!-- 18 -->
      <g style="fill:#262626;" transform="translate(286.3025 398.985)scale(0.16 -0.16)">
       <use xlink:href="#Helvetica-31"/>
       <use x="55.615234" xlink:href="#Helvetica-38"/>
      </g>
     </g>
    </g>
    <g id="xtick_19">
     <g id="line2d_19">
      <g>
       <use style="fill:#262626;stroke:#262626;stroke-width:0.8;" x="308.329412" xlink:href="#m7b6639418f" y="378"/>
      </g>
     </g>
     <g id="text_19">
      <!-- 19 -->
      <g style="fill:#262626;" transform="translate(299.431912 398.985)scale(0.16 -0.16)">
       <use xlink:href="#Helvetica-31"/>
       <use x="55.615234" xlink:href="#Helvetica-39"/>
      </g>
     </g>
    </g>
    <g id="xtick_20">
     <g id="line2d_20">
      <g>
       <use style="fill:#262626;stroke:#262626;stroke-width:0.8;" x="321.458824" xlink:href="#m7b6639418f" y="378"/>
      </g>
     </g>
     <g id="text_20">
      <!-- 20 -->
      <g style="fill:#262626;" transform="translate(312.561324 398.985)scale(0.16 -0.16)">
       <use xlink:href="#Helvetica-32"/>
       <use x="55.615234" xlink:href="#Helvetica-30"/>
      </g>
     </g>
    </g>
    <g id="xtick_21">
     <g id="line2d_21">
      <g>
       <use style="fill:#262626;stroke:#262626;stroke-width:0.8;" x="334.588235" xlink:href="#m7b6639418f" y="378"/>
      </g>
     </g>
     <g id="text_21">
      <!-- 21 -->
      <g style="fill:#262626;" transform="translate(325.690735 398.985)scale(0.16 -0.16)">
       <use xlink:href="#Helvetica-32"/>
       <use x="55.615234" xlink:href="#Helvetica-31"/>
      </g>
     </g>
    </g>
    <g id="xtick_22">
     <g id="line2d_22">
      <g>
       <use style="fill:#262626;stroke:#262626;stroke-width:0.8;" x="347.717647" xlink:href="#m7b6639418f" y="378"/>
      </g>
     </g>
     <g id="text_22">
      <!-- 22 -->
      <g style="fill:#262626;" transform="translate(338.820147 398.985)scale(0.16 -0.16)">
       <use xlink:href="#Helvetica-32"/>
       <use x="55.615234" xlink:href="#Helvetica-32"/>
      </g>
     </g>
    </g>
    <g id="xtick_23">
     <g id="line2d_23">
      <g>
       <use style="fill:#262626;stroke:#262626;stroke-width:0.8;" x="360.847059" xlink:href="#m7b6639418f" y="378"/>
      </g>
     </g>
     <g id="text_23">
      <!-- 23 -->
      <g style="fill:#262626;" transform="translate(351.949559 398.985)scale(0.16 -0.16)">
       <use xlink:href="#Helvetica-32"/>
       <use x="55.615234" xlink:href="#Helvetica-33"/>
      </g>
     </g>
    </g>
    <g id="xtick_24">
     <g id="line2d_24">
      <g>
       <use style="fill:#262626;stroke:#262626;stroke-width:0.8;" x="373.976471" xlink:href="#m7b6639418f" y="378"/>
      </g>
     </g>
     <g id="text_24">
      <!-- 24 -->
      <g style="fill:#262626;" transform="translate(365.078971 398.985)scale(0.16 -0.16)">
       <use xlink:href="#Helvetica-32"/>
       <use x="55.615234" xlink:href="#Helvetica-34"/>
      </g>
     </g>
    </g>
    <g id="xtick_25">
     <g id="line2d_25">
      <g>
       <use style="fill:#262626;stroke:#262626;stroke-width:0.8;" x="387.105882" xlink:href="#m7b6639418f" y="378"/>
      </g>
     </g>
     <g id="text_25">
      <!-- 25 -->
      <g style="fill:#262626;" transform="translate(378.208382 398.985)scale(0.16 -0.16)">
       <use xlink:href="#Helvetica-32"/>
       <use x="55.615234" xlink:href="#Helvetica-35"/>
      </g>
     </g>
    </g>
    <g id="xtick_26">
     <g id="line2d_26">
      <g>
       <use style="fill:#262626;stroke:#262626;stroke-width:0.8;" x="400.235294" xlink:href="#m7b6639418f" y="378"/>
      </g>
     </g>
     <g id="text_26">
      <!-- 26 -->
      <g style="fill:#262626;" transform="translate(391.337794 398.985)scale(0.16 -0.16)">
       <use xlink:href="#Helvetica-32"/>
       <use x="55.615234" xlink:href="#Helvetica-36"/>
      </g>
     </g>
    </g>
    <g id="xtick_27">
     <g id="line2d_27">
      <g>
       <use style="fill:#262626;stroke:#262626;stroke-width:0.8;" x="413.364706" xlink:href="#m7b6639418f" y="378"/>
      </g>
     </g>
     <g id="text_27">
      <!-- 27 -->
      <g style="fill:#262626;" transform="translate(404.467206 398.985)scale(0.16 -0.16)">
       <use xlink:href="#Helvetica-32"/>
       <use x="55.615234" xlink:href="#Helvetica-37"/>
      </g>
     </g>
    </g>
    <g id="xtick_28">
     <g id="line2d_28">
      <g>
       <use style="fill:#262626;stroke:#262626;stroke-width:0.8;" x="426.494118" xlink:href="#m7b6639418f" y="378"/>
      </g>
     </g>
     <g id="text_28">
      <!-- 28 -->
      <g style="fill:#262626;" transform="translate(417.596618 398.985)scale(0.16 -0.16)">
       <use xlink:href="#Helvetica-32"/>
       <use x="55.615234" xlink:href="#Helvetica-38"/>
      </g>
     </g>
    </g>
    <g id="xtick_29">
     <g id="line2d_29">
      <g>
       <use style="fill:#262626;stroke:#262626;stroke-width:0.8;" x="439.623529" xlink:href="#m7b6639418f" y="378"/>
      </g>
     </g>
     <g id="text_29">
      <!-- 29 -->
      <g style="fill:#262626;" transform="translate(430.726029 398.985)scale(0.16 -0.16)">
       <use xlink:href="#Helvetica-32"/>
       <use x="55.615234" xlink:href="#Helvetica-39"/>
      </g>
     </g>
    </g>
    <g id="xtick_30">
     <g id="line2d_30">
      <g>
       <use style="fill:#262626;stroke:#262626;stroke-width:0.8;" x="452.752941" xlink:href="#m7b6639418f" y="378"/>
      </g>
     </g>
     <g id="text_30">
      <!-- 30 -->
      <g style="fill:#262626;" transform="translate(443.855441 398.985)scale(0.16 -0.16)">
       <use xlink:href="#Helvetica-33"/>
       <use x="55.615234" xlink:href="#Helvetica-30"/>
      </g>
     </g>
    </g>
    <g id="xtick_31">
     <g id="line2d_31">
      <g>
       <use style="fill:#262626;stroke:#262626;stroke-width:0.8;" x="465.882353" xlink:href="#m7b6639418f" y="378"/>
      </g>
     </g>
     <g id="text_31">
      <!-- 31 -->
      <g style="fill:#262626;" transform="translate(456.984853 398.985)scale(0.16 -0.16)">
       <use xlink:href="#Helvetica-33"/>
       <use x="55.615234" xlink:href="#Helvetica-31"/>
      </g>
     </g>
    </g>
    <g id="xtick_32">
     <g id="line2d_32">
      <g>
       <use style="fill:#262626;stroke:#262626;stroke-width:0.8;" x="479.011765" xlink:href="#m7b6639418f" y="378"/>
      </g>
     </g>
     <g id="text_32">
      <!-- 32 -->
      <g style="fill:#262626;" transform="translate(470.114265 398.985)scale(0.16 -0.16)">
       <use xlink:href="#Helvetica-33"/>
       <use x="55.615234" xlink:href="#Helvetica-32"/>
      </g>
     </g>
    </g>
    <g id="xtick_33">
     <g id="line2d_33">
      <g>
       <use style="fill:#262626;stroke:#262626;stroke-width:0.8;" x="492.141176" xlink:href="#m7b6639418f" y="378"/>
      </g>
     </g>
     <g id="text_33">
      <!-- 33 -->
      <g style="fill:#262626;" transform="translate(483.243676 398.985)scale(0.16 -0.16)">
       <use xlink:href="#Helvetica-33"/>
       <use x="55.615234" xlink:href="#Helvetica-33"/>
      </g>
     </g>
    </g>
    <g id="xtick_34">
     <g id="line2d_34">
      <g>
       <use style="fill:#262626;stroke:#262626;stroke-width:0.8;" x="505.270588" xlink:href="#m7b6639418f" y="378"/>
      </g>
     </g>
     <g id="text_34">
      <!-- 34 -->
      <g style="fill:#262626;" transform="translate(496.373088 398.985)scale(0.16 -0.16)">
       <use xlink:href="#Helvetica-33"/>
       <use x="55.615234" xlink:href="#Helvetica-34"/>
      </g>
     </g>
    </g>
    <g id="text_35">
     <!-- Days -->
     <defs>
      <path d="M 8.109375 0 
L 8.109375 71.78125 
L 8.109375 71.78125 
L 12.9375 71.78125 
L 12.9375 71.78125 
L 37.59375 71.78125 
Q 51.265625 71.78125 59.34375 62.03125 
Q 67.4375 52.296875 67.4375 35.84375 
Q 67.4375 19.4375 59.15625 9.71875 
Q 50.875 0 36.8125 0 
L 12.9375 0 
L 12.9375 0 
L 8.109375 0 
z
M 17.828125 8.296875 
L 17.828125 8.296875 
L 35.59375 8.296875 
Q 46.046875 8.296875 51.734375 15.46875 
Q 57.421875 22.65625 57.421875 35.84375 
Q 57.421875 49.078125 51.953125 56.28125 
Q 46.484375 63.484375 36.421875 63.484375 
L 17.828125 63.484375 
L 17.828125 63.484375 
z
" id="Helvetica-44"/>
      <path d="M 20.265625 -1.421875 
Q 12.59375 -1.421875 8.09375 2.671875 
Q 3.609375 6.78125 3.609375 13.765625 
Q 3.609375 20.796875 7.828125 24.953125 
Q 12.0625 29.109375 20.171875 30.125 
L 32.125 31.640625 
Q 33.59375 31.78125 34.90625 32.125 
Q 36.625 32.5625 37.546875 33.875 
Q 38.484375 35.203125 38.484375 37.203125 
L 38.484375 37.640625 
Q 38.484375 41.84375 35.296875 44.203125 
Q 32.125 46.578125 26.46875 46.578125 
Q 21.046875 46.578125 17.984375 44.0625 
Q 14.9375 41.546875 14.3125 36.578125 
L 14.3125 36.578125 
L 6.203125 36.578125 
L 6.203125 36.578125 
Q 6.84375 45.171875 12.25 49.484375 
Q 17.671875 53.8125 27.78125 53.8125 
Q 37.3125 53.8125 42.28125 49.6875 
Q 47.265625 45.5625 47.265625 37.640625 
L 47.265625 8.9375 
Q 47.265625 7.625 48.0625 6.8125 
Q 48.875 6 50.25 6 
Q 50.640625 6 51.390625 6.09375 
Q 52.15625 6.203125 53.03125 6.390625 
L 53.03125 0.046875 
Q 51.765625 -0.4375 50.34375 -0.734375 
Q 48.921875 -1.03125 47.953125 -1.03125 
Q 42.96875 -1.03125 40.71875 1.703125 
Q 39.265625 3.515625 38.625 6.84375 
L 38.625 6.84375 
Q 37.640625 5.609375 36.375 4.5 
Q 29.78125 -1.421875 20.265625 -1.421875 
z
M 38.484375 20.703125 
L 38.484375 26.375 
L 38.484375 26.375 
Q 36.03125 25.203125 33.0625 24.75 
L 25 23.578125 
Q 18.65625 22.703125 15.71875 20.625 
Q 12.796875 18.5625 12.796875 14.984375 
Q 12.796875 10.59375 15.1875 8.21875 
Q 17.578125 5.859375 21.96875 5.859375 
Q 28.90625 5.859375 33.6875 9.625 
Q 36.96875 12.25 38.03125 15.578125 
Q 38.234375 16.21875 38.328125 17.578125 
Q 38.484375 19 38.484375 20.703125 
z
" id="Helvetica-61"/>
      <path d="M 48.875 52.25 
L 29 -1.703125 
Q 24.421875 -13.765625 20.828125 -17.46875 
Q 17.234375 -21.1875 10.0625 -21.1875 
Q 7.71875 -21.234375 5.8125 -20.65625 
L 5.8125 -12.5 
Q 7.8125 -13.234375 10.84375 -13.28125 
Q 13.8125 -13.28125 15.8125 -10.84375 
Q 17.828125 -8.40625 20.359375 -1.703125 
L 20.515625 -0.875 
L 20.515625 -0.875 
L 1.125 52.25 
L 1.125 52.25 
L 6.109375 52.25 
L 11.140625 52.25 
L 11.140625 52.25 
L 25.09375 9.03125 
L 25.09375 9.03125 
L 25.09375 9.03125 
L 39.265625 52.25 
L 39.265625 52.25 
L 44.046875 52.25 
L 48.875 52.25 
z
" id="Helvetica-79"/>
      <path d="M 36.421875 37.109375 
L 36.421875 37.109375 
Q 36.03125 41.453125 32.875 43.84375 
Q 29.734375 46.234375 24.421875 46.234375 
Q 18.953125 46.234375 16.09375 44.328125 
Q 13.234375 42.4375 13.234375 38.765625 
Q 13.234375 35.984375 15.234375 34.578125 
Q 17.234375 33.15625 23.1875 31.734375 
L 32.28125 29.59375 
Q 39.890625 27.734375 43.171875 24.46875 
Q 46.390625 21.234375 46.390625 15.4375 
Q 46.390625 7.671875 40.796875 3.125 
Q 35.203125 -1.421875 25.6875 -1.421875 
Q 14.65625 -1.421875 9.234375 2.953125 
Q 3.8125 7.328125 3.21875 16.703125 
L 3.21875 16.703125 
L 11.671875 16.703125 
L 11.671875 16.703125 
Q 12.3125 11.140625 15.59375 8.640625 
Q 18.890625 6.15625 25.6875 6.15625 
Q 31.59375 6.15625 34.640625 8.390625 
Q 37.703125 10.640625 37.703125 14.9375 
Q 37.703125 17.671875 35.6875 19.09375 
Q 33.6875 20.515625 27.640625 21.921875 
L 18.5625 24.078125 
Q 11.1875 25.828125 8.0625 29 
Q 4.9375 32.125 4.9375 37.796875 
Q 4.9375 45.171875 10.1875 49.484375 
Q 15.4375 53.8125 24.421875 53.8125 
Q 33.546875 53.8125 38.9375 49.359375 
Q 44.34375 44.921875 44.671875 37.109375 
L 44.671875 37.109375 
z
" id="Helvetica-73"/>
     </defs>
     <g style="fill:#262626;" transform="translate(276.97375 417.775)scale(0.16 -0.16)">
      <use xlink:href="#Helvetica-44"/>
      <use x="72.216797" xlink:href="#Helvetica-61"/>
      <use x="127.832031" xlink:href="#Helvetica-79"/>
      <use x="177.832031" xlink:href="#Helvetica-73"/>
     </g>
    </g>
   </g>
   <g id="matplotlib.axis_2">
    <g id="ytick_1">
     <g id="line2d_35">
      <defs>
       <path d="M 0 0 
L -6 0 
" id="mb4bea39982" style="stroke:#262626;stroke-width:0.8;"/>
      </defs>
      <g>
       <use style="fill:#262626;stroke:#262626;stroke-width:0.8;" x="72" xlink:href="#mb4bea39982" y="378"/>
      </g>
     </g>
     <g id="text_36">
      <!-- 0 -->
      <g style="fill:#262626;" transform="translate(53.6025 383.7425)scale(0.16 -0.16)">
       <use xlink:href="#Helvetica-30"/>
      </g>
     </g>
    </g>
    <g id="ytick_2">
     <g id="line2d_36">
      <g>
       <use style="fill:#262626;stroke:#262626;stroke-width:0.8;" x="72" xlink:href="#mb4bea39982" y="318.698182"/>
      </g>
     </g>
     <g id="text_37">
      <!-- 20 -->
      <g style="fill:#262626;" transform="translate(44.705 324.440682)scale(0.16 -0.16)">
       <use xlink:href="#Helvetica-32"/>
       <use x="55.615234" xlink:href="#Helvetica-30"/>
      </g>
     </g>
    </g>
    <g id="ytick_3">
     <g id="line2d_37">
      <g>
       <use style="fill:#262626;stroke:#262626;stroke-width:0.8;" x="72" xlink:href="#mb4bea39982" y="259.396364"/>
      </g>
     </g>
     <g id="text_38">
      <!-- 40 -->
      <g style="fill:#262626;" transform="translate(44.705 265.138864)scale(0.16 -0.16)">
       <use xlink:href="#Helvetica-34"/>
       <use x="55.615234" xlink:href="#Helvetica-30"/>
      </g>
     </g>
    </g>
    <g id="ytick_4">
     <g id="line2d_38">
      <g>
       <use style="fill:#262626;stroke:#262626;stroke-width:0.8;" x="72" xlink:href="#mb4bea39982" y="200.094545"/>
      </g>
     </g>
     <g id="text_39">
      <!-- 60 -->
      <g style="fill:#262626;" transform="translate(44.705 205.837045)scale(0.16 -0.16)">
       <use xlink:href="#Helvetica-36"/>
       <use x="55.615234" xlink:href="#Helvetica-30"/>
      </g>
     </g>
    </g>
    <g id="ytick_5">
     <g id="line2d_39">
      <g>
       <use style="fill:#262626;stroke:#262626;stroke-width:0.8;" x="72" xlink:href="#mb4bea39982" y="140.792727"/>
      </g>
     </g>
     <g id="text_40">
      <!-- 80 -->
      <g style="fill:#262626;" transform="translate(44.705 146.535227)scale(0.16 -0.16)">
       <use xlink:href="#Helvetica-38"/>
       <use x="55.615234" xlink:href="#Helvetica-30"/>
      </g>
     </g>
    </g>
    <g id="ytick_6">
     <g id="line2d_40">
      <g>
       <use style="fill:#262626;stroke:#262626;stroke-width:0.8;" x="72" xlink:href="#mb4bea39982" y="81.490909"/>
      </g>
     </g>
     <g id="text_41">
      <!-- 100 -->
      <g style="fill:#262626;" transform="translate(35.8075 87.233409)scale(0.16 -0.16)">
       <use xlink:href="#Helvetica-31"/>
       <use x="55.615234" xlink:href="#Helvetica-30"/>
       <use x="111.230469" xlink:href="#Helvetica-30"/>
      </g>
     </g>
    </g>
    <g id="text_42">
     <!-- Survival % -->
     <defs>
      <path d="M 51.375 50.984375 
L 51.375 50.984375 
Q 50.734375 57.765625 46.015625 61.453125 
Q 41.3125 65.140625 33.34375 65.140625 
Q 25.140625 65.140625 20.890625 61.96875 
Q 16.65625 58.796875 16.65625 52.6875 
Q 16.65625 48.53125 19.484375 46.484375 
Q 22.3125 44.4375 30.859375 42.4375 
L 43.359375 39.453125 
Q 53.421875 37.0625 57.71875 32.375 
Q 62.015625 27.734375 62.015625 19.234375 
Q 62.015625 9.46875 54.609375 3.75 
Q 47.21875 -1.953125 34.578125 -1.953125 
Q 20.515625 -1.953125 12.59375 4.640625 
Q 4.890625 11.140625 4.890625 22.40625 
L 4.890625 22.953125 
L 4.890625 22.953125 
L 13.8125 22.953125 
L 13.8125 22.953125 
Q 14.0625 15.140625 19.484375 10.890625 
Q 24.90625 6.640625 34.578125 6.640625 
Q 43.5 6.640625 48.140625 9.71875 
Q 52.78125 12.796875 52.78125 18.75 
Q 52.78125 23.921875 49.703125 26.421875 
Q 46.6875 28.859375 37.5 31.0625 
L 25 34.03125 
Q 15.53125 36.28125 11.46875 40.28125 
Q 7.421875 44.28125 7.421875 51.375 
Q 7.421875 61.671875 14.421875 67.703125 
Q 21.4375 73.734375 33.34375 73.734375 
Q 45.453125 73.734375 52.625 67.671875 
Q 59.8125 61.625 60.296875 50.984375 
L 60.296875 50.984375 
z
" id="Helvetica-53"/>
      <path d="M 15.578125 52.25 
L 15.578125 18.5625 
Q 15.578125 11.96875 18.109375 9.0625 
Q 20.65625 6.15625 26.375 6.15625 
Q 32.71875 6.15625 36.421875 11.0625 
Q 40.140625 15.96875 40.140625 24.359375 
L 40.140625 24.359375 
L 40.140625 52.25 
L 40.140625 52.25 
L 44.53125 52.25 
L 48.921875 52.25 
L 48.921875 52.25 
L 48.921875 0 
L 48.921875 0 
L 44.78125 0 
L 40.578125 0 
L 40.578125 0 
L 40.578125 7.953125 
L 40.578125 7.953125 
L 40.578125 7.953125 
Q 39.703125 6.546875 38.625 5.28125 
Q 33.015625 -1.421875 24.5625 -1.421875 
Q 15.671875 -1.421875 11.21875 3.015625 
Q 6.78125 7.46875 6.78125 16.359375 
L 6.78125 52.25 
L 6.78125 52.25 
L 11.1875 52.25 
L 15.578125 52.25 
z
" id="Helvetica-75"/>
      <path d="M 7.71875 0 
L 7.71875 52.25 
L 7.71875 52.25 
L 11.859375 52.25 
L 16.0625 52.25 
L 16.0625 52.25 
L 16.0625 43.3125 
L 16.0625 43.3125 
L 16.0625 43.3125 
Q 17.1875 45.40625 18.453125 47.125 
Q 23.4375 53.8125 30.71875 53.8125 
Q 31.9375 53.8125 33.203125 53.375 
L 33.203125 44.390625 
L 31.390625 44.4375 
Q 24.265625 44.4375 20.375 40.15625 
Q 16.5 35.890625 16.5 27.984375 
L 16.5 27.984375 
L 16.5 0 
L 16.5 0 
L 12.109375 0 
L 7.71875 0 
z
" id="Helvetica-72"/>
      <path d="M 0.78125 52.25 
L 0.78125 52.25 
L 5.90625 52.25 
L 11.03125 52.25 
L 11.03125 52.25 
L 25.046875 9.46875 
L 25.046875 9.46875 
L 25.046875 9.46875 
L 39.5 52.25 
L 39.5 52.25 
L 44.34375 52.25 
L 49.21875 52.25 
L 49.21875 52.25 
L 29.734375 0 
L 25.046875 0 
L 20.3125 0 
z
" id="Helvetica-76"/>
      <path d="M 6.78125 0 
L 6.78125 52.25 
L 6.78125 52.25 
L 11.1875 52.25 
L 15.578125 52.25 
L 15.578125 52.25 
L 15.578125 0 
L 15.578125 0 
L 11.1875 0 
L 6.78125 0 
z
M 6.6875 71.78125 
L 15.671875 71.78125 
L 15.671875 61.8125 
L 6.6875 61.8125 
z
" id="Helvetica-69"/>
      <path d="M 6.6875 0 
L 6.6875 71.78125 
L 6.6875 71.78125 
L 11.078125 71.78125 
L 15.484375 71.78125 
L 15.484375 71.78125 
L 15.484375 0 
L 15.484375 0 
L 11.078125 0 
L 6.6875 0 
z
" id="Helvetica-6c"/>
      <path id="Helvetica-20"/>
      <path d="M 20.90625 35.359375 
Q 13.96875 35.359375 8.9375 40.40625 
Q 3.90625 45.453125 3.90625 52.4375 
Q 3.90625 59.421875 8.9375 64.5 
Q 13.96875 69.578125 20.90625 69.578125 
Q 27.828125 69.578125 32.875 64.5 
Q 37.9375 59.421875 37.9375 52.4375 
Q 37.9375 45.453125 32.875 40.40625 
Q 27.828125 35.359375 20.90625 35.359375 
z
M 20.90625 62.546875 
Q 16.796875 62.546875 13.84375 59.546875 
Q 10.890625 56.546875 10.890625 52.4375 
Q 10.890625 48.34375 13.84375 45.359375 
Q 16.796875 42.390625 20.90625 42.390625 
Q 25 42.390625 27.96875 45.359375 
Q 30.953125 48.34375 30.953125 52.4375 
Q 30.953125 56.546875 27.96875 59.546875 
Q 25 62.546875 20.90625 62.546875 
z
M 21.34375 -1.65625 
L 62.109375 70.3125 
L 67.578125 70.3125 
L 26.8125 -1.65625 
z
M 67.96875 -0.296875 
Q 61.03125 -0.296875 56 4.75 
Q 50.984375 9.8125 50.984375 16.796875 
Q 50.984375 23.78125 56 28.859375 
Q 61.03125 33.9375 67.96875 33.9375 
Q 74.90625 33.9375 79.953125 28.859375 
Q 85.015625 23.78125 85.015625 16.796875 
Q 85.015625 9.8125 79.953125 4.75 
Q 74.90625 -0.296875 67.96875 -0.296875 
z
M 67.96875 26.90625 
Q 63.875 26.90625 60.90625 23.90625 
Q 57.953125 20.90625 57.953125 16.796875 
Q 57.953125 12.703125 60.90625 9.71875 
Q 63.875 6.734375 67.96875 6.734375 
Q 72.078125 6.734375 75.046875 9.71875 
Q 78.03125 12.703125 78.03125 16.796875 
Q 78.03125 20.90625 75.046875 23.90625 
Q 72.078125 26.90625 67.96875 26.90625 
z
" id="Helvetica-25"/>
     </defs>
     <g style="fill:#262626;" transform="translate(28.5025 252.70875)rotate(-90)scale(0.16 -0.16)">
      <use xlink:href="#Helvetica-53"/>
      <use x="66.699219" xlink:href="#Helvetica-75"/>
      <use x="122.314453" xlink:href="#Helvetica-72"/>
      <use x="155.615234" xlink:href="#Helvetica-76"/>
      <use x="205.615234" xlink:href="#Helvetica-69"/>
      <use x="227.832031" xlink:href="#Helvetica-76"/>
      <use x="277.832031" xlink:href="#Helvetica-61"/>
      <use x="333.447266" xlink:href="#Helvetica-6c"/>
      <use x="355.664062" xlink:href="#Helvetica-20"/>
      <use x="383.447266" xlink:href="#Helvetica-25"/>
     </g>
    </g>
   </g>
   <g id="line2d_41">
    <path clip-path="url(#p2492ce5305)" d="M 72 81.490909 
L 124.517647 81.490909 
L 124.517647 378 
" style="fill:none;opacity:0.8;stroke:#1f77b4;stroke-linecap:round;stroke-width:1.5;"/>
   </g>
   <g id="line2d_42">
    <path clip-path="url(#p2492ce5305)" d="M 72 81.490909 
L 505.270588 81.490909 
L 505.270588 81.490909 
" style="fill:none;opacity:0.8;stroke:#ff7f0e;stroke-linecap:round;stroke-width:1.5;"/>
   </g>
   <g id="line2d_43">
    <path clip-path="url(#p2492ce5305)" d="M 72 81.490909 
L 242.682353 81.490909 
L 242.682353 140.792727 
L 505.270588 140.792727 
L 505.270588 140.792727 
" style="fill:none;opacity:0.8;stroke:#2ca02c;stroke-linecap:round;stroke-width:1.5;"/>
   </g>
   <g id="line2d_44">
    <path clip-path="url(#p2492ce5305)" d="M 98.258824 378 
L 98.258824 51.84 
" style="fill:none;opacity:0.8;stroke:#ff0000;stroke-dasharray:5.55,2.4;stroke-dashoffset:0;stroke-width:1.5;"/>
   </g>
   <g id="patch_3">
    <path d="M 72 378 
L 72 51.84 
" style="fill:none;stroke:#262626;stroke-linecap:square;stroke-linejoin:miter;stroke-width:1.25;"/>
   </g>
   <g id="patch_4">
    <path d="M 518.4 378 
L 518.4 51.84 
" style="fill:none;stroke:#262626;stroke-linecap:square;stroke-linejoin:miter;stroke-width:1.25;"/>
   </g>
   <g id="patch_5">
    <path d="M 72 378 
L 518.4 378 
" style="fill:none;stroke:#262626;stroke-linecap:square;stroke-linejoin:miter;stroke-width:1.25;"/>
   </g>
   <g id="patch_6">
    <path d="M 72 51.84 
L 518.4 51.84 
" style="fill:none;stroke:#262626;stroke-linecap:square;stroke-linejoin:miter;stroke-width:1.25;"/>
   </g>
   <g id="text_43">
    <!-- T. brucei -->
    <defs>
     <path d="M 25.6875 0 
L 25.6875 63.1875 
L 25.6875 63.1875 
L 1.421875 63.1875 
L 1.421875 63.1875 
L 1.421875 67.484375 
L 1.421875 71.78125 
L 1.421875 71.78125 
L 59.671875 71.78125 
L 59.671875 71.78125 
L 59.671875 67.484375 
L 59.671875 63.1875 
L 59.671875 63.1875 
L 35.40625 63.1875 
L 35.40625 63.1875 
L 35.40625 0 
L 35.40625 0 
L 30.5625 0 
L 25.6875 0 
z
" id="Helvetica-54"/>
     <path d="M 8.6875 10.59375 
L 19.140625 10.59375 
L 19.140625 0 
L 8.6875 0 
z
" id="Helvetica-2e"/>
     <path d="M 5.8125 71.78125 
L 5.8125 71.78125 
L 10.203125 71.78125 
L 14.59375 71.78125 
L 14.59375 71.78125 
L 14.59375 45.453125 
L 14.59375 45.453125 
Q 20.359375 53.90625 29.5 53.8125 
Q 39.75 53.8125 45.71875 46.75 
Q 51.703125 39.703125 51.703125 27.6875 
Q 51.703125 14.0625 45.671875 6.3125 
Q 39.65625 -1.421875 28.953125 -1.421875 
Q 20.125 -1.421875 14.890625 5.375 
L 14.0625 6.453125 
L 14.0625 6.453125 
L 14.0625 0 
L 14.0625 0 
L 5.8125 0 
L 5.8125 0 
z
M 28.515625 6.203125 
Q 35.40625 6.203125 38.96875 11.40625 
Q 42.53125 16.609375 42.53125 26.5625 
Q 42.53125 36.375 39.109375 41.078125 
Q 35.6875 45.796875 28.5625 45.796875 
Q 21.296875 45.796875 17.9375 40.46875 
Q 14.59375 35.15625 14.59375 23.640625 
L 14.59375 23.640625 
L 14.59375 23.640625 
L 14.59375 23.640625 
Q 14.59375 15.28125 18.21875 10.75 
Q 21.828125 6.203125 28.515625 6.203125 
z
" id="Helvetica-62"/>
     <path d="M 47.703125 18.796875 
L 47.703125 18.796875 
Q 46.34375 8.9375 40.71875 3.75 
Q 35.109375 -1.421875 25.78125 -1.421875 
Q 15.375 -1.421875 9.171875 6.046875 
Q 2.984375 13.53125 2.984375 26.171875 
Q 2.984375 38.8125 9.40625 46.3125 
Q 15.828125 53.8125 26.65625 53.8125 
Q 36.078125 53.8125 41.6875 48.65625 
Q 47.3125 43.5 47.703125 34.46875 
L 47.703125 34.46875 
L 39.265625 34.46875 
L 39.265625 34.46875 
Q 38.71875 40.09375 35.34375 43.15625 
Q 31.984375 46.234375 26.375 46.234375 
Q 19.734375 46.234375 15.9375 40.890625 
Q 12.15625 35.546875 12.15625 26.171875 
Q 12.15625 16.21875 15.671875 11.1875 
Q 19.1875 6.15625 26.125 6.15625 
Q 31.25 6.15625 34.6875 9.453125 
Q 38.140625 12.75 39.265625 18.796875 
L 39.265625 18.796875 
z
" id="Helvetica-63"/>
     <path d="M 27.78125 -1.421875 
Q 16.703125 -1.421875 10.34375 5.609375 
Q 4 12.640625 4 25.046875 
Q 4 38.234375 10.71875 46.015625 
Q 17.4375 53.8125 28.765625 53.8125 
Q 39.015625 53.8125 45.3125 46.1875 
Q 51.609375 38.578125 51.609375 26.171875 
L 51.515625 23.046875 
L 51.515625 23.046875 
L 13.328125 23.046875 
L 13.328125 23.046875 
Q 13.875 15.234375 16.890625 11.140625 
Q 20.609375 6.15625 28.609375 6.15625 
Q 33.640625 6.15625 37.390625 8.984375 
Q 41.15625 11.8125 42 16.21875 
L 42 16.21875 
L 50.6875 16.21875 
L 50.6875 16.21875 
Q 48.734375 7.625 42.875 3.09375 
Q 37.015625 -1.421875 27.78125 -1.421875 
z
M 42.4375 30.125 
L 42.4375 30.125 
Q 42.046875 37.40625 38.8125 41.453125 
Q 35.25 45.953125 28.375 45.953125 
Q 21.4375 45.953125 17.28125 40.765625 
Q 14.015625 36.71875 13.328125 30.125 
L 13.328125 30.125 
z
" id="Helvetica-65"/>
    </defs>
    <g style="fill:#262626;" transform="translate(264.08125 45.84)scale(0.16 -0.16)">
     <use xlink:href="#Helvetica-54"/>
     <use x="61.083984" xlink:href="#Helvetica-2e"/>
     <use x="88.867188" xlink:href="#Helvetica-20"/>
     <use x="116.650391" xlink:href="#Helvetica-62"/>
     <use x="172.265625" xlink:href="#Helvetica-72"/>
     <use x="205.566406" xlink:href="#Helvetica-75"/>
     <use x="261.181641" xlink:href="#Helvetica-63"/>
     <use x="311.181641" xlink:href="#Helvetica-65"/>
     <use x="366.796875" xlink:href="#Helvetica-69"/>
    </g>
   </g>
   <g id="legend_1">
    <g id="line2d_45">
     <path d="M 527.4 185.54125 
L 547.4 185.54125 
" style="fill:none;opacity:0.8;stroke:#1f77b4;stroke-linecap:round;stroke-width:1.5;"/>
    </g>
    <g id="line2d_46"/>
    <g id="text_44">
     <!-- Control -->
     <defs>
      <path d="M 68.109375 26.421875 
L 68.109375 26.421875 
Q 66.265625 13.140625 57.9375 5.59375 
Q 49.609375 -1.953125 36.859375 -1.953125 
Q 22.015625 -1.953125 13.203125 8.265625 
Q 4.390625 18.5 4.390625 35.84375 
Q 4.390625 53.171875 13.546875 63.453125 
Q 22.703125 73.734375 38.140625 73.734375 
Q 50.296875 73.734375 58.109375 67.484375 
Q 65.921875 61.234375 67.484375 50.25 
L 67.484375 50.25 
L 58.109375 50.25 
L 58.109375 50.25 
Q 56.734375 57.375 51.484375 61.25 
Q 46.234375 65.140625 37.984375 65.140625 
Q 27.203125 65.140625 20.796875 57.203125 
Q 14.40625 49.265625 14.40625 35.84375 
Q 14.40625 21.578125 20.328125 14.109375 
Q 26.265625 6.640625 37.546875 6.640625 
Q 45.90625 6.640625 51.421875 11.78125 
Q 56.9375 16.9375 58.734375 26.421875 
L 58.734375 26.421875 
z
" id="Helvetica-43"/>
      <path d="M 27.78125 -1.421875 
Q 16.9375 -1.421875 10.21875 6.1875 
Q 3.515625 13.8125 3.515625 26.171875 
Q 3.515625 38.578125 10.21875 46.1875 
Q 16.9375 53.8125 27.78125 53.8125 
Q 38.71875 53.8125 45.40625 46.1875 
Q 52.09375 38.578125 52.09375 26.171875 
Q 52.09375 13.8125 45.40625 6.1875 
Q 38.71875 -1.421875 27.78125 -1.421875 
z
M 27.78125 6.15625 
Q 34.71875 6.15625 38.8125 11.578125 
Q 42.921875 17 42.921875 26.171875 
Q 42.921875 35.359375 38.8125 40.796875 
Q 34.71875 46.234375 27.78125 46.234375 
Q 20.84375 46.234375 16.765625 40.796875 
Q 12.703125 35.359375 12.703125 26.171875 
Q 12.703125 17 16.765625 11.578125 
Q 20.84375 6.15625 27.78125 6.15625 
z
" id="Helvetica-6f"/>
      <path d="M 6.5 0 
L 6.5 52.25 
L 6.5 52.25 
L 10.640625 52.25 
L 14.84375 52.25 
L 14.84375 52.25 
L 14.84375 44.53125 
L 14.84375 44.53125 
L 14.84375 44.53125 
L 16.796875 47.125 
Q 22.515625 53.8125 31.109375 53.8125 
Q 39.75 53.8125 44.4375 49.125 
Q 49.125 44.4375 49.125 35.796875 
L 49.125 0 
L 49.125 0 
L 44.734375 0 
L 40.328125 0 
L 40.328125 0 
L 40.328125 32.8125 
Q 40.328125 39.703125 37.671875 42.75 
Q 35.015625 45.796875 29.046875 45.796875 
Q 22.703125 45.796875 18.984375 40.984375 
Q 15.28125 36.1875 15.28125 27.984375 
L 15.28125 27.984375 
L 15.28125 0 
L 15.28125 0 
L 10.890625 0 
L 6.5 0 
z
" id="Helvetica-6e"/>
      <path d="M 25.6875 0.046875 
Q 21.1875 -0.640625 19.140625 -0.640625 
Q 13.375 -0.640625 11 1.890625 
Q 8.640625 4.4375 8.640625 10.640625 
L 8.640625 45.0625 
L 8.640625 45.0625 
L 1.421875 45.0625 
L 1.421875 52.25 
L 8.640625 52.25 
L 8.640625 52.25 
L 8.640625 66.890625 
L 17.4375 66.890625 
L 17.4375 52.25 
L 17.4375 52.25 
L 25.6875 52.25 
L 25.6875 45.0625 
L 17.4375 45.0625 
L 17.4375 45.0625 
L 17.4375 10.640625 
Q 17.4375 8.890625 18.828125 7.859375 
Q 20.21875 6.84375 22.5625 6.84375 
L 25.6875 6.84375 
z
" id="Helvetica-74"/>
     </defs>
     <g style="fill:#262626;" transform="translate(555.4 189.04125)scale(0.16 -0.16)">
      <use xlink:href="#Helvetica-43"/>
      <use x="72.216797" xlink:href="#Helvetica-6f"/>
      <use x="127.832031" xlink:href="#Helvetica-6e"/>
      <use x="183.447266" xlink:href="#Helvetica-74"/>
      <use x="211.230469" xlink:href="#Helvetica-72"/>
      <use x="244.53125" xlink:href="#Helvetica-6f"/>
      <use x="300.146484" xlink:href="#Helvetica-6c"/>
     </g>
    </g>
    <g id="line2d_47">
     <path d="M 527.4 205.33125 
L 547.4 205.33125 
" style="fill:none;opacity:0.8;stroke:#ff7f0e;stroke-linecap:round;stroke-width:1.5;"/>
    </g>
    <g id="line2d_48"/>
    <g id="text_45">
     <!-- Melarsoprol -->
     <defs>
      <path d="M 16.75 0 
L 16.75 0 
L 12.0625 0 
L 7.328125 0 
L 7.328125 0 
L 7.328125 71.78125 
L 7.328125 71.78125 
L 14.3125 71.78125 
L 21.296875 71.78125 
L 21.296875 71.78125 
L 41.796875 10.6875 
L 41.796875 10.6875 
L 41.796875 10.6875 
L 62.15625 71.78125 
L 62.15625 71.78125 
L 69.140625 71.78125 
L 76.125 71.78125 
L 76.125 71.78125 
L 76.125 0 
L 76.125 0 
L 71.4375 0 
L 66.703125 0 
L 66.703125 0 
L 66.703125 60.75 
L 66.703125 60.75 
L 46.4375 0 
L 41.75 0 
L 37.0625 0 
L 16.75 60.546875 
L 16.75 60.546875 
z
" id="Helvetica-4d"/>
      <path d="M 5.8125 52.25 
L 5.8125 52.25 
L 9.96875 52.25 
L 14.15625 52.25 
L 14.15625 52.25 
L 14.15625 44.828125 
L 14.15625 44.828125 
L 14.59375 45.453125 
Q 20.265625 53.8125 29.5 53.8125 
Q 39.75 53.8125 45.71875 46.75 
Q 51.703125 39.703125 51.703125 27.6875 
Q 51.703125 14.0625 45.671875 6.3125 
Q 39.65625 -1.421875 28.953125 -1.421875 
Q 20.125 -1.421875 14.890625 5.375 
L 14.59375 5.765625 
L 14.59375 5.765625 
L 14.59375 -20.65625 
L 14.59375 -20.65625 
L 10.203125 -20.65625 
L 5.8125 -20.65625 
L 5.8125 -20.65625 
z
M 28.515625 6.203125 
Q 35.40625 6.203125 38.96875 11.40625 
Q 42.53125 16.609375 42.53125 26.5625 
Q 42.53125 36.375 39.109375 41.078125 
Q 35.6875 45.796875 28.5625 45.796875 
Q 21.296875 45.796875 17.9375 40.46875 
Q 14.59375 35.15625 14.59375 23.640625 
L 14.59375 23.640625 
L 14.59375 23.640625 
L 14.59375 23.640625 
Q 14.59375 15.28125 18.203125 10.734375 
Q 21.828125 6.203125 28.515625 6.203125 
z
" id="Helvetica-70"/>
     </defs>
     <g style="fill:#262626;" transform="translate(555.4 208.83125)scale(0.16 -0.16)">
      <use xlink:href="#Helvetica-4d"/>
      <use x="83.300781" xlink:href="#Helvetica-65"/>
      <use x="138.916016" xlink:href="#Helvetica-6c"/>
      <use x="161.132812" xlink:href="#Helvetica-61"/>
      <use x="216.748047" xlink:href="#Helvetica-72"/>
      <use x="250.048828" xlink:href="#Helvetica-73"/>
      <use x="300.048828" xlink:href="#Helvetica-6f"/>
      <use x="355.664062" xlink:href="#Helvetica-70"/>
      <use x="411.279297" xlink:href="#Helvetica-72"/>
      <use x="444.580078" xlink:href="#Helvetica-6f"/>
      <use x="500.195312" xlink:href="#Helvetica-6c"/>
     </g>
    </g>
    <g id="line2d_49">
     <path d="M 527.4 225.43375 
L 547.4 225.43375 
" style="fill:none;opacity:0.8;stroke:#2ca02c;stroke-linecap:round;stroke-width:1.5;"/>
    </g>
    <g id="line2d_50"/>
    <g id="text_46">
     <!-- Compound 25 -->
     <defs>
      <path d="M 6.5 0 
L 6.5 52.25 
L 6.5 52.25 
L 10.640625 52.25 
L 14.84375 52.25 
L 14.84375 52.25 
L 14.84375 44.484375 
L 14.84375 44.484375 
L 14.84375 44.484375 
L 16.65625 46.828125 
Q 22.5625 53.8125 30.765625 53.8125 
Q 37.796875 53.8125 41.9375 49.65625 
Q 43.796875 47.796875 44.828125 45.40625 
L 44.828125 45.40625 
L 46.234375 47.21875 
Q 51.90625 53.8125 59.765625 53.8125 
Q 67.96875 53.8125 72.4375 49.34375 
Q 76.90625 44.875 76.90625 36.671875 
L 76.90625 0 
L 76.90625 0 
L 72.515625 0 
L 68.109375 0 
L 68.109375 0 
L 68.109375 33.6875 
Q 68.109375 39.65625 65.671875 42.71875 
Q 63.234375 45.796875 58.546875 45.796875 
Q 52.828125 45.796875 49.453125 41.359375 
Q 46.09375 36.921875 46.09375 29.34375 
L 46.09375 29.34375 
L 46.09375 0 
L 46.09375 0 
L 41.703125 0 
L 37.3125 0 
L 37.3125 0 
L 37.3125 35.796875 
Q 37.3125 40.671875 35.078125 43.234375 
Q 32.859375 45.796875 28.609375 45.796875 
Q 22.75 45.796875 19.015625 40.8125 
Q 15.28125 35.84375 15.28125 27.984375 
L 15.28125 27.984375 
L 15.28125 0 
L 15.28125 0 
L 10.890625 0 
L 6.5 0 
z
" id="Helvetica-6d"/>
      <path d="M 26.421875 -1.421875 
Q 15.921875 -1.421875 9.71875 6.421875 
Q 3.515625 14.265625 3.515625 27.59375 
Q 3.515625 39.359375 9.515625 46.578125 
Q 15.53125 53.8125 25.203125 53.8125 
Q 34.8125 53.8125 40.4375 45.65625 
L 41.109375 44.671875 
L 41.109375 44.671875 
L 41.109375 71.78125 
L 41.109375 71.78125 
L 45.515625 71.78125 
L 49.90625 71.78125 
L 49.90625 71.78125 
L 49.90625 0 
L 49.90625 0 
L 45.84375 0 
L 41.75 0 
L 41.75 0 
L 41.75 7.125 
L 41.75 7.125 
L 40.625 5.515625 
Q 35.203125 -1.421875 26.421875 -1.421875 
z
M 26.90625 45.90625 
Q 19.53125 45.90625 16.109375 41.1875 
Q 12.703125 36.46875 12.703125 26.21875 
Q 12.703125 16.546875 16.375 11.328125 
Q 20.0625 6.109375 26.90625 6.109375 
Q 33.296875 6.109375 37.203125 10.90625 
Q 41.109375 15.71875 41.109375 23.640625 
Q 41.109375 34.328125 37.421875 40.109375 
Q 33.734375 45.90625 26.90625 45.90625 
z
" id="Helvetica-64"/>
     </defs>
     <g style="fill:#262626;" transform="translate(555.4 228.93375)scale(0.16 -0.16)">
      <use xlink:href="#Helvetica-43"/>
      <use x="72.216797" xlink:href="#Helvetica-6f"/>
      <use x="127.832031" xlink:href="#Helvetica-6d"/>
      <use x="211.132812" xlink:href="#Helvetica-70"/>
      <use x="266.748047" xlink:href="#Helvetica-6f"/>
      <use x="322.363281" xlink:href="#Helvetica-75"/>
      <use x="377.978516" xlink:href="#Helvetica-6e"/>
      <use x="433.59375" xlink:href="#Helvetica-64"/>
      <use x="489.208984" xlink:href="#Helvetica-20"/>
      <use x="516.992188" xlink:href="#Helvetica-32"/>
      <use x="572.607422" xlink:href="#Helvetica-35"/>
     </g>
    </g>
    <g id="line2d_51">
     <path d="M 527.4 245.38625 
L 547.4 245.38625 
" style="fill:none;opacity:0.8;stroke:#ff0000;stroke-dasharray:5.55,2.4;stroke-dashoffset:0;stroke-width:1.5;"/>
    </g>
    <g id="line2d_52"/>
    <g id="text_47">
     <!-- Day Infection -->
     <defs>
      <path d="M 9.078125 0 
L 9.078125 71.78125 
L 9.078125 71.78125 
L 13.921875 71.78125 
L 18.796875 71.78125 
L 18.796875 71.78125 
L 18.796875 0 
L 18.796875 0 
L 13.96875 0 
L 9.078125 0 
z
" id="Helvetica-49"/>
      <path d="M 17.4375 44.96875 
L 17.4375 44.96875 
L 17.4375 0 
L 17.4375 0 
L 13.03125 0 
L 8.640625 0 
L 8.640625 0 
L 8.640625 44.96875 
L 8.640625 44.96875 
L 1.421875 44.96875 
L 1.421875 52.25 
L 8.640625 52.25 
L 8.640625 52.25 
L 8.640625 61.140625 
Q 8.640625 66.9375 12.0625 69.859375 
Q 15.484375 72.796875 22.3125 72.796875 
L 26.171875 72.65625 
L 26.171875 64.75 
L 22.703125 64.890625 
Q 20.171875 64.890625 18.796875 63.25 
Q 17.4375 61.625 17.4375 58.59375 
L 17.4375 52.25 
L 17.4375 52.25 
L 26.171875 52.25 
L 26.171875 44.96875 
z
" id="Helvetica-66"/>
     </defs>
     <g style="fill:#262626;" transform="translate(555.4 248.88625)scale(0.16 -0.16)">
      <use xlink:href="#Helvetica-44"/>
      <use x="72.216797" xlink:href="#Helvetica-61"/>
      <use x="127.832031" xlink:href="#Helvetica-79"/>
      <use x="177.832031" xlink:href="#Helvetica-20"/>
      <use x="205.615234" xlink:href="#Helvetica-49"/>
      <use x="233.398438" xlink:href="#Helvetica-6e"/>
      <use x="289.013672" xlink:href="#Helvetica-66"/>
      <use x="316.796875" xlink:href="#Helvetica-65"/>
      <use x="372.412109" xlink:href="#Helvetica-63"/>
      <use x="422.412109" xlink:href="#Helvetica-74"/>
      <use x="450.195312" xlink:href="#Helvetica-69"/>
      <use x="472.412109" xlink:href="#Helvetica-6f"/>
      <use x="528.027344" xlink:href="#Helvetica-6e"/>
     </g>
    </g>
   </g>
  </g>
 </g>
 <defs>
  <clipPath id="p2492ce5305">
   <rect height="326.16" width="446.4" x="72" y="51.84"/>
  </clipPath>
 </defs>
</svg>
