<?xml version="1.0" encoding="utf-8" standalone="no"?>
<!DOCTYPE svg PUBLIC "-//W3C//DTD SVG 1.1//EN"
  "http://www.w3.org/Graphics/SVG/1.1/DTD/svg11.dtd">
<!-- Created with matplotlib (http://matplotlib.org/) -->
<svg height="432pt" version="1.1" viewBox="0 0 576 432" width="576pt" xmlns="http://www.w3.org/2000/svg" xmlns:xlink="http://www.w3.org/1999/xlink">
 <defs>
  <style type="text/css">
*{stroke-linecap:butt;stroke-linejoin:round;}
  </style>
 </defs>
 <g id="figure_1">
  <g id="patch_1">
   <path d="M 0 432 
L 576 432 
L 576 0 
L 0 0 
z
" style="fill:#ffffff;"/>
  </g>
  <g id="axes_1">
   <g id="patch_2">
    <path d="M 72 378 
L 518.4 378 
L 518.4 51.84 
L 72 51.84 
z
" style="fill:#ffffff;"/>
   </g>
   <g id="matplotlib.axis_1">
    <g id="xtick_1">
     <g id="line2d_1">
      <defs>
       <path d="M 0 0 
L 0 6 
" id="m9814923877" style="stroke:#262626;stroke-width:0.8;"/>
      </defs>
      <g>
       <use style="fill:#262626;stroke:#262626;stroke-width:0.8;" x="92.290909" xlink:href="#m9814923877" y="378"/>
      </g>
     </g>
     <g id="text_1">
      <!-- 0 -->
      <defs>
       <path d="M 4.15625 35.296875 
Q 4.15625 48 6.765625 55.734375 
Q 9.375 63.484375 14.515625 67.671875 
Q 19.671875 71.875 27.484375 71.875 
Q 33.25 71.875 37.59375 69.546875 
Q 41.9375 67.234375 44.765625 62.859375 
Q 47.609375 58.5 49.21875 52.21875 
Q 50.828125 45.953125 50.828125 35.296875 
Q 50.828125 22.703125 48.234375 14.96875 
Q 45.65625 7.234375 40.5 3 
Q 35.359375 -1.21875 27.484375 -1.21875 
Q 17.140625 -1.21875 11.234375 6.203125 
Q 4.15625 15.140625 4.15625 35.296875 
z
M 13.1875 35.296875 
Q 13.1875 17.671875 17.3125 11.828125 
Q 21.4375 6 27.484375 6 
Q 33.546875 6 37.671875 11.859375 
Q 41.796875 17.71875 41.796875 35.296875 
Q 41.796875 52.984375 37.671875 58.78125 
Q 33.546875 64.59375 27.390625 64.59375 
Q 21.34375 64.59375 17.71875 59.46875 
Q 13.1875 52.9375 13.1875 35.296875 
z
" id="ArialMT-30"/>
      </defs>
      <g style="fill:#262626;" transform="translate(89.51044 394.657812)scale(0.1 -0.1)">
       <use xlink:href="#ArialMT-30"/>
      </g>
     </g>
    </g>
    <g id="xtick_2">
     <g id="line2d_2">
      <g>
       <use style="fill:#262626;stroke:#262626;stroke-width:0.8;" x="153.778512" xlink:href="#m9814923877" y="378"/>
      </g>
     </g>
     <g id="text_2">
      <!-- 5 -->
      <defs>
       <path d="M 4.15625 18.75 
L 13.375 19.53125 
Q 14.40625 12.796875 18.140625 9.390625 
Q 21.875 6 27.15625 6 
Q 33.5 6 37.890625 10.78125 
Q 42.28125 15.578125 42.28125 23.484375 
Q 42.28125 31 38.0625 35.34375 
Q 33.84375 39.703125 27 39.703125 
Q 22.75 39.703125 19.328125 37.765625 
Q 15.921875 35.84375 13.96875 32.765625 
L 5.71875 33.84375 
L 12.640625 70.609375 
L 48.25 70.609375 
L 48.25 62.203125 
L 19.671875 62.203125 
L 15.828125 42.96875 
Q 22.265625 47.46875 29.34375 47.46875 
Q 38.71875 47.46875 45.15625 40.96875 
Q 51.609375 34.46875 51.609375 24.265625 
Q 51.609375 14.546875 45.953125 7.46875 
Q 39.0625 -1.21875 27.15625 -1.21875 
Q 17.390625 -1.21875 11.203125 4.25 
Q 5.03125 9.71875 4.15625 18.75 
z
" id="ArialMT-35"/>
      </defs>
      <g style="fill:#262626;" transform="translate(150.998044 394.657812)scale(0.1 -0.1)">
       <use xlink:href="#ArialMT-35"/>
      </g>
     </g>
    </g>
    <g id="xtick_3">
     <g id="line2d_3">
      <g>
       <use style="fill:#262626;stroke:#262626;stroke-width:0.8;" x="215.266116" xlink:href="#m9814923877" y="378"/>
      </g>
     </g>
     <g id="text_3">
      <!-- 10 -->
      <defs>
       <path d="M 37.25 0 
L 28.46875 0 
L 28.46875 56 
Q 25.296875 52.984375 20.140625 49.953125 
Q 14.984375 46.921875 10.890625 45.40625 
L 10.890625 53.90625 
Q 18.265625 57.375 23.78125 62.296875 
Q 29.296875 67.234375 31.59375 71.875 
L 37.25 71.875 
z
" id="ArialMT-31"/>
      </defs>
      <g style="fill:#262626;" transform="translate(209.705178 394.657812)scale(0.1 -0.1)">
       <use xlink:href="#ArialMT-31"/>
       <use x="55.615234" xlink:href="#ArialMT-30"/>
      </g>
     </g>
    </g>
    <g id="xtick_4">
     <g id="line2d_4">
      <g>
       <use style="fill:#262626;stroke:#262626;stroke-width:0.8;" x="276.753719" xlink:href="#m9814923877" y="378"/>
      </g>
     </g>
     <g id="text_4">
      <!-- 15 -->
      <g style="fill:#262626;" transform="translate(271.192782 394.657812)scale(0.1 -0.1)">
       <use xlink:href="#ArialMT-31"/>
       <use x="55.615234" xlink:href="#ArialMT-35"/>
      </g>
     </g>
    </g>
    <g id="xtick_5">
     <g id="line2d_5">
      <g>
       <use style="fill:#262626;stroke:#262626;stroke-width:0.8;" x="338.241322" xlink:href="#m9814923877" y="378"/>
      </g>
     </g>
     <g id="text_5">
      <!-- 20 -->
      <defs>
       <path d="M 50.34375 8.453125 
L 50.34375 0 
L 3.03125 0 
Q 2.9375 3.171875 4.046875 6.109375 
Q 5.859375 10.9375 9.828125 15.625 
Q 13.8125 20.3125 21.34375 26.46875 
Q 33.015625 36.03125 37.109375 41.625 
Q 41.21875 47.21875 41.21875 52.203125 
Q 41.21875 57.421875 37.46875 61 
Q 33.734375 64.59375 27.734375 64.59375 
Q 21.390625 64.59375 17.578125 60.78125 
Q 13.765625 56.984375 13.71875 50.25 
L 4.6875 51.171875 
Q 5.609375 61.28125 11.65625 66.578125 
Q 17.71875 71.875 27.9375 71.875 
Q 38.234375 71.875 44.234375 66.15625 
Q 50.25 60.453125 50.25 52 
Q 50.25 47.703125 48.484375 43.546875 
Q 46.734375 39.40625 42.65625 34.8125 
Q 38.578125 30.21875 29.109375 22.21875 
Q 21.1875 15.578125 18.9375 13.203125 
Q 16.703125 10.84375 15.234375 8.453125 
z
" id="ArialMT-32"/>
      </defs>
      <g style="fill:#262626;" transform="translate(332.680385 394.657812)scale(0.1 -0.1)">
       <use xlink:href="#ArialMT-32"/>
       <use x="55.615234" xlink:href="#ArialMT-30"/>
      </g>
     </g>
    </g>
    <g id="xtick_6">
     <g id="line2d_6">
      <g>
       <use style="fill:#262626;stroke:#262626;stroke-width:0.8;" x="399.728926" xlink:href="#m9814923877" y="378"/>
      </g>
     </g>
     <g id="text_6">
      <!-- 25 -->
      <g style="fill:#262626;" transform="translate(394.167988 394.657812)scale(0.1 -0.1)">
       <use xlink:href="#ArialMT-32"/>
       <use x="55.615234" xlink:href="#ArialMT-35"/>
      </g>
     </g>
    </g>
    <g id="xtick_7">
     <g id="line2d_7">
      <g>
       <use style="fill:#262626;stroke:#262626;stroke-width:0.8;" x="461.216529" xlink:href="#m9814923877" y="378"/>
      </g>
     </g>
     <g id="text_7">
      <!-- 30 -->
      <defs>
       <path d="M 4.203125 18.890625 
L 12.984375 20.0625 
Q 14.5 12.59375 18.140625 9.296875 
Q 21.78125 6 27 6 
Q 33.203125 6 37.46875 10.296875 
Q 41.75 14.59375 41.75 20.953125 
Q 41.75 27 37.796875 30.921875 
Q 33.84375 34.859375 27.734375 34.859375 
Q 25.25 34.859375 21.53125 33.890625 
L 22.515625 41.609375 
Q 23.390625 41.5 23.921875 41.5 
Q 29.546875 41.5 34.03125 44.421875 
Q 38.53125 47.359375 38.53125 53.46875 
Q 38.53125 58.296875 35.25 61.46875 
Q 31.984375 64.65625 26.8125 64.65625 
Q 21.6875 64.65625 18.265625 61.421875 
Q 14.84375 58.203125 13.875 51.765625 
L 5.078125 53.328125 
Q 6.6875 62.15625 12.390625 67.015625 
Q 18.109375 71.875 26.609375 71.875 
Q 32.46875 71.875 37.390625 69.359375 
Q 42.328125 66.84375 44.9375 62.5 
Q 47.5625 58.15625 47.5625 53.265625 
Q 47.5625 48.640625 45.0625 44.828125 
Q 42.578125 41.015625 37.703125 38.765625 
Q 44.046875 37.3125 47.5625 32.6875 
Q 51.078125 28.078125 51.078125 21.140625 
Q 51.078125 11.765625 44.234375 5.25 
Q 37.40625 -1.265625 26.953125 -1.265625 
Q 17.53125 -1.265625 11.296875 4.34375 
Q 5.078125 9.96875 4.203125 18.890625 
z
" id="ArialMT-33"/>
      </defs>
      <g style="fill:#262626;" transform="translate(455.655591 394.657812)scale(0.1 -0.1)">
       <use xlink:href="#ArialMT-33"/>
       <use x="55.615234" xlink:href="#ArialMT-30"/>
      </g>
     </g>
    </g>
    <g id="text_8">
     <!-- Days -->
     <defs>
      <path d="M 8.109375 0 
L 8.109375 71.78125 
L 8.109375 71.78125 
L 12.9375 71.78125 
L 12.9375 71.78125 
L 37.59375 71.78125 
Q 51.265625 71.78125 59.34375 62.03125 
Q 67.4375 52.296875 67.4375 35.84375 
Q 67.4375 19.4375 59.15625 9.71875 
Q 50.875 0 36.8125 0 
L 12.9375 0 
L 12.9375 0 
L 8.109375 0 
z
M 17.828125 8.296875 
L 17.828125 8.296875 
L 35.59375 8.296875 
Q 46.046875 8.296875 51.734375 15.46875 
Q 57.421875 22.65625 57.421875 35.84375 
Q 57.421875 49.078125 51.953125 56.28125 
Q 46.484375 63.484375 36.421875 63.484375 
L 17.828125 63.484375 
L 17.828125 63.484375 
z
" id="Helvetica-44"/>
      <path d="M 20.265625 -1.421875 
Q 12.59375 -1.421875 8.09375 2.671875 
Q 3.609375 6.78125 3.609375 13.765625 
Q 3.609375 20.796875 7.828125 24.953125 
Q 12.0625 29.109375 20.171875 30.125 
L 32.125 31.640625 
Q 33.59375 31.78125 34.90625 32.125 
Q 36.625 32.5625 37.546875 33.875 
Q 38.484375 35.203125 38.484375 37.203125 
L 38.484375 37.640625 
Q 38.484375 41.84375 35.296875 44.203125 
Q 32.125 46.578125 26.46875 46.578125 
Q 21.046875 46.578125 17.984375 44.0625 
Q 14.9375 41.546875 14.3125 36.578125 
L 14.3125 36.578125 
L 6.203125 36.578125 
L 6.203125 36.578125 
Q 6.84375 45.171875 12.25 49.484375 
Q 17.671875 53.8125 27.78125 53.8125 
Q 37.3125 53.8125 42.28125 49.6875 
Q 47.265625 45.5625 47.265625 37.640625 
L 47.265625 8.9375 
Q 47.265625 7.625 48.0625 6.8125 
Q 48.875 6 50.25 6 
Q 50.640625 6 51.390625 6.09375 
Q 52.15625 6.203125 53.03125 6.390625 
L 53.03125 0.046875 
Q 51.765625 -0.4375 50.34375 -0.734375 
Q 48.921875 -1.03125 47.953125 -1.03125 
Q 42.96875 -1.03125 40.71875 1.703125 
Q 39.265625 3.515625 38.625 6.84375 
L 38.625 6.84375 
Q 37.640625 5.609375 36.375 4.5 
Q 29.78125 -1.421875 20.265625 -1.421875 
z
M 38.484375 20.703125 
L 38.484375 26.375 
L 38.484375 26.375 
Q 36.03125 25.203125 33.0625 24.75 
L 25 23.578125 
Q 18.65625 22.703125 15.71875 20.625 
Q 12.796875 18.5625 12.796875 14.984375 
Q 12.796875 10.59375 15.1875 8.21875 
Q 17.578125 5.859375 21.96875 5.859375 
Q 28.90625 5.859375 33.6875 9.625 
Q 36.96875 12.25 38.03125 15.578125 
Q 38.234375 16.21875 38.328125 17.578125 
Q 38.484375 19 38.484375 20.703125 
z
" id="Helvetica-61"/>
      <path d="M 48.875 52.25 
L 29 -1.703125 
Q 24.421875 -13.765625 20.828125 -17.46875 
Q 17.234375 -21.1875 10.0625 -21.1875 
Q 7.71875 -21.234375 5.8125 -20.65625 
L 5.8125 -12.5 
Q 7.8125 -13.234375 10.84375 -13.28125 
Q 13.8125 -13.28125 15.8125 -10.84375 
Q 17.828125 -8.40625 20.359375 -1.703125 
L 20.515625 -0.875 
L 20.515625 -0.875 
L 1.125 52.25 
L 1.125 52.25 
L 6.109375 52.25 
L 11.140625 52.25 
L 11.140625 52.25 
L 25.09375 9.03125 
L 25.09375 9.03125 
L 25.09375 9.03125 
L 39.265625 52.25 
L 39.265625 52.25 
L 44.046875 52.25 
L 48.875 52.25 
z
" id="Helvetica-79"/>
      <path d="M 36.421875 37.109375 
L 36.421875 37.109375 
Q 36.03125 41.453125 32.875 43.84375 
Q 29.734375 46.234375 24.421875 46.234375 
Q 18.953125 46.234375 16.09375 44.328125 
Q 13.234375 42.4375 13.234375 38.765625 
Q 13.234375 35.984375 15.234375 34.578125 
Q 17.234375 33.15625 23.1875 31.734375 
L 32.28125 29.59375 
Q 39.890625 27.734375 43.171875 24.46875 
Q 46.390625 21.234375 46.390625 15.4375 
Q 46.390625 7.671875 40.796875 3.125 
Q 35.203125 -1.421875 25.6875 -1.421875 
Q 14.65625 -1.421875 9.234375 2.953125 
Q 3.8125 7.328125 3.21875 16.703125 
L 3.21875 16.703125 
L 11.671875 16.703125 
L 11.671875 16.703125 
Q 12.3125 11.140625 15.59375 8.640625 
Q 18.890625 6.15625 25.6875 6.15625 
Q 31.59375 6.15625 34.640625 8.390625 
Q 37.703125 10.640625 37.703125 14.9375 
Q 37.703125 17.671875 35.6875 19.09375 
Q 33.6875 20.515625 27.640625 21.921875 
L 18.5625 24.078125 
Q 11.1875 25.828125 8.0625 29 
Q 4.9375 32.125 4.9375 37.796875 
Q 4.9375 45.171875 10.1875 49.484375 
Q 15.4375 53.8125 24.421875 53.8125 
Q 33.546875 53.8125 38.9375 49.359375 
Q 44.34375 44.921875 44.671875 37.109375 
L 44.671875 37.109375 
z
" id="Helvetica-73"/>
     </defs>
     <g style="fill:#262626;" transform="translate(276.97375 412.130313)scale(0.16 -0.16)">
      <use xlink:href="#Helvetica-44"/>
      <use x="72.216797" xlink:href="#Helvetica-61"/>
      <use x="127.832031" xlink:href="#Helvetica-79"/>
      <use x="177.832031" xlink:href="#Helvetica-73"/>
     </g>
    </g>
   </g>
   <g id="matplotlib.axis_2">
    <g id="ytick_1">
     <g id="line2d_8">
      <defs>
       <path d="M 0 0 
L -6 0 
" id="m33c9a59584" style="stroke:#262626;stroke-width:0.8;"/>
      </defs>
      <g>
       <use style="fill:#262626;stroke:#262626;stroke-width:0.8;" x="72" xlink:href="#m33c9a59584" y="363.174545"/>
      </g>
     </g>
     <g id="text_9">
      <!-- 20 -->
      <defs>
       <path d="M 50.734375 49.609375 
Q 50.734375 41.84375 46.75 36.84375 
Q 42.78125 31.84375 31.78125 25.78125 
Q 19.875 19.234375 15.53125 13.8125 
Q 13.71875 11.46875 12.546875 8.546875 
L 12.546875 8.546875 
L 50.734375 8.546875 
L 50.734375 0 
L 2.59375 0 
L 2.59375 0 
Q 2.59375 11.078125 8.109375 18.140625 
Q 13.625 25.203125 28.8125 33.546875 
Q 36.1875 37.640625 38.859375 41.0625 
Q 41.546875 44.484375 41.546875 49.859375 
Q 41.546875 55.46875 37.546875 59.03125 
Q 33.546875 62.59375 27.296875 62.59375 
Q 20.75 62.59375 17.015625 58.125 
Q 13.28125 53.65625 13.03125 45.453125 
L 13.03125 45.453125 
L 4.5 45.453125 
L 4.5 45.453125 
Q 4.296875 57.078125 10.6875 63.6875 
Q 17.09375 70.3125 28.515625 70.3125 
Q 38.28125 70.3125 44.53125 64.5 
Q 50.734375 58.734375 50.734375 49.609375 
z
" id="Helvetica-32"/>
       <path d="M 27.78125 -1.90625 
Q 16.265625 -1.90625 9.984375 7.46875 
Q 3.71875 16.84375 3.71875 34.1875 
Q 3.71875 51.515625 9.984375 60.90625 
Q 16.265625 70.3125 27.78125 70.3125 
Q 39.40625 70.3125 45.65625 60.90625 
Q 51.90625 51.515625 51.90625 34.1875 
Q 51.90625 16.84375 45.65625 7.46875 
Q 39.40625 -1.90625 27.78125 -1.90625 
z
M 27.78125 6 
Q 35.203125 6 38.90625 13.03125 
Q 42.625 20.0625 42.578125 34.1875 
Q 42.625 48.296875 38.90625 55.34375 
Q 35.203125 62.40625 27.78125 62.40625 
Q 20.40625 62.40625 16.75 55.34375 
Q 13.09375 48.296875 13.03125 34.1875 
Q 13.09375 20.0625 16.75 13.03125 
Q 20.40625 6 27.78125 6 
z
" id="Helvetica-30"/>
      </defs>
      <g style="fill:#262626;" transform="translate(44.705 368.917045)scale(0.16 -0.16)">
       <use xlink:href="#Helvetica-32"/>
       <use x="55.615234" xlink:href="#Helvetica-30"/>
      </g>
     </g>
    </g>
    <g id="ytick_2">
     <g id="line2d_9">
      <g>
       <use style="fill:#262626;stroke:#262626;stroke-width:0.8;" x="72" xlink:href="#m33c9a59584" y="303.872727"/>
      </g>
     </g>
     <g id="text_10">
      <!-- 40 -->
      <defs>
       <path d="M 33.5 16.84375 
L 2.484375 16.84375 
L 2.484375 20.953125 
L 2.484375 25.046875 
L 35.015625 70.265625 
L 38.671875 70.265625 
L 42.328125 70.265625 
L 42.328125 24.359375 
L 42.328125 24.359375 
L 52.296875 24.359375 
L 52.296875 16.84375 
L 42.328125 16.84375 
L 42.328125 16.84375 
L 42.328125 0 
L 33.5 0 
L 33.5 16.84375 
z
M 33.5 24.359375 
L 33.5 24.359375 
L 33.5 56.453125 
L 33.5 56.453125 
L 33.5 56.453125 
L 11.078125 25.046875 
L 10.59375 24.359375 
L 10.59375 24.359375 
z
" id="Helvetica-34"/>
      </defs>
      <g style="fill:#262626;" transform="translate(44.705 309.615227)scale(0.16 -0.16)">
       <use xlink:href="#Helvetica-34"/>
       <use x="55.615234" xlink:href="#Helvetica-30"/>
      </g>
     </g>
    </g>
    <g id="ytick_3">
     <g id="line2d_10">
      <g>
       <use style="fill:#262626;stroke:#262626;stroke-width:0.8;" x="72" xlink:href="#m33c9a59584" y="244.570909"/>
      </g>
     </g>
     <g id="text_11">
      <!-- 60 -->
      <defs>
       <path d="M 29.734375 70.3125 
Q 39.015625 70.3125 44.5 65.296875 
Q 50 60.296875 50.390625 51.515625 
L 50.390625 51.515625 
L 41.703125 51.515625 
L 41.703125 51.515625 
Q 41.21875 56.734375 38.09375 59.5625 
Q 34.96875 62.40625 29.734375 62.40625 
Q 21.578125 62.40625 17.1875 54.59375 
Q 13.375 47.90625 12.984375 36.375 
L 12.984375 36.375 
Q 19.53125 44.734375 29.6875 44.734375 
Q 39.65625 44.734375 45.734375 38.3125 
Q 51.8125 31.890625 51.8125 21.390625 
Q 51.8125 10.890625 45.1875 4.484375 
Q 38.578125 -1.90625 27.78125 -1.90625 
Q 16.265625 -1.90625 10.03125 7 
Q 3.8125 15.921875 3.8125 32.375 
Q 3.8125 50.59375 10.59375 60.453125 
Q 17.328125 70.3125 29.734375 70.3125 
z
M 14.0625 21.390625 
Q 14.0625 14.59375 18.03125 10.296875 
Q 22.015625 6 28.265625 6 
Q 34.515625 6 38.5 10.296875 
Q 42.484375 14.59375 42.484375 21.390625 
Q 42.484375 28.171875 38.5 32.484375 
Q 34.515625 36.8125 28.265625 36.8125 
Q 22.015625 36.8125 18.015625 32.46875 
Q 14.0625 28.171875 14.0625 21.390625 
z
" id="Helvetica-36"/>
      </defs>
      <g style="fill:#262626;" transform="translate(44.705 250.313409)scale(0.16 -0.16)">
       <use xlink:href="#Helvetica-36"/>
       <use x="55.615234" xlink:href="#Helvetica-30"/>
      </g>
     </g>
    </g>
    <g id="ytick_4">
     <g id="line2d_11">
      <g>
       <use style="fill:#262626;stroke:#262626;stroke-width:0.8;" x="72" xlink:href="#m33c9a59584" y="185.269091"/>
      </g>
     </g>
     <g id="text_12">
      <!-- 80 -->
      <defs>
       <path d="M 39.9375 37.203125 
L 39.9375 37.203125 
Q 42.78125 35.9375 45.125 34.03125 
Q 51.703125 28.71875 51.703125 19.96875 
Q 51.703125 10.109375 45.109375 4.09375 
Q 38.53125 -1.90625 27.734375 -1.90625 
Q 16.9375 -1.90625 10.375 4.09375 
Q 3.8125 10.109375 3.8125 19.96875 
Q 3.8125 28.71875 10.40625 34.078125 
Q 12.703125 35.9375 15.484375 37.15625 
L 15.484375 37.15625 
Q 13.71875 38.140625 12.109375 39.3125 
Q 6.203125 43.890625 6.203125 51.421875 
Q 6.203125 59.90625 12.125 65.109375 
Q 18.0625 70.3125 27.734375 70.3125 
Q 37.40625 70.3125 43.328125 65.109375 
Q 49.265625 59.90625 49.265625 51.421875 
Q 49.265625 43.890625 43.3125 39.3125 
Q 41.75 38.09375 39.9375 37.203125 
z
M 27.734375 40.875 
Q 33.109375 40.875 36.515625 43.875 
Q 39.9375 46.875 39.9375 51.609375 
Q 39.9375 56.34375 36.515625 59.375 
Q 33.109375 62.40625 27.734375 62.40625 
Q 22.359375 62.40625 18.9375 59.375 
Q 15.53125 56.34375 15.53125 51.609375 
Q 15.53125 46.875 18.953125 43.84375 
Q 22.359375 40.875 27.734375 40.875 
z
M 27.734375 33.25 
Q 21.296875 33.25 17.21875 29.421875 
Q 13.140625 25.59375 13.140625 19.578125 
Q 13.140625 13.625 17.21875 9.8125 
Q 21.296875 6 27.734375 6 
Q 34.1875 6 38.28125 9.8125 
Q 42.390625 13.625 42.390625 19.578125 
Q 42.390625 25.59375 38.28125 29.4375 
Q 34.1875 33.25 27.734375 33.25 
z
" id="Helvetica-38"/>
      </defs>
      <g style="fill:#262626;" transform="translate(44.705 191.011591)scale(0.16 -0.16)">
       <use xlink:href="#Helvetica-38"/>
       <use x="55.615234" xlink:href="#Helvetica-30"/>
      </g>
     </g>
    </g>
    <g id="ytick_5">
     <g id="line2d_12">
      <g>
       <use style="fill:#262626;stroke:#262626;stroke-width:0.8;" x="72" xlink:href="#m33c9a59584" y="125.967273"/>
      </g>
     </g>
     <g id="text_13">
      <!-- 100 -->
      <defs>
       <path d="M 26.5625 0 
L 26.5625 49.90625 
L 26.5625 49.90625 
L 10.109375 49.90625 
L 10.109375 56.9375 
Q 17.390625 56.78125 21.921875 60.0625 
Q 26.515625 63.375 28.71875 70.3125 
L 35.890625 70.3125 
L 35.890625 70.3125 
L 35.890625 0 
L 35.890625 0 
L 31.25 0 
L 26.5625 0 
z
" id="Helvetica-31"/>
      </defs>
      <g style="fill:#262626;" transform="translate(35.8075 131.709773)scale(0.16 -0.16)">
       <use xlink:href="#Helvetica-31"/>
       <use x="55.615234" xlink:href="#Helvetica-30"/>
       <use x="111.230469" xlink:href="#Helvetica-30"/>
      </g>
     </g>
    </g>
    <g id="ytick_6">
     <g id="line2d_13">
      <g>
       <use style="fill:#262626;stroke:#262626;stroke-width:0.8;" x="72" xlink:href="#m33c9a59584" y="66.665455"/>
      </g>
     </g>
    </g>
    <g id="text_14">
     <!-- Probability Alive -->
     <defs>
      <path d="M 8.59375 0 
L 8.59375 71.78125 
L 8.59375 71.78125 
L 13.421875 71.78125 
L 13.421875 71.78125 
L 39.984375 71.78125 
Q 50.4375 71.78125 56.3125 66.53125 
Q 62.203125 61.28125 62.203125 52 
Q 62.203125 41.796875 56.3125 36.03125 
Q 50.4375 30.28125 39.984375 30.28125 
Q 26.265625 30.328125 18.3125 30.171875 
L 18.3125 30.171875 
L 18.3125 0 
L 18.3125 0 
L 13.484375 0 
L 8.59375 0 
z
M 18.3125 38.578125 
L 18.3125 38.578125 
L 37.59375 38.578125 
Q 45.171875 38.578125 48.6875 41.765625 
Q 52.203125 44.96875 52.203125 51.8125 
Q 52.203125 57.859375 48.6875 60.671875 
Q 45.171875 63.484375 37.59375 63.484375 
L 18.3125 63.484375 
L 18.3125 63.484375 
z
" id="Helvetica-50"/>
      <path d="M 7.71875 0 
L 7.71875 52.25 
L 7.71875 52.25 
L 11.859375 52.25 
L 16.0625 52.25 
L 16.0625 52.25 
L 16.0625 43.3125 
L 16.0625 43.3125 
L 16.0625 43.3125 
Q 17.1875 45.40625 18.453125 47.125 
Q 23.4375 53.8125 30.71875 53.8125 
Q 31.9375 53.8125 33.203125 53.375 
L 33.203125 44.390625 
L 31.390625 44.4375 
Q 24.265625 44.4375 20.375 40.15625 
Q 16.5 35.890625 16.5 27.984375 
L 16.5 27.984375 
L 16.5 0 
L 16.5 0 
L 12.109375 0 
L 7.71875 0 
z
" id="Helvetica-72"/>
      <path d="M 27.78125 -1.421875 
Q 16.9375 -1.421875 10.21875 6.1875 
Q 3.515625 13.8125 3.515625 26.171875 
Q 3.515625 38.578125 10.21875 46.1875 
Q 16.9375 53.8125 27.78125 53.8125 
Q 38.71875 53.8125 45.40625 46.1875 
Q 52.09375 38.578125 52.09375 26.171875 
Q 52.09375 13.8125 45.40625 6.1875 
Q 38.71875 -1.421875 27.78125 -1.421875 
z
M 27.78125 6.15625 
Q 34.71875 6.15625 38.8125 11.578125 
Q 42.921875 17 42.921875 26.171875 
Q 42.921875 35.359375 38.8125 40.796875 
Q 34.71875 46.234375 27.78125 46.234375 
Q 20.84375 46.234375 16.765625 40.796875 
Q 12.703125 35.359375 12.703125 26.171875 
Q 12.703125 17 16.765625 11.578125 
Q 20.84375 6.15625 27.78125 6.15625 
z
" id="Helvetica-6f"/>
      <path d="M 5.8125 71.78125 
L 5.8125 71.78125 
L 10.203125 71.78125 
L 14.59375 71.78125 
L 14.59375 71.78125 
L 14.59375 45.453125 
L 14.59375 45.453125 
Q 20.359375 53.90625 29.5 53.8125 
Q 39.75 53.8125 45.71875 46.75 
Q 51.703125 39.703125 51.703125 27.6875 
Q 51.703125 14.0625 45.671875 6.3125 
Q 39.65625 -1.421875 28.953125 -1.421875 
Q 20.125 -1.421875 14.890625 5.375 
L 14.0625 6.453125 
L 14.0625 6.453125 
L 14.0625 0 
L 14.0625 0 
L 5.8125 0 
L 5.8125 0 
z
M 28.515625 6.203125 
Q 35.40625 6.203125 38.96875 11.40625 
Q 42.53125 16.609375 42.53125 26.5625 
Q 42.53125 36.375 39.109375 41.078125 
Q 35.6875 45.796875 28.5625 45.796875 
Q 21.296875 45.796875 17.9375 40.46875 
Q 14.59375 35.15625 14.59375 23.640625 
L 14.59375 23.640625 
L 14.59375 23.640625 
L 14.59375 23.640625 
Q 14.59375 15.28125 18.21875 10.75 
Q 21.828125 6.203125 28.515625 6.203125 
z
" id="Helvetica-62"/>
      <path d="M 6.78125 0 
L 6.78125 52.25 
L 6.78125 52.25 
L 11.1875 52.25 
L 15.578125 52.25 
L 15.578125 52.25 
L 15.578125 0 
L 15.578125 0 
L 11.1875 0 
L 6.78125 0 
z
M 6.6875 71.78125 
L 15.671875 71.78125 
L 15.671875 61.8125 
L 6.6875 61.8125 
z
" id="Helvetica-69"/>
      <path d="M 6.6875 0 
L 6.6875 71.78125 
L 6.6875 71.78125 
L 11.078125 71.78125 
L 15.484375 71.78125 
L 15.484375 71.78125 
L 15.484375 0 
L 15.484375 0 
L 11.078125 0 
L 6.6875 0 
z
" id="Helvetica-6c"/>
      <path d="M 25.6875 0.046875 
Q 21.1875 -0.640625 19.140625 -0.640625 
Q 13.375 -0.640625 11 1.890625 
Q 8.640625 4.4375 8.640625 10.640625 
L 8.640625 45.0625 
L 8.640625 45.0625 
L 1.421875 45.0625 
L 1.421875 52.25 
L 8.640625 52.25 
L 8.640625 52.25 
L 8.640625 66.890625 
L 17.4375 66.890625 
L 17.4375 52.25 
L 17.4375 52.25 
L 25.6875 52.25 
L 25.6875 45.0625 
L 17.4375 45.0625 
L 17.4375 45.0625 
L 17.4375 10.640625 
Q 17.4375 8.890625 18.828125 7.859375 
Q 20.21875 6.84375 22.5625 6.84375 
L 25.6875 6.84375 
z
" id="Helvetica-74"/>
      <path id="Helvetica-20"/>
      <path d="M 1.421875 0 
L 28.515625 71.78125 
L 34.03125 71.78125 
L 39.59375 71.78125 
L 65.375 0 
L 65.375 0 
L 60.15625 0 
L 54.9375 0 
L 54.9375 0 
L 47.65625 20.796875 
L 47.65625 20.796875 
L 18.953125 20.796875 
L 18.953125 20.796875 
L 11.421875 0 
L 11.421875 0 
L 6.453125 0 
L 1.421875 0 
z
M 33.59375 61.234375 
L 22.078125 29.390625 
L 22.078125 29.390625 
L 44.671875 29.390625 
L 44.671875 29.390625 
L 33.59375 61.234375 
L 33.59375 61.234375 
z
" id="Helvetica-41"/>
      <path d="M 0.78125 52.25 
L 0.78125 52.25 
L 5.90625 52.25 
L 11.03125 52.25 
L 11.03125 52.25 
L 25.046875 9.46875 
L 25.046875 9.46875 
L 25.046875 9.46875 
L 39.5 52.25 
L 39.5 52.25 
L 44.34375 52.25 
L 49.21875 52.25 
L 49.21875 52.25 
L 29.734375 0 
L 25.046875 0 
L 20.3125 0 
z
" id="Helvetica-76"/>
      <path d="M 27.78125 -1.421875 
Q 16.703125 -1.421875 10.34375 5.609375 
Q 4 12.640625 4 25.046875 
Q 4 38.234375 10.71875 46.015625 
Q 17.4375 53.8125 28.765625 53.8125 
Q 39.015625 53.8125 45.3125 46.1875 
Q 51.609375 38.578125 51.609375 26.171875 
L 51.515625 23.046875 
L 51.515625 23.046875 
L 13.328125 23.046875 
L 13.328125 23.046875 
Q 13.875 15.234375 16.890625 11.140625 
Q 20.609375 6.15625 28.609375 6.15625 
Q 33.640625 6.15625 37.390625 8.984375 
Q 41.15625 11.8125 42 16.21875 
L 42 16.21875 
L 50.6875 16.21875 
L 50.6875 16.21875 
Q 48.734375 7.625 42.875 3.09375 
Q 37.015625 -1.421875 27.78125 -1.421875 
z
M 42.4375 30.125 
L 42.4375 30.125 
Q 42.046875 37.40625 38.8125 41.453125 
Q 35.25 45.953125 28.375 45.953125 
Q 21.4375 45.953125 17.28125 40.765625 
Q 14.015625 36.71875 13.328125 30.125 
L 13.328125 30.125 
z
" id="Helvetica-65"/>
     </defs>
     <g style="fill:#262626;" transform="translate(28.41 271.8325)rotate(-90)scale(0.16 -0.16)">
      <use xlink:href="#Helvetica-50"/>
      <use x="66.699219" xlink:href="#Helvetica-72"/>
      <use x="100" xlink:href="#Helvetica-6f"/>
      <use x="155.615234" xlink:href="#Helvetica-62"/>
      <use x="211.230469" xlink:href="#Helvetica-61"/>
      <use x="266.845703" xlink:href="#Helvetica-62"/>
      <use x="322.460938" xlink:href="#Helvetica-69"/>
      <use x="344.677734" xlink:href="#Helvetica-6c"/>
      <use x="366.894531" xlink:href="#Helvetica-69"/>
      <use x="389.111328" xlink:href="#Helvetica-74"/>
      <use x="416.894531" xlink:href="#Helvetica-79"/>
      <use x="466.894531" xlink:href="#Helvetica-20"/>
      <use x="494.677734" xlink:href="#Helvetica-41"/>
      <use x="561.376953" xlink:href="#Helvetica-6c"/>
      <use x="583.59375" xlink:href="#Helvetica-69"/>
      <use x="605.810547" xlink:href="#Helvetica-76"/>
      <use x="655.810547" xlink:href="#Helvetica-65"/>
     </g>
    </g>
   </g>
   <g id="line2d_14">
    <path clip-path="url(#p5bcf3bf5e3)" d="M 92.290909 66.665455 
L 141.480992 66.665455 
L 141.480992 363.174545 
" style="fill:none;opacity:0.8;stroke:#1f77b4;stroke-linecap:round;stroke-width:1.5;"/>
   </g>
   <g id="line2d_15">
    <defs>
     <path d="M -6 0 
L 6 0 
M 0 6 
L 0 -6 
" id="mdc24a8a673" style="stroke:#ff7f0e;"/>
    </defs>
    <g clip-path="url(#p5bcf3bf5e3)">
     <use style="fill:#ff7f0e;stroke:#ff7f0e;" x="498.109091" xlink:href="#mdc24a8a673" y="66.665455"/>
    </g>
   </g>
   <g id="line2d_16">
    <path clip-path="url(#p5bcf3bf5e3)" d="M 92.290909 66.665455 
L 498.109091 66.665455 
L 498.109091 66.665455 
" style="fill:none;opacity:0.8;stroke:#ff7f0e;stroke-linecap:round;stroke-width:1.5;"/>
   </g>
   <g id="line2d_17">
    <defs>
     <path d="M -6 0 
L 6 0 
M 0 6 
L 0 -6 
" id="m271588555d" style="stroke:#2ca02c;"/>
    </defs>
    <g clip-path="url(#p5bcf3bf5e3)">
     <use style="fill:#2ca02c;stroke:#2ca02c;" x="498.109091" xlink:href="#m271588555d" y="125.967273"/>
    </g>
   </g>
   <g id="line2d_18">
    <path clip-path="url(#p5bcf3bf5e3)" d="M 92.290909 66.665455 
L 252.158678 66.665455 
L 252.158678 125.967273 
L 498.109091 125.967273 
L 498.109091 125.967273 
" style="fill:none;opacity:0.8;stroke:#2ca02c;stroke-linecap:round;stroke-width:1.5;"/>
   </g>
   <g id="line2d_19">
    <path clip-path="url(#p5bcf3bf5e3)" d="M 116.88595 378 
L 116.88595 51.84 
" style="fill:none;opacity:0.8;stroke:#ff0000;stroke-dasharray:5.55,2.4;stroke-dashoffset:0;stroke-width:1.5;"/>
   </g>
   <g id="patch_3">
    <path d="M 72 378 
L 72 51.84 
" style="fill:none;stroke:#262626;stroke-linecap:square;stroke-linejoin:miter;stroke-width:1.25;"/>
   </g>
   <g id="patch_4">
    <path d="M 518.4 378 
L 518.4 51.84 
" style="fill:none;stroke:#262626;stroke-linecap:square;stroke-linejoin:miter;stroke-width:1.25;"/>
   </g>
   <g id="patch_5">
    <path d="M 72 378 
L 518.4 378 
" style="fill:none;stroke:#262626;stroke-linecap:square;stroke-linejoin:miter;stroke-width:1.25;"/>
   </g>
   <g id="patch_6">
    <path d="M 72 51.84 
L 518.4 51.84 
" style="fill:none;stroke:#262626;stroke-linecap:square;stroke-linejoin:miter;stroke-width:1.25;"/>
   </g>
   <g id="text_15">
    <!-- T. congolense -->
    <defs>
     <path d="M 25.6875 0 
L 25.6875 63.1875 
L 25.6875 63.1875 
L 1.421875 63.1875 
L 1.421875 63.1875 
L 1.421875 67.484375 
L 1.421875 71.78125 
L 1.421875 71.78125 
L 59.671875 71.78125 
L 59.671875 71.78125 
L 59.671875 67.484375 
L 59.671875 63.1875 
L 59.671875 63.1875 
L 35.40625 63.1875 
L 35.40625 63.1875 
L 35.40625 0 
L 35.40625 0 
L 30.5625 0 
L 25.6875 0 
z
" id="Helvetica-54"/>
     <path d="M 8.6875 10.59375 
L 19.140625 10.59375 
L 19.140625 0 
L 8.6875 0 
z
" id="Helvetica-2e"/>
     <path d="M 47.703125 18.796875 
L 47.703125 18.796875 
Q 46.34375 8.9375 40.71875 3.75 
Q 35.109375 -1.421875 25.78125 -1.421875 
Q 15.375 -1.421875 9.171875 6.046875 
Q 2.984375 13.53125 2.984375 26.171875 
Q 2.984375 38.8125 9.40625 46.3125 
Q 15.828125 53.8125 26.65625 53.8125 
Q 36.078125 53.8125 41.6875 48.65625 
Q 47.3125 43.5 47.703125 34.46875 
L 47.703125 34.46875 
L 39.265625 34.46875 
L 39.265625 34.46875 
Q 38.71875 40.09375 35.34375 43.15625 
Q 31.984375 46.234375 26.375 46.234375 
Q 19.734375 46.234375 15.9375 40.890625 
Q 12.15625 35.546875 12.15625 26.171875 
Q 12.15625 16.21875 15.671875 11.1875 
Q 19.1875 6.15625 26.125 6.15625 
Q 31.25 6.15625 34.6875 9.453125 
Q 38.140625 12.75 39.265625 18.796875 
L 39.265625 18.796875 
z
" id="Helvetica-63"/>
     <path d="M 6.5 0 
L 6.5 52.25 
L 6.5 52.25 
L 10.640625 52.25 
L 14.84375 52.25 
L 14.84375 52.25 
L 14.84375 44.53125 
L 14.84375 44.53125 
L 14.84375 44.53125 
L 16.796875 47.125 
Q 22.515625 53.8125 31.109375 53.8125 
Q 39.75 53.8125 44.4375 49.125 
Q 49.125 44.4375 49.125 35.796875 
L 49.125 0 
L 49.125 0 
L 44.734375 0 
L 40.328125 0 
L 40.328125 0 
L 40.328125 32.8125 
Q 40.328125 39.703125 37.671875 42.75 
Q 35.015625 45.796875 29.046875 45.796875 
Q 22.703125 45.796875 18.984375 40.984375 
Q 15.28125 36.1875 15.28125 27.984375 
L 15.28125 27.984375 
L 15.28125 0 
L 15.28125 0 
L 10.890625 0 
L 6.5 0 
z
" id="Helvetica-6e"/>
     <path d="M 25.640625 -14.796875 
Q 33.203125 -14.796875 37.15625 -10.03125 
Q 41.109375 -5.28125 41.109375 3.859375 
L 41.109375 5.5625 
L 41.0625 5.515625 
Q 35.640625 -1.421875 26.90625 -1.421875 
Q 16.40625 -1.421875 10.203125 6.421875 
Q 4 14.265625 4 27.59375 
Q 4 39.359375 10.109375 46.578125 
Q 16.21875 53.8125 26.078125 53.8125 
Q 35.5 53.8125 41.015625 45.65625 
L 41.65625 44.734375 
L 41.65625 44.734375 
L 41.65625 52.25 
L 41.65625 52.25 
L 49.90625 52.25 
L 49.90625 3.859375 
Q 49.859375 -9.375 43.9375 -15.71875 
Q 38.03125 -22.078125 25.78125 -22.078125 
Q 16.890625 -22.078125 11.671875 -17.96875 
Q 6.453125 -13.875 5.375 -6.0625 
L 5.375 -6.0625 
L 14.359375 -6.0625 
L 14.359375 -6.0625 
Q 15.140625 -10.25 18.09375 -12.515625 
Q 21.046875 -14.796875 25.640625 -14.796875 
z
M 27.34375 45.796875 
Q 19.96875 45.796875 16.578125 41.109375 
Q 13.1875 36.421875 13.1875 26.21875 
Q 13.1875 16.609375 16.875 11.40625 
Q 20.5625 6.203125 27.34375 6.203125 
Q 33.734375 6.203125 37.640625 10.984375 
Q 41.546875 15.765625 41.546875 23.640625 
Q 41.546875 34.71875 38 40.25 
Q 34.46875 45.796875 27.34375 45.796875 
z
" id="Helvetica-67"/>
    </defs>
    <g style="fill:#262626;" transform="translate(244.95 45.84)scale(0.16 -0.16)">
     <use xlink:href="#Helvetica-54"/>
     <use x="61.083984" xlink:href="#Helvetica-2e"/>
     <use x="88.867188" xlink:href="#Helvetica-20"/>
     <use x="116.650391" xlink:href="#Helvetica-63"/>
     <use x="166.650391" xlink:href="#Helvetica-6f"/>
     <use x="222.265625" xlink:href="#Helvetica-6e"/>
     <use x="277.880859" xlink:href="#Helvetica-67"/>
     <use x="333.496094" xlink:href="#Helvetica-6f"/>
     <use x="389.111328" xlink:href="#Helvetica-6c"/>
     <use x="411.328125" xlink:href="#Helvetica-65"/>
     <use x="466.943359" xlink:href="#Helvetica-6e"/>
     <use x="522.558594" xlink:href="#Helvetica-73"/>
     <use x="572.558594" xlink:href="#Helvetica-65"/>
    </g>
   </g>
   <g id="legend_1">
    <g id="line2d_20">
     <path d="M 527.4 192.606719 
L 547.4 192.606719 
" style="fill:none;opacity:0.8;stroke:#1f77b4;stroke-linecap:round;stroke-width:1.5;"/>
    </g>
    <g id="line2d_21"/>
    <g id="text_16">
     <!-- Control -->
     <defs>
      <path d="M 58.796875 25.09375 
L 68.265625 22.703125 
Q 65.28125 11.03125 57.546875 4.90625 
Q 49.8125 -1.21875 38.625 -1.21875 
Q 27.046875 -1.21875 19.796875 3.484375 
Q 12.546875 8.203125 8.765625 17.140625 
Q 4.984375 26.078125 4.984375 36.328125 
Q 4.984375 47.515625 9.25 55.828125 
Q 13.53125 64.15625 21.40625 68.46875 
Q 29.296875 72.796875 38.765625 72.796875 
Q 49.515625 72.796875 56.828125 67.328125 
Q 64.15625 61.859375 67.046875 51.953125 
L 57.71875 49.75 
Q 55.21875 57.5625 50.484375 61.125 
Q 45.75 64.703125 38.578125 64.703125 
Q 30.328125 64.703125 24.78125 60.734375 
Q 19.234375 56.78125 16.984375 50.109375 
Q 14.75 43.453125 14.75 36.375 
Q 14.75 27.25 17.40625 20.4375 
Q 20.0625 13.625 25.671875 10.25 
Q 31.296875 6.890625 37.84375 6.890625 
Q 45.796875 6.890625 51.3125 11.46875 
Q 56.84375 16.0625 58.796875 25.09375 
z
" id="ArialMT-43"/>
      <path d="M 3.328125 25.921875 
Q 3.328125 40.328125 11.328125 47.265625 
Q 18.015625 53.03125 27.640625 53.03125 
Q 38.328125 53.03125 45.109375 46.015625 
Q 51.90625 39.015625 51.90625 26.65625 
Q 51.90625 16.65625 48.90625 10.90625 
Q 45.90625 5.171875 40.15625 2 
Q 34.421875 -1.171875 27.640625 -1.171875 
Q 16.75 -1.171875 10.03125 5.8125 
Q 3.328125 12.796875 3.328125 25.921875 
z
M 12.359375 25.921875 
Q 12.359375 15.96875 16.703125 11.015625 
Q 21.046875 6.0625 27.640625 6.0625 
Q 34.1875 6.0625 38.53125 11.03125 
Q 42.875 16.015625 42.875 26.21875 
Q 42.875 35.84375 38.5 40.796875 
Q 34.125 45.75 27.640625 45.75 
Q 21.046875 45.75 16.703125 40.8125 
Q 12.359375 35.890625 12.359375 25.921875 
z
" id="ArialMT-6f"/>
      <path d="M 6.59375 0 
L 6.59375 51.859375 
L 14.5 51.859375 
L 14.5 44.484375 
Q 20.21875 53.03125 31 53.03125 
Q 35.6875 53.03125 39.625 51.34375 
Q 43.5625 49.65625 45.515625 46.921875 
Q 47.46875 44.1875 48.25 40.4375 
Q 48.734375 37.984375 48.734375 31.890625 
L 48.734375 0 
L 39.9375 0 
L 39.9375 31.546875 
Q 39.9375 36.921875 38.90625 39.578125 
Q 37.890625 42.234375 35.28125 43.8125 
Q 32.671875 45.40625 29.15625 45.40625 
Q 23.53125 45.40625 19.453125 41.84375 
Q 15.375 38.28125 15.375 28.328125 
L 15.375 0 
z
" id="ArialMT-6e"/>
      <path d="M 25.78125 7.859375 
L 27.046875 0.09375 
Q 23.34375 -0.6875 20.40625 -0.6875 
Q 15.625 -0.6875 12.984375 0.828125 
Q 10.359375 2.34375 9.28125 4.8125 
Q 8.203125 7.28125 8.203125 15.1875 
L 8.203125 45.015625 
L 1.765625 45.015625 
L 1.765625 51.859375 
L 8.203125 51.859375 
L 8.203125 64.703125 
L 16.9375 69.96875 
L 16.9375 51.859375 
L 25.78125 51.859375 
L 25.78125 45.015625 
L 16.9375 45.015625 
L 16.9375 14.703125 
Q 16.9375 10.9375 17.40625 9.859375 
Q 17.875 8.796875 18.921875 8.15625 
Q 19.96875 7.515625 21.921875 7.515625 
Q 23.390625 7.515625 25.78125 7.859375 
z
" id="ArialMT-74"/>
      <path d="M 6.5 0 
L 6.5 51.859375 
L 14.40625 51.859375 
L 14.40625 44 
Q 17.4375 49.515625 20 51.265625 
Q 22.5625 53.03125 25.640625 53.03125 
Q 30.078125 53.03125 34.671875 50.203125 
L 31.640625 42.046875 
Q 28.421875 43.953125 25.203125 43.953125 
Q 22.3125 43.953125 20.015625 42.21875 
Q 17.71875 40.484375 16.75 37.40625 
Q 15.28125 32.71875 15.28125 27.15625 
L 15.28125 0 
z
" id="ArialMT-72"/>
      <path d="M 6.390625 0 
L 6.390625 71.578125 
L 15.1875 71.578125 
L 15.1875 0 
z
" id="ArialMT-6c"/>
     </defs>
     <g style="fill:#262626;" transform="translate(555.4 196.106719)scale(0.1 -0.1)">
      <use xlink:href="#ArialMT-43"/>
      <use x="72.216797" xlink:href="#ArialMT-6f"/>
      <use x="127.832031" xlink:href="#ArialMT-6e"/>
      <use x="183.447266" xlink:href="#ArialMT-74"/>
      <use x="211.230469" xlink:href="#ArialMT-72"/>
      <use x="244.53125" xlink:href="#ArialMT-6f"/>
      <use x="300.146484" xlink:href="#ArialMT-6c"/>
     </g>
    </g>
    <g id="line2d_22">
     <path d="M 527.4 206.752031 
L 547.4 206.752031 
" style="fill:none;opacity:0.8;stroke:#ff7f0e;stroke-linecap:round;stroke-width:1.5;"/>
    </g>
    <g id="line2d_23"/>
    <g id="text_17">
     <!-- Diaminazene -->
     <defs>
      <path d="M 7.71875 0 
L 7.71875 71.578125 
L 32.375 71.578125 
Q 40.71875 71.578125 45.125 70.5625 
Q 51.265625 69.140625 55.609375 65.4375 
Q 61.28125 60.640625 64.078125 53.1875 
Q 66.890625 45.75 66.890625 36.1875 
Q 66.890625 28.03125 64.984375 21.734375 
Q 63.09375 15.4375 60.109375 11.296875 
Q 57.125 7.171875 53.578125 4.796875 
Q 50.046875 2.4375 45.046875 1.21875 
Q 40.046875 0 33.546875 0 
z
M 17.1875 8.453125 
L 32.46875 8.453125 
Q 39.546875 8.453125 43.578125 9.765625 
Q 47.609375 11.078125 50 13.484375 
Q 53.375 16.84375 55.25 22.53125 
Q 57.125 28.21875 57.125 36.328125 
Q 57.125 47.5625 53.4375 53.59375 
Q 49.75 59.625 44.484375 61.671875 
Q 40.671875 63.140625 32.234375 63.140625 
L 17.1875 63.140625 
z
" id="ArialMT-44"/>
      <path d="M 6.640625 61.46875 
L 6.640625 71.578125 
L 15.4375 71.578125 
L 15.4375 61.46875 
z
M 6.640625 0 
L 6.640625 51.859375 
L 15.4375 51.859375 
L 15.4375 0 
z
" id="ArialMT-69"/>
      <path d="M 40.4375 6.390625 
Q 35.546875 2.25 31.03125 0.53125 
Q 26.515625 -1.171875 21.34375 -1.171875 
Q 12.796875 -1.171875 8.203125 3 
Q 3.609375 7.171875 3.609375 13.671875 
Q 3.609375 17.484375 5.34375 20.625 
Q 7.078125 23.78125 9.890625 25.6875 
Q 12.703125 27.59375 16.21875 28.5625 
Q 18.796875 29.25 24.03125 29.890625 
Q 34.671875 31.15625 39.703125 32.90625 
Q 39.75 34.71875 39.75 35.203125 
Q 39.75 40.578125 37.25 42.78125 
Q 33.890625 45.75 27.25 45.75 
Q 21.046875 45.75 18.09375 43.578125 
Q 15.140625 41.40625 13.71875 35.890625 
L 5.125 37.0625 
Q 6.296875 42.578125 8.984375 45.96875 
Q 11.671875 49.359375 16.75 51.1875 
Q 21.828125 53.03125 28.515625 53.03125 
Q 35.15625 53.03125 39.296875 51.46875 
Q 43.453125 49.90625 45.40625 47.53125 
Q 47.359375 45.171875 48.140625 41.546875 
Q 48.578125 39.3125 48.578125 33.453125 
L 48.578125 21.734375 
Q 48.578125 9.46875 49.140625 6.21875 
Q 49.703125 2.984375 51.375 0 
L 42.1875 0 
Q 40.828125 2.734375 40.4375 6.390625 
z
M 39.703125 26.03125 
Q 34.90625 24.078125 25.34375 22.703125 
Q 19.921875 21.921875 17.671875 20.9375 
Q 15.4375 19.96875 14.203125 18.09375 
Q 12.984375 16.21875 12.984375 13.921875 
Q 12.984375 10.40625 15.640625 8.0625 
Q 18.3125 5.71875 23.4375 5.71875 
Q 28.515625 5.71875 32.46875 7.9375 
Q 36.421875 10.15625 38.28125 14.015625 
Q 39.703125 17 39.703125 22.796875 
z
" id="ArialMT-61"/>
      <path d="M 6.59375 0 
L 6.59375 51.859375 
L 14.453125 51.859375 
L 14.453125 44.578125 
Q 16.890625 48.390625 20.9375 50.703125 
Q 25 53.03125 30.171875 53.03125 
Q 35.9375 53.03125 39.625 50.640625 
Q 43.3125 48.25 44.828125 43.953125 
Q 50.984375 53.03125 60.84375 53.03125 
Q 68.5625 53.03125 72.703125 48.75 
Q 76.859375 44.484375 76.859375 35.59375 
L 76.859375 0 
L 68.109375 0 
L 68.109375 32.671875 
Q 68.109375 37.9375 67.25 40.25 
Q 66.40625 42.578125 64.15625 43.984375 
Q 61.921875 45.40625 58.890625 45.40625 
Q 53.421875 45.40625 49.796875 41.765625 
Q 46.1875 38.140625 46.1875 30.125 
L 46.1875 0 
L 37.40625 0 
L 37.40625 33.6875 
Q 37.40625 39.546875 35.25 42.46875 
Q 33.109375 45.40625 28.21875 45.40625 
Q 24.515625 45.40625 21.359375 43.453125 
Q 18.21875 41.5 16.796875 37.734375 
Q 15.375 33.984375 15.375 26.90625 
L 15.375 0 
z
" id="ArialMT-6d"/>
      <path d="M 1.953125 0 
L 1.953125 7.125 
L 34.96875 45.015625 
Q 29.34375 44.734375 25.046875 44.734375 
L 3.90625 44.734375 
L 3.90625 51.859375 
L 46.296875 51.859375 
L 46.296875 46.046875 
L 18.21875 13.140625 
L 12.796875 7.125 
Q 18.703125 7.5625 23.875 7.5625 
L 47.859375 7.5625 
L 47.859375 0 
z
" id="ArialMT-7a"/>
      <path d="M 42.09375 16.703125 
L 51.171875 15.578125 
Q 49.03125 7.625 43.21875 3.21875 
Q 37.40625 -1.171875 28.375 -1.171875 
Q 17 -1.171875 10.328125 5.828125 
Q 3.65625 12.84375 3.65625 25.484375 
Q 3.65625 38.578125 10.390625 45.796875 
Q 17.140625 53.03125 27.875 53.03125 
Q 38.28125 53.03125 44.875 45.953125 
Q 51.46875 38.875 51.46875 26.03125 
Q 51.46875 25.25 51.421875 23.6875 
L 12.75 23.6875 
Q 13.234375 15.140625 17.578125 10.59375 
Q 21.921875 6.0625 28.421875 6.0625 
Q 33.25 6.0625 36.671875 8.59375 
Q 40.09375 11.140625 42.09375 16.703125 
z
M 13.234375 30.90625 
L 42.1875 30.90625 
Q 41.609375 37.453125 38.875 40.71875 
Q 34.671875 45.796875 27.984375 45.796875 
Q 21.921875 45.796875 17.796875 41.75 
Q 13.671875 37.703125 13.234375 30.90625 
z
" id="ArialMT-65"/>
     </defs>
     <g style="fill:#262626;" transform="translate(555.4 210.252031)scale(0.1 -0.1)">
      <use xlink:href="#ArialMT-44"/>
      <use x="72.216797" xlink:href="#ArialMT-69"/>
      <use x="94.433594" xlink:href="#ArialMT-61"/>
      <use x="150.048828" xlink:href="#ArialMT-6d"/>
      <use x="233.349609" xlink:href="#ArialMT-69"/>
      <use x="255.566406" xlink:href="#ArialMT-6e"/>
      <use x="311.181641" xlink:href="#ArialMT-61"/>
      <use x="366.796875" xlink:href="#ArialMT-7a"/>
      <use x="416.796875" xlink:href="#ArialMT-65"/>
      <use x="472.412109" xlink:href="#ArialMT-6e"/>
      <use x="528.027344" xlink:href="#ArialMT-65"/>
     </g>
    </g>
    <g id="line2d_24">
     <path d="M 527.4 221.019219 
L 547.4 221.019219 
" style="fill:none;opacity:0.8;stroke:#2ca02c;stroke-linecap:round;stroke-width:1.5;"/>
    </g>
    <g id="line2d_25"/>
    <g id="text_18">
     <!-- Compound 25 -->
     <defs>
      <path d="M 6.59375 -19.875 
L 6.59375 51.859375 
L 14.59375 51.859375 
L 14.59375 45.125 
Q 17.4375 49.078125 21 51.046875 
Q 24.5625 53.03125 29.640625 53.03125 
Q 36.28125 53.03125 41.359375 49.609375 
Q 46.4375 46.1875 49.015625 39.953125 
Q 51.609375 33.734375 51.609375 26.3125 
Q 51.609375 18.359375 48.75 11.984375 
Q 45.90625 5.609375 40.453125 2.21875 
Q 35.015625 -1.171875 29 -1.171875 
Q 24.609375 -1.171875 21.109375 0.6875 
Q 17.625 2.546875 15.375 5.375 
L 15.375 -19.875 
z
M 14.546875 25.640625 
Q 14.546875 15.625 18.59375 10.84375 
Q 22.65625 6.0625 28.421875 6.0625 
Q 34.28125 6.0625 38.453125 11.015625 
Q 42.625 15.96875 42.625 26.375 
Q 42.625 36.28125 38.546875 41.203125 
Q 34.46875 46.140625 28.8125 46.140625 
Q 23.1875 46.140625 18.859375 40.890625 
Q 14.546875 35.640625 14.546875 25.640625 
z
" id="ArialMT-70"/>
      <path d="M 40.578125 0 
L 40.578125 7.625 
Q 34.515625 -1.171875 24.125 -1.171875 
Q 19.53125 -1.171875 15.546875 0.578125 
Q 11.578125 2.34375 9.640625 5 
Q 7.71875 7.671875 6.9375 11.53125 
Q 6.390625 14.109375 6.390625 19.734375 
L 6.390625 51.859375 
L 15.1875 51.859375 
L 15.1875 23.09375 
Q 15.1875 16.21875 15.71875 13.8125 
Q 16.546875 10.359375 19.234375 8.375 
Q 21.921875 6.390625 25.875 6.390625 
Q 29.828125 6.390625 33.296875 8.421875 
Q 36.765625 10.453125 38.203125 13.9375 
Q 39.65625 17.4375 39.65625 24.078125 
L 39.65625 51.859375 
L 48.4375 51.859375 
L 48.4375 0 
z
" id="ArialMT-75"/>
      <path d="M 40.234375 0 
L 40.234375 6.546875 
Q 35.296875 -1.171875 25.734375 -1.171875 
Q 19.53125 -1.171875 14.328125 2.25 
Q 9.125 5.671875 6.265625 11.796875 
Q 3.421875 17.921875 3.421875 25.875 
Q 3.421875 33.640625 6 39.96875 
Q 8.59375 46.296875 13.765625 49.65625 
Q 18.953125 53.03125 25.34375 53.03125 
Q 30.03125 53.03125 33.6875 51.046875 
Q 37.359375 49.078125 39.65625 45.90625 
L 39.65625 71.578125 
L 48.390625 71.578125 
L 48.390625 0 
z
M 12.453125 25.875 
Q 12.453125 15.921875 16.640625 10.984375 
Q 20.84375 6.0625 26.5625 6.0625 
Q 32.328125 6.0625 36.34375 10.765625 
Q 40.375 15.484375 40.375 25.140625 
Q 40.375 35.796875 36.265625 40.765625 
Q 32.171875 45.75 26.171875 45.75 
Q 20.3125 45.75 16.375 40.96875 
Q 12.453125 36.1875 12.453125 25.875 
z
" id="ArialMT-64"/>
      <path id="ArialMT-20"/>
     </defs>
     <g style="fill:#262626;" transform="translate(555.4 224.519219)scale(0.1 -0.1)">
      <use xlink:href="#ArialMT-43"/>
      <use x="72.216797" xlink:href="#ArialMT-6f"/>
      <use x="127.832031" xlink:href="#ArialMT-6d"/>
      <use x="211.132812" xlink:href="#ArialMT-70"/>
      <use x="266.748047" xlink:href="#ArialMT-6f"/>
      <use x="322.363281" xlink:href="#ArialMT-75"/>
      <use x="377.978516" xlink:href="#ArialMT-6e"/>
      <use x="433.59375" xlink:href="#ArialMT-64"/>
      <use x="489.208984" xlink:href="#ArialMT-20"/>
      <use x="516.992188" xlink:href="#ArialMT-32"/>
      <use x="572.607422" xlink:href="#ArialMT-35"/>
     </g>
    </g>
    <g id="line2d_26">
     <path d="M 527.4 235.286406 
L 547.4 235.286406 
" style="fill:none;opacity:0.8;stroke:#ff0000;stroke-dasharray:5.55,2.4;stroke-dashoffset:0;stroke-width:1.5;"/>
    </g>
    <g id="line2d_27"/>
    <g id="text_19">
     <!-- Day Infection -->
     <defs>
      <path d="M 6.203125 -19.96875 
L 5.21875 -11.71875 
Q 8.109375 -12.5 10.25 -12.5 
Q 13.1875 -12.5 14.9375 -11.515625 
Q 16.703125 -10.546875 17.828125 -8.796875 
Q 18.65625 -7.46875 20.515625 -2.25 
Q 20.75 -1.515625 21.296875 -0.09375 
L 1.609375 51.859375 
L 11.078125 51.859375 
L 21.875 21.828125 
Q 23.96875 16.109375 25.640625 9.8125 
Q 27.15625 15.875 29.25 21.625 
L 40.328125 51.859375 
L 49.125 51.859375 
L 29.390625 -0.875 
Q 26.21875 -9.421875 24.46875 -12.640625 
Q 22.125 -17 19.09375 -19.015625 
Q 16.0625 -21.046875 11.859375 -21.046875 
Q 9.328125 -21.046875 6.203125 -19.96875 
z
" id="ArialMT-79"/>
      <path d="M 9.328125 0 
L 9.328125 71.578125 
L 18.796875 71.578125 
L 18.796875 0 
z
" id="ArialMT-49"/>
      <path d="M 8.6875 0 
L 8.6875 45.015625 
L 0.921875 45.015625 
L 0.921875 51.859375 
L 8.6875 51.859375 
L 8.6875 57.375 
Q 8.6875 62.59375 9.625 65.140625 
Q 10.890625 68.5625 14.078125 70.671875 
Q 17.28125 72.796875 23.046875 72.796875 
Q 26.765625 72.796875 31.25 71.921875 
L 29.9375 64.265625 
Q 27.203125 64.75 24.75 64.75 
Q 20.75 64.75 19.09375 63.03125 
Q 17.4375 61.328125 17.4375 56.640625 
L 17.4375 51.859375 
L 27.546875 51.859375 
L 27.546875 45.015625 
L 17.4375 45.015625 
L 17.4375 0 
z
" id="ArialMT-66"/>
      <path d="M 40.4375 19 
L 49.078125 17.875 
Q 47.65625 8.9375 41.8125 3.875 
Q 35.984375 -1.171875 27.484375 -1.171875 
Q 16.84375 -1.171875 10.375 5.78125 
Q 3.90625 12.75 3.90625 25.734375 
Q 3.90625 34.125 6.6875 40.421875 
Q 9.46875 46.734375 15.15625 49.875 
Q 20.84375 53.03125 27.546875 53.03125 
Q 35.984375 53.03125 41.359375 48.75 
Q 46.734375 44.484375 48.25 36.625 
L 39.703125 35.296875 
Q 38.484375 40.53125 35.375 43.15625 
Q 32.28125 45.796875 27.875 45.796875 
Q 21.234375 45.796875 17.078125 41.03125 
Q 12.9375 36.28125 12.9375 25.984375 
Q 12.9375 15.53125 16.9375 10.796875 
Q 20.953125 6.0625 27.390625 6.0625 
Q 32.5625 6.0625 36.03125 9.234375 
Q 39.5 12.40625 40.4375 19 
z
" id="ArialMT-63"/>
     </defs>
     <g style="fill:#262626;" transform="translate(555.4 238.786406)scale(0.1 -0.1)">
      <use xlink:href="#ArialMT-44"/>
      <use x="72.216797" xlink:href="#ArialMT-61"/>
      <use x="127.832031" xlink:href="#ArialMT-79"/>
      <use x="177.832031" xlink:href="#ArialMT-20"/>
      <use x="205.615234" xlink:href="#ArialMT-49"/>
      <use x="233.398438" xlink:href="#ArialMT-6e"/>
      <use x="289.013672" xlink:href="#ArialMT-66"/>
      <use x="316.796875" xlink:href="#ArialMT-65"/>
      <use x="372.412109" xlink:href="#ArialMT-63"/>
      <use x="422.412109" xlink:href="#ArialMT-74"/>
      <use x="450.195312" xlink:href="#ArialMT-69"/>
      <use x="472.412109" xlink:href="#ArialMT-6f"/>
      <use x="528.027344" xlink:href="#ArialMT-6e"/>
     </g>
    </g>
   </g>
  </g>
 </g>
 <defs>
  <clipPath id="p5bcf3bf5e3">
   <rect height="326.16" width="446.4" x="72" y="51.84"/>
  </clipPath>
 </defs>
</svg>
