<?xml version="1.0" encoding="utf-8" standalone="no"?>
<!DOCTYPE svg PUBLIC "-//W3C//DTD SVG 1.1//EN"
  "http://www.w3.org/Graphics/SVG/1.1/DTD/svg11.dtd">
<!-- Created with matplotlib (http://matplotlib.org/) -->
<svg height="432pt" version="1.1" viewBox="0 0 576 432" width="576pt" xmlns="http://www.w3.org/2000/svg" xmlns:xlink="http://www.w3.org/1999/xlink">
 <defs>
  <style type="text/css">
*{stroke-linecap:butt;stroke-linejoin:round;}
  </style>
 </defs>
 <g id="figure_1">
  <g id="patch_1">
   <path d="M 0 432 
L 576 432 
L 576 0 
L 0 0 
z
" style="fill:#ffffff;"/>
  </g>
  <g id="axes_1">
   <g id="patch_2">
    <path d="M 72 378 
L 518.4 378 
L 518.4 51.84 
L 72 51.84 
z
" style="fill:#ffffff;"/>
   </g>
   <g id="matplotlib.axis_1">
    <g id="xtick_1">
     <g id="line2d_1">
      <defs>
       <path d="M 0 0 
L 0 -6 
" id="m367f637e43" style="stroke:#262626;stroke-width:0.8;"/>
      </defs>
      <g>
       <use style="fill:#262626;stroke:#262626;stroke-width:0.8;" x="83.151395" xlink:href="#m367f637e43" y="378"/>
      </g>
     </g>
    </g>
    <g id="xtick_2">
     <g id="line2d_2">
      <g>
       <use style="fill:#262626;stroke:#262626;stroke-width:0.8;" x="143.752162" xlink:href="#m367f637e43" y="378"/>
      </g>
     </g>
     <g id="text_1">
      <!-- 5 -->
      <defs>
       <path d="M 51.421875 22.609375 
Q 51.421875 11.8125 44.65625 4.953125 
Q 37.890625 -1.90625 27.296875 -1.90625 
Q 16.75 -1.90625 10.34375 3.359375 
Q 3.953125 8.640625 3.21875 17.921875 
L 3.21875 17.921875 
L 12.359375 17.921875 
L 12.359375 17.921875 
Q 13.09375 12.0625 17.09375 8.859375 
Q 21.09375 5.671875 27.6875 5.671875 
Q 34.03125 5.671875 38.0625 10.109375 
Q 42.09375 14.546875 42.09375 21.53125 
Q 42.09375 28.859375 37.890625 33.171875 
Q 33.6875 37.5 26.515625 37.5 
Q 22.65625 37.5 19.015625 35.640625 
Q 15.375 33.796875 13.53125 30.90625 
L 6.109375 31.390625 
L 11.1875 68.890625 
L 11.1875 68.890625 
L 47.609375 68.890625 
L 47.609375 60.359375 
L 17.78125 60.359375 
L 17.78125 60.359375 
L 14.75 41.109375 
L 14.75 41.109375 
L 15.046875 41.3125 
Q 20.84375 45.3125 27.296875 45.3125 
Q 38.375 45.3125 44.921875 39.15625 
Q 51.421875 33.0625 51.421875 22.609375 
z
" id="Helvetica-35"/>
      </defs>
      <g style="fill:#262626;" transform="translate(139.303412 392.985)scale(0.16 -0.16)">
       <use xlink:href="#Helvetica-35"/>
      </g>
     </g>
    </g>
    <g id="xtick_3">
     <g id="line2d_3">
      <g>
       <use style="fill:#262626;stroke:#262626;stroke-width:0.8;" x="204.352929" xlink:href="#m367f637e43" y="378"/>
      </g>
     </g>
     <g id="text_2">
      <!-- 10 -->
      <defs>
       <path d="M 26.5625 0 
L 26.5625 49.90625 
L 26.5625 49.90625 
L 10.109375 49.90625 
L 10.109375 56.9375 
Q 17.390625 56.78125 21.921875 60.0625 
Q 26.515625 63.375 28.71875 70.3125 
L 35.890625 70.3125 
L 35.890625 70.3125 
L 35.890625 0 
L 35.890625 0 
L 31.25 0 
L 26.5625 0 
z
" id="Helvetica-31"/>
       <path d="M 27.78125 -1.90625 
Q 16.265625 -1.90625 9.984375 7.46875 
Q 3.71875 16.84375 3.71875 34.1875 
Q 3.71875 51.515625 9.984375 60.90625 
Q 16.265625 70.3125 27.78125 70.3125 
Q 39.40625 70.3125 45.65625 60.90625 
Q 51.90625 51.515625 51.90625 34.1875 
Q 51.90625 16.84375 45.65625 7.46875 
Q 39.40625 -1.90625 27.78125 -1.90625 
z
M 27.78125 6 
Q 35.203125 6 38.90625 13.03125 
Q 42.625 20.0625 42.578125 34.1875 
Q 42.625 48.296875 38.90625 55.34375 
Q 35.203125 62.40625 27.78125 62.40625 
Q 20.40625 62.40625 16.75 55.34375 
Q 13.09375 48.296875 13.03125 34.1875 
Q 13.09375 20.0625 16.75 13.03125 
Q 20.40625 6 27.78125 6 
z
" id="Helvetica-30"/>
      </defs>
      <g style="fill:#262626;" transform="translate(195.455429 392.985)scale(0.16 -0.16)">
       <use xlink:href="#Helvetica-31"/>
       <use x="55.615234" xlink:href="#Helvetica-30"/>
      </g>
     </g>
    </g>
    <g id="xtick_4">
     <g id="line2d_4">
      <g>
       <use style="fill:#262626;stroke:#262626;stroke-width:0.8;" x="264.953696" xlink:href="#m367f637e43" y="378"/>
      </g>
     </g>
     <g id="text_3">
      <!-- 15 -->
      <g style="fill:#262626;" transform="translate(256.056196 392.985)scale(0.16 -0.16)">
       <use xlink:href="#Helvetica-31"/>
       <use x="55.615234" xlink:href="#Helvetica-35"/>
      </g>
     </g>
    </g>
    <g id="xtick_5">
     <g id="line2d_5">
      <g>
       <use style="fill:#262626;stroke:#262626;stroke-width:0.8;" x="325.554463" xlink:href="#m367f637e43" y="378"/>
      </g>
     </g>
     <g id="text_4">
      <!-- 20 -->
      <defs>
       <path d="M 50.734375 49.609375 
Q 50.734375 41.84375 46.75 36.84375 
Q 42.78125 31.84375 31.78125 25.78125 
Q 19.875 19.234375 15.53125 13.8125 
Q 13.71875 11.46875 12.546875 8.546875 
L 12.546875 8.546875 
L 50.734375 8.546875 
L 50.734375 0 
L 2.59375 0 
L 2.59375 0 
Q 2.59375 11.078125 8.109375 18.140625 
Q 13.625 25.203125 28.8125 33.546875 
Q 36.1875 37.640625 38.859375 41.0625 
Q 41.546875 44.484375 41.546875 49.859375 
Q 41.546875 55.46875 37.546875 59.03125 
Q 33.546875 62.59375 27.296875 62.59375 
Q 20.75 62.59375 17.015625 58.125 
Q 13.28125 53.65625 13.03125 45.453125 
L 13.03125 45.453125 
L 4.5 45.453125 
L 4.5 45.453125 
Q 4.296875 57.078125 10.6875 63.6875 
Q 17.09375 70.3125 28.515625 70.3125 
Q 38.28125 70.3125 44.53125 64.5 
Q 50.734375 58.734375 50.734375 49.609375 
z
" id="Helvetica-32"/>
      </defs>
      <g style="fill:#262626;" transform="translate(316.656963 392.985)scale(0.16 -0.16)">
       <use xlink:href="#Helvetica-32"/>
       <use x="55.615234" xlink:href="#Helvetica-30"/>
      </g>
     </g>
    </g>
    <g id="xtick_6">
     <g id="line2d_6">
      <g>
       <use style="fill:#262626;stroke:#262626;stroke-width:0.8;" x="386.15523" xlink:href="#m367f637e43" y="378"/>
      </g>
     </g>
     <g id="text_5">
      <!-- 25 -->
      <g style="fill:#262626;" transform="translate(377.25773 392.985)scale(0.16 -0.16)">
       <use xlink:href="#Helvetica-32"/>
       <use x="55.615234" xlink:href="#Helvetica-35"/>
      </g>
     </g>
    </g>
    <g id="xtick_7">
     <g id="line2d_7">
      <g>
       <use style="fill:#262626;stroke:#262626;stroke-width:0.8;" x="446.755997" xlink:href="#m367f637e43" y="378"/>
      </g>
     </g>
     <g id="text_6">
      <!-- 30 -->
      <defs>
       <path d="M 40.625 51.21875 
Q 40.625 56.203125 36.84375 59.34375 
Q 33.0625 62.5 27.15625 62.5 
Q 20.90625 62.5 17.578125 58.65625 
Q 14.265625 54.828125 13.921875 47.21875 
L 13.921875 47.21875 
L 5.375 47.21875 
L 5.375 47.21875 
Q 5.375 58.25 11.15625 64.28125 
Q 16.9375 70.3125 27.546875 70.3125 
Q 37.546875 70.3125 43.671875 65.296875 
Q 49.8125 60.296875 49.8125 52.09375 
Q 49.8125 43.953125 43.65625 38.921875 
Q 42.484375 37.9375 41.109375 37.15625 
L 41.109375 37.15625 
Q 43.65625 36.03125 45.609375 34.46875 
Q 52.203125 29.296875 52.203125 20.515625 
Q 52.203125 10.640625 45.359375 4.359375 
Q 38.53125 -1.90625 27.78125 -1.90625 
Q 15.96875 -1.90625 9.953125 3.78125 
Q 3.953125 9.46875 3.421875 21.1875 
L 3.421875 21.1875 
L 12.640625 21.1875 
L 12.640625 21.1875 
Q 13.421875 12.984375 16.984375 9.4375 
Q 20.5625 5.90625 28.078125 5.90625 
Q 34.578125 5.90625 38.71875 9.640625 
Q 42.875 13.375 42.875 19.234375 
Q 42.875 25.390625 38.875 29 
Q 35.453125 32.125 30.078125 32.515625 
Q 27.59375 32.671875 25.359375 32.671875 
Q 23.140625 32.671875 22.40625 32.46875 
L 22.40625 40.1875 
Q 23.484375 39.9375 25.734375 39.9375 
Q 27.984375 39.9375 30.171875 40.234375 
Q 34.421875 40.765625 37.0625 43.015625 
Q 40.625 45.953125 40.625 51.21875 
z
" id="Helvetica-33"/>
      </defs>
      <g style="fill:#262626;" transform="translate(437.858497 392.985)scale(0.16 -0.16)">
       <use xlink:href="#Helvetica-33"/>
       <use x="55.615234" xlink:href="#Helvetica-30"/>
      </g>
     </g>
    </g>
    <g id="xtick_8">
     <g id="line2d_8">
      <g>
       <use style="fill:#262626;stroke:#262626;stroke-width:0.8;" x="507.356764" xlink:href="#m367f637e43" y="378"/>
      </g>
     </g>
     <g id="text_7">
      <!-- 35 -->
      <g style="fill:#262626;" transform="translate(498.459264 392.985)scale(0.16 -0.16)">
       <use xlink:href="#Helvetica-33"/>
       <use x="55.615234" xlink:href="#Helvetica-35"/>
      </g>
     </g>
    </g>
    <g id="text_8">
     <!-- Days -->
     <defs>
      <path d="M 8.109375 0 
L 8.109375 71.78125 
L 8.109375 71.78125 
L 12.9375 71.78125 
L 12.9375 71.78125 
L 37.59375 71.78125 
Q 51.265625 71.78125 59.34375 62.03125 
Q 67.4375 52.296875 67.4375 35.84375 
Q 67.4375 19.4375 59.15625 9.71875 
Q 50.875 0 36.8125 0 
L 12.9375 0 
L 12.9375 0 
L 8.109375 0 
z
M 17.828125 8.296875 
L 17.828125 8.296875 
L 35.59375 8.296875 
Q 46.046875 8.296875 51.734375 15.46875 
Q 57.421875 22.65625 57.421875 35.84375 
Q 57.421875 49.078125 51.953125 56.28125 
Q 46.484375 63.484375 36.421875 63.484375 
L 17.828125 63.484375 
L 17.828125 63.484375 
z
" id="Helvetica-44"/>
      <path d="M 20.265625 -1.421875 
Q 12.59375 -1.421875 8.09375 2.671875 
Q 3.609375 6.78125 3.609375 13.765625 
Q 3.609375 20.796875 7.828125 24.953125 
Q 12.0625 29.109375 20.171875 30.125 
L 32.125 31.640625 
Q 33.59375 31.78125 34.90625 32.125 
Q 36.625 32.5625 37.546875 33.875 
Q 38.484375 35.203125 38.484375 37.203125 
L 38.484375 37.640625 
Q 38.484375 41.84375 35.296875 44.203125 
Q 32.125 46.578125 26.46875 46.578125 
Q 21.046875 46.578125 17.984375 44.0625 
Q 14.9375 41.546875 14.3125 36.578125 
L 14.3125 36.578125 
L 6.203125 36.578125 
L 6.203125 36.578125 
Q 6.84375 45.171875 12.25 49.484375 
Q 17.671875 53.8125 27.78125 53.8125 
Q 37.3125 53.8125 42.28125 49.6875 
Q 47.265625 45.5625 47.265625 37.640625 
L 47.265625 8.9375 
Q 47.265625 7.625 48.0625 6.8125 
Q 48.875 6 50.25 6 
Q 50.640625 6 51.390625 6.09375 
Q 52.15625 6.203125 53.03125 6.390625 
L 53.03125 0.046875 
Q 51.765625 -0.4375 50.34375 -0.734375 
Q 48.921875 -1.03125 47.953125 -1.03125 
Q 42.96875 -1.03125 40.71875 1.703125 
Q 39.265625 3.515625 38.625 6.84375 
L 38.625 6.84375 
Q 37.640625 5.609375 36.375 4.5 
Q 29.78125 -1.421875 20.265625 -1.421875 
z
M 38.484375 20.703125 
L 38.484375 26.375 
L 38.484375 26.375 
Q 36.03125 25.203125 33.0625 24.75 
L 25 23.578125 
Q 18.65625 22.703125 15.71875 20.625 
Q 12.796875 18.5625 12.796875 14.984375 
Q 12.796875 10.59375 15.1875 8.21875 
Q 17.578125 5.859375 21.96875 5.859375 
Q 28.90625 5.859375 33.6875 9.625 
Q 36.96875 12.25 38.03125 15.578125 
Q 38.234375 16.21875 38.328125 17.578125 
Q 38.484375 19 38.484375 20.703125 
z
" id="Helvetica-61"/>
      <path d="M 48.875 52.25 
L 29 -1.703125 
Q 24.421875 -13.765625 20.828125 -17.46875 
Q 17.234375 -21.1875 10.0625 -21.1875 
Q 7.71875 -21.234375 5.8125 -20.65625 
L 5.8125 -12.5 
Q 7.8125 -13.234375 10.84375 -13.28125 
Q 13.8125 -13.28125 15.8125 -10.84375 
Q 17.828125 -8.40625 20.359375 -1.703125 
L 20.515625 -0.875 
L 20.515625 -0.875 
L 1.125 52.25 
L 1.125 52.25 
L 6.109375 52.25 
L 11.140625 52.25 
L 11.140625 52.25 
L 25.09375 9.03125 
L 25.09375 9.03125 
L 25.09375 9.03125 
L 39.265625 52.25 
L 39.265625 52.25 
L 44.046875 52.25 
L 48.875 52.25 
z
" id="Helvetica-79"/>
      <path d="M 36.421875 37.109375 
L 36.421875 37.109375 
Q 36.03125 41.453125 32.875 43.84375 
Q 29.734375 46.234375 24.421875 46.234375 
Q 18.953125 46.234375 16.09375 44.328125 
Q 13.234375 42.4375 13.234375 38.765625 
Q 13.234375 35.984375 15.234375 34.578125 
Q 17.234375 33.15625 23.1875 31.734375 
L 32.28125 29.59375 
Q 39.890625 27.734375 43.171875 24.46875 
Q 46.390625 21.234375 46.390625 15.4375 
Q 46.390625 7.671875 40.796875 3.125 
Q 35.203125 -1.421875 25.6875 -1.421875 
Q 14.65625 -1.421875 9.234375 2.953125 
Q 3.8125 7.328125 3.21875 16.703125 
L 3.21875 16.703125 
L 11.671875 16.703125 
L 11.671875 16.703125 
Q 12.3125 11.140625 15.59375 8.640625 
Q 18.890625 6.15625 25.6875 6.15625 
Q 31.59375 6.15625 34.640625 8.390625 
Q 37.703125 10.640625 37.703125 14.9375 
Q 37.703125 17.671875 35.6875 19.09375 
Q 33.6875 20.515625 27.640625 21.921875 
L 18.5625 24.078125 
Q 11.1875 25.828125 8.0625 29 
Q 4.9375 32.125 4.9375 37.796875 
Q 4.9375 45.171875 10.1875 49.484375 
Q 15.4375 53.8125 24.421875 53.8125 
Q 33.546875 53.8125 38.9375 49.359375 
Q 44.34375 44.921875 44.671875 37.109375 
L 44.671875 37.109375 
z
" id="Helvetica-73"/>
     </defs>
     <g style="fill:#262626;" transform="translate(276.97375 411.775)scale(0.16 -0.16)">
      <use xlink:href="#Helvetica-44"/>
      <use x="72.216797" xlink:href="#Helvetica-61"/>
      <use x="127.832031" xlink:href="#Helvetica-79"/>
      <use x="177.832031" xlink:href="#Helvetica-73"/>
     </g>
    </g>
   </g>
   <g id="matplotlib.axis_2">
    <g id="ytick_1">
     <g id="line2d_9">
      <defs>
       <path d="M 0 0 
L 6 0 
" id="m97905d60b6" style="stroke:#262626;stroke-width:0.8;"/>
      </defs>
      <g>
       <use style="fill:#262626;stroke:#262626;stroke-width:0.8;" x="72" xlink:href="#m97905d60b6" y="360.174552"/>
      </g>
     </g>
     <g id="text_9">
      <!-- 0 -->
      <g style="fill:#262626;" transform="translate(59.6025 365.917052)scale(0.16 -0.16)">
       <use xlink:href="#Helvetica-30"/>
      </g>
     </g>
    </g>
    <g id="ytick_2">
     <g id="line2d_10">
      <g>
       <use style="fill:#262626;stroke:#262626;stroke-width:0.8;" x="72" xlink:href="#m97905d60b6" y="302.07261"/>
      </g>
     </g>
     <g id="text_10">
      <!-- 20 -->
      <g style="fill:#262626;" transform="translate(50.705 307.81511)scale(0.16 -0.16)">
       <use xlink:href="#Helvetica-32"/>
       <use x="55.615234" xlink:href="#Helvetica-30"/>
      </g>
     </g>
    </g>
    <g id="ytick_3">
     <g id="line2d_11">
      <g>
       <use style="fill:#262626;stroke:#262626;stroke-width:0.8;" x="72" xlink:href="#m97905d60b6" y="243.970668"/>
      </g>
     </g>
     <g id="text_11">
      <!-- 40 -->
      <defs>
       <path d="M 33.5 16.84375 
L 2.484375 16.84375 
L 2.484375 20.953125 
L 2.484375 25.046875 
L 35.015625 70.265625 
L 38.671875 70.265625 
L 42.328125 70.265625 
L 42.328125 24.359375 
L 42.328125 24.359375 
L 52.296875 24.359375 
L 52.296875 16.84375 
L 42.328125 16.84375 
L 42.328125 16.84375 
L 42.328125 0 
L 33.5 0 
L 33.5 16.84375 
z
M 33.5 24.359375 
L 33.5 24.359375 
L 33.5 56.453125 
L 33.5 56.453125 
L 33.5 56.453125 
L 11.078125 25.046875 
L 10.59375 24.359375 
L 10.59375 24.359375 
z
" id="Helvetica-34"/>
      </defs>
      <g style="fill:#262626;" transform="translate(50.705 249.713168)scale(0.16 -0.16)">
       <use xlink:href="#Helvetica-34"/>
       <use x="55.615234" xlink:href="#Helvetica-30"/>
      </g>
     </g>
    </g>
    <g id="ytick_4">
     <g id="line2d_12">
      <g>
       <use style="fill:#262626;stroke:#262626;stroke-width:0.8;" x="72" xlink:href="#m97905d60b6" y="185.868726"/>
      </g>
     </g>
     <g id="text_12">
      <!-- 60 -->
      <defs>
       <path d="M 29.734375 70.3125 
Q 39.015625 70.3125 44.5 65.296875 
Q 50 60.296875 50.390625 51.515625 
L 50.390625 51.515625 
L 41.703125 51.515625 
L 41.703125 51.515625 
Q 41.21875 56.734375 38.09375 59.5625 
Q 34.96875 62.40625 29.734375 62.40625 
Q 21.578125 62.40625 17.1875 54.59375 
Q 13.375 47.90625 12.984375 36.375 
L 12.984375 36.375 
Q 19.53125 44.734375 29.6875 44.734375 
Q 39.65625 44.734375 45.734375 38.3125 
Q 51.8125 31.890625 51.8125 21.390625 
Q 51.8125 10.890625 45.1875 4.484375 
Q 38.578125 -1.90625 27.78125 -1.90625 
Q 16.265625 -1.90625 10.03125 7 
Q 3.8125 15.921875 3.8125 32.375 
Q 3.8125 50.59375 10.59375 60.453125 
Q 17.328125 70.3125 29.734375 70.3125 
z
M 14.0625 21.390625 
Q 14.0625 14.59375 18.03125 10.296875 
Q 22.015625 6 28.265625 6 
Q 34.515625 6 38.5 10.296875 
Q 42.484375 14.59375 42.484375 21.390625 
Q 42.484375 28.171875 38.5 32.484375 
Q 34.515625 36.8125 28.265625 36.8125 
Q 22.015625 36.8125 18.015625 32.46875 
Q 14.0625 28.171875 14.0625 21.390625 
z
" id="Helvetica-36"/>
      </defs>
      <g style="fill:#262626;" transform="translate(50.705 191.611226)scale(0.16 -0.16)">
       <use xlink:href="#Helvetica-36"/>
       <use x="55.615234" xlink:href="#Helvetica-30"/>
      </g>
     </g>
    </g>
    <g id="ytick_5">
     <g id="line2d_13">
      <g>
       <use style="fill:#262626;stroke:#262626;stroke-width:0.8;" x="72" xlink:href="#m97905d60b6" y="127.766784"/>
      </g>
     </g>
     <g id="text_13">
      <!-- 80 -->
      <defs>
       <path d="M 39.9375 37.203125 
L 39.9375 37.203125 
Q 42.78125 35.9375 45.125 34.03125 
Q 51.703125 28.71875 51.703125 19.96875 
Q 51.703125 10.109375 45.109375 4.09375 
Q 38.53125 -1.90625 27.734375 -1.90625 
Q 16.9375 -1.90625 10.375 4.09375 
Q 3.8125 10.109375 3.8125 19.96875 
Q 3.8125 28.71875 10.40625 34.078125 
Q 12.703125 35.9375 15.484375 37.15625 
L 15.484375 37.15625 
Q 13.71875 38.140625 12.109375 39.3125 
Q 6.203125 43.890625 6.203125 51.421875 
Q 6.203125 59.90625 12.125 65.109375 
Q 18.0625 70.3125 27.734375 70.3125 
Q 37.40625 70.3125 43.328125 65.109375 
Q 49.265625 59.90625 49.265625 51.421875 
Q 49.265625 43.890625 43.3125 39.3125 
Q 41.75 38.09375 39.9375 37.203125 
z
M 27.734375 40.875 
Q 33.109375 40.875 36.515625 43.875 
Q 39.9375 46.875 39.9375 51.609375 
Q 39.9375 56.34375 36.515625 59.375 
Q 33.109375 62.40625 27.734375 62.40625 
Q 22.359375 62.40625 18.9375 59.375 
Q 15.53125 56.34375 15.53125 51.609375 
Q 15.53125 46.875 18.953125 43.84375 
Q 22.359375 40.875 27.734375 40.875 
z
M 27.734375 33.25 
Q 21.296875 33.25 17.21875 29.421875 
Q 13.140625 25.59375 13.140625 19.578125 
Q 13.140625 13.625 17.21875 9.8125 
Q 21.296875 6 27.734375 6 
Q 34.1875 6 38.28125 9.8125 
Q 42.390625 13.625 42.390625 19.578125 
Q 42.390625 25.59375 38.28125 29.4375 
Q 34.1875 33.25 27.734375 33.25 
z
" id="Helvetica-38"/>
      </defs>
      <g style="fill:#262626;" transform="translate(50.705 133.509284)scale(0.16 -0.16)">
       <use xlink:href="#Helvetica-38"/>
       <use x="55.615234" xlink:href="#Helvetica-30"/>
      </g>
     </g>
    </g>
    <g id="ytick_6">
     <g id="line2d_14">
      <g>
       <use style="fill:#262626;stroke:#262626;stroke-width:0.8;" x="72" xlink:href="#m97905d60b6" y="69.664842"/>
      </g>
     </g>
     <g id="text_14">
      <!-- 100 -->
      <g style="fill:#262626;" transform="translate(41.8075 75.407342)scale(0.16 -0.16)">
       <use xlink:href="#Helvetica-31"/>
       <use x="55.615234" xlink:href="#Helvetica-30"/>
       <use x="111.230469" xlink:href="#Helvetica-30"/>
      </g>
     </g>
    </g>
    <g id="text_15">
     <!-- Survival % -->
     <defs>
      <path d="M 51.375 50.984375 
L 51.375 50.984375 
Q 50.734375 57.765625 46.015625 61.453125 
Q 41.3125 65.140625 33.34375 65.140625 
Q 25.140625 65.140625 20.890625 61.96875 
Q 16.65625 58.796875 16.65625 52.6875 
Q 16.65625 48.53125 19.484375 46.484375 
Q 22.3125 44.4375 30.859375 42.4375 
L 43.359375 39.453125 
Q 53.421875 37.0625 57.71875 32.375 
Q 62.015625 27.734375 62.015625 19.234375 
Q 62.015625 9.46875 54.609375 3.75 
Q 47.21875 -1.953125 34.578125 -1.953125 
Q 20.515625 -1.953125 12.59375 4.640625 
Q 4.890625 11.140625 4.890625 22.40625 
L 4.890625 22.953125 
L 4.890625 22.953125 
L 13.8125 22.953125 
L 13.8125 22.953125 
Q 14.0625 15.140625 19.484375 10.890625 
Q 24.90625 6.640625 34.578125 6.640625 
Q 43.5 6.640625 48.140625 9.71875 
Q 52.78125 12.796875 52.78125 18.75 
Q 52.78125 23.921875 49.703125 26.421875 
Q 46.6875 28.859375 37.5 31.0625 
L 25 34.03125 
Q 15.53125 36.28125 11.46875 40.28125 
Q 7.421875 44.28125 7.421875 51.375 
Q 7.421875 61.671875 14.421875 67.703125 
Q 21.4375 73.734375 33.34375 73.734375 
Q 45.453125 73.734375 52.625 67.671875 
Q 59.8125 61.625 60.296875 50.984375 
L 60.296875 50.984375 
z
" id="Helvetica-53"/>
      <path d="M 15.578125 52.25 
L 15.578125 18.5625 
Q 15.578125 11.96875 18.109375 9.0625 
Q 20.65625 6.15625 26.375 6.15625 
Q 32.71875 6.15625 36.421875 11.0625 
Q 40.140625 15.96875 40.140625 24.359375 
L 40.140625 24.359375 
L 40.140625 52.25 
L 40.140625 52.25 
L 44.53125 52.25 
L 48.921875 52.25 
L 48.921875 52.25 
L 48.921875 0 
L 48.921875 0 
L 44.78125 0 
L 40.578125 0 
L 40.578125 0 
L 40.578125 7.953125 
L 40.578125 7.953125 
L 40.578125 7.953125 
Q 39.703125 6.546875 38.625 5.28125 
Q 33.015625 -1.421875 24.5625 -1.421875 
Q 15.671875 -1.421875 11.21875 3.015625 
Q 6.78125 7.46875 6.78125 16.359375 
L 6.78125 52.25 
L 6.78125 52.25 
L 11.1875 52.25 
L 15.578125 52.25 
z
" id="Helvetica-75"/>
      <path d="M 7.71875 0 
L 7.71875 52.25 
L 7.71875 52.25 
L 11.859375 52.25 
L 16.0625 52.25 
L 16.0625 52.25 
L 16.0625 43.3125 
L 16.0625 43.3125 
L 16.0625 43.3125 
Q 17.1875 45.40625 18.453125 47.125 
Q 23.4375 53.8125 30.71875 53.8125 
Q 31.9375 53.8125 33.203125 53.375 
L 33.203125 44.390625 
L 31.390625 44.4375 
Q 24.265625 44.4375 20.375 40.15625 
Q 16.5 35.890625 16.5 27.984375 
L 16.5 27.984375 
L 16.5 0 
L 16.5 0 
L 12.109375 0 
L 7.71875 0 
z
" id="Helvetica-72"/>
      <path d="M 0.78125 52.25 
L 0.78125 52.25 
L 5.90625 52.25 
L 11.03125 52.25 
L 11.03125 52.25 
L 25.046875 9.46875 
L 25.046875 9.46875 
L 25.046875 9.46875 
L 39.5 52.25 
L 39.5 52.25 
L 44.34375 52.25 
L 49.21875 52.25 
L 49.21875 52.25 
L 29.734375 0 
L 25.046875 0 
L 20.3125 0 
z
" id="Helvetica-76"/>
      <path d="M 6.78125 0 
L 6.78125 52.25 
L 6.78125 52.25 
L 11.1875 52.25 
L 15.578125 52.25 
L 15.578125 52.25 
L 15.578125 0 
L 15.578125 0 
L 11.1875 0 
L 6.78125 0 
z
M 6.6875 71.78125 
L 15.671875 71.78125 
L 15.671875 61.8125 
L 6.6875 61.8125 
z
" id="Helvetica-69"/>
      <path d="M 6.6875 0 
L 6.6875 71.78125 
L 6.6875 71.78125 
L 11.078125 71.78125 
L 15.484375 71.78125 
L 15.484375 71.78125 
L 15.484375 0 
L 15.484375 0 
L 11.078125 0 
L 6.6875 0 
z
" id="Helvetica-6c"/>
      <path id="Helvetica-20"/>
      <path d="M 20.90625 35.359375 
Q 13.96875 35.359375 8.9375 40.40625 
Q 3.90625 45.453125 3.90625 52.4375 
Q 3.90625 59.421875 8.9375 64.5 
Q 13.96875 69.578125 20.90625 69.578125 
Q 27.828125 69.578125 32.875 64.5 
Q 37.9375 59.421875 37.9375 52.4375 
Q 37.9375 45.453125 32.875 40.40625 
Q 27.828125 35.359375 20.90625 35.359375 
z
M 20.90625 62.546875 
Q 16.796875 62.546875 13.84375 59.546875 
Q 10.890625 56.546875 10.890625 52.4375 
Q 10.890625 48.34375 13.84375 45.359375 
Q 16.796875 42.390625 20.90625 42.390625 
Q 25 42.390625 27.96875 45.359375 
Q 30.953125 48.34375 30.953125 52.4375 
Q 30.953125 56.546875 27.96875 59.546875 
Q 25 62.546875 20.90625 62.546875 
z
M 21.34375 -1.65625 
L 62.109375 70.3125 
L 67.578125 70.3125 
L 26.8125 -1.65625 
z
M 67.96875 -0.296875 
Q 61.03125 -0.296875 56 4.75 
Q 50.984375 9.8125 50.984375 16.796875 
Q 50.984375 23.78125 56 28.859375 
Q 61.03125 33.9375 67.96875 33.9375 
Q 74.90625 33.9375 79.953125 28.859375 
Q 85.015625 23.78125 85.015625 16.796875 
Q 85.015625 9.8125 79.953125 4.75 
Q 74.90625 -0.296875 67.96875 -0.296875 
z
M 67.96875 26.90625 
Q 63.875 26.90625 60.90625 23.90625 
Q 57.953125 20.90625 57.953125 16.796875 
Q 57.953125 12.703125 60.90625 9.71875 
Q 63.875 6.734375 67.96875 6.734375 
Q 72.078125 6.734375 75.046875 9.71875 
Q 78.03125 12.703125 78.03125 16.796875 
Q 78.03125 20.90625 75.046875 23.90625 
Q 72.078125 26.90625 67.96875 26.90625 
z
" id="Helvetica-25"/>
     </defs>
     <g style="fill:#262626;" transform="translate(34.5025 252.70875)rotate(-90)scale(0.16 -0.16)">
      <use xlink:href="#Helvetica-53"/>
      <use x="66.699219" xlink:href="#Helvetica-75"/>
      <use x="122.314453" xlink:href="#Helvetica-72"/>
      <use x="155.615234" xlink:href="#Helvetica-76"/>
      <use x="205.615234" xlink:href="#Helvetica-69"/>
      <use x="227.832031" xlink:href="#Helvetica-76"/>
      <use x="277.832031" xlink:href="#Helvetica-61"/>
      <use x="333.447266" xlink:href="#Helvetica-6c"/>
      <use x="355.664062" xlink:href="#Helvetica-20"/>
      <use x="383.447266" xlink:href="#Helvetica-25"/>
     </g>
    </g>
   </g>
   <g id="PathCollection_1">
    <path clip-path="url(#pba3a2391dd)" d="M 92.271608 72.664782 
L 98.271608 72.664782 
L 98.271608 66.664782 
L 92.271608 66.664782 
z
" style="fill:none;stroke:#000000;"/>
    <path clip-path="url(#pba3a2391dd)" d="M 104.391762 72.664782 
L 110.391762 72.664782 
L 110.391762 66.664782 
L 104.391762 66.664782 
z
" style="fill:none;stroke:#000000;"/>
    <path clip-path="url(#pba3a2391dd)" d="M 116.511915 72.664782 
L 122.511915 72.664782 
L 122.511915 66.664782 
L 116.511915 66.664782 
z
" style="fill:none;stroke:#000000;"/>
    <path clip-path="url(#pba3a2391dd)" d="M 128.632069 72.664782 
L 134.632069 72.664782 
L 134.632069 66.664782 
L 128.632069 66.664782 
z
" style="fill:none;stroke:#000000;"/>
    <path clip-path="url(#pba3a2391dd)" d="M 140.752222 363.174492 
L 146.752222 363.174492 
L 146.752222 357.174492 
L 140.752222 357.174492 
z
" style="fill:none;stroke:#000000;"/>
   </g>
   <g id="PathCollection_2">
    <path clip-path="url(#pba3a2391dd)" d="M 140.752222 363.174492 
L 146.752222 363.174492 
L 146.752222 357.174492 
L 140.752222 357.174492 
z
" style="fill:none;stroke:#000000;"/>
   </g>
   <g id="PathCollection_3">
    <path clip-path="url(#pba3a2391dd)" d="M 95.271548 66.664842 
L 92.271548 72.664842 
L 98.271548 72.664842 
z
" style="fill:none;stroke:#000000;"/>
    <path clip-path="url(#pba3a2391dd)" d="M 107.391702 66.664842 
L 104.391702 72.664842 
L 110.391702 72.664842 
z
" style="fill:none;stroke:#000000;"/>
    <path clip-path="url(#pba3a2391dd)" d="M 119.511855 66.664842 
L 116.511855 72.664842 
L 122.511855 72.664842 
z
" style="fill:none;stroke:#000000;"/>
    <path clip-path="url(#pba3a2391dd)" d="M 131.632009 66.664842 
L 128.632009 72.664842 
L 134.632009 72.664842 
z
" style="fill:none;stroke:#000000;"/>
    <path clip-path="url(#pba3a2391dd)" d="M 143.752162 66.664842 
L 140.752162 72.664842 
L 146.752162 72.664842 
z
" style="fill:none;stroke:#000000;"/>
    <path clip-path="url(#pba3a2391dd)" d="M 155.872315 66.664842 
L 152.872315 72.664842 
L 158.872315 72.664842 
z
" style="fill:none;stroke:#000000;"/>
    <path clip-path="url(#pba3a2391dd)" d="M 167.992469 66.664842 
L 164.992469 72.664842 
L 170.992469 72.664842 
z
" style="fill:none;stroke:#000000;"/>
    <path clip-path="url(#pba3a2391dd)" d="M 180.112622 66.664842 
L 177.112622 72.664842 
L 183.112622 72.664842 
z
" style="fill:none;stroke:#000000;"/>
    <path clip-path="url(#pba3a2391dd)" d="M 192.232776 66.664842 
L 189.232776 72.664842 
L 195.232776 72.664842 
z
" style="fill:none;stroke:#000000;"/>
    <path clip-path="url(#pba3a2391dd)" d="M 204.352929 66.664842 
L 201.352929 72.664842 
L 207.352929 72.664842 
z
" style="fill:none;stroke:#000000;"/>
    <path clip-path="url(#pba3a2391dd)" d="M 216.473082 66.664842 
L 213.473082 72.664842 
L 219.473082 72.664842 
z
" style="fill:none;stroke:#000000;"/>
    <path clip-path="url(#pba3a2391dd)" d="M 228.593236 66.664842 
L 225.593236 72.664842 
L 231.593236 72.664842 
z
" style="fill:none;stroke:#000000;"/>
    <path clip-path="url(#pba3a2391dd)" d="M 240.713389 66.664842 
L 237.713389 72.664842 
L 243.713389 72.664842 
z
" style="fill:none;stroke:#000000;"/>
    <path clip-path="url(#pba3a2391dd)" d="M 252.833543 66.664842 
L 249.833543 72.664842 
L 255.833543 72.664842 
z
" style="fill:none;stroke:#000000;"/>
    <path clip-path="url(#pba3a2391dd)" d="M 264.953696 66.664842 
L 261.953696 72.664842 
L 267.953696 72.664842 
z
" style="fill:none;stroke:#000000;"/>
    <path clip-path="url(#pba3a2391dd)" d="M 277.073849 66.664842 
L 274.073849 72.664842 
L 280.073849 72.664842 
z
" style="fill:none;stroke:#000000;"/>
    <path clip-path="url(#pba3a2391dd)" d="M 289.194003 66.664842 
L 286.194003 72.664842 
L 292.194003 72.664842 
z
" style="fill:none;stroke:#000000;"/>
    <path clip-path="url(#pba3a2391dd)" d="M 301.314156 66.664842 
L 298.314156 72.664842 
L 304.314156 72.664842 
z
" style="fill:none;stroke:#000000;"/>
    <path clip-path="url(#pba3a2391dd)" d="M 313.43431 66.664842 
L 310.43431 72.664842 
L 316.43431 72.664842 
z
" style="fill:none;stroke:#000000;"/>
    <path clip-path="url(#pba3a2391dd)" d="M 325.554463 66.664842 
L 322.554463 72.664842 
L 328.554463 72.664842 
z
" style="fill:none;stroke:#000000;"/>
    <path clip-path="url(#pba3a2391dd)" d="M 337.674617 66.664842 
L 334.674617 72.664842 
L 340.674617 72.664842 
z
" style="fill:none;stroke:#000000;"/>
    <path clip-path="url(#pba3a2391dd)" d="M 349.79477 66.664842 
L 346.79477 72.664842 
L 352.79477 72.664842 
z
" style="fill:none;stroke:#000000;"/>
    <path clip-path="url(#pba3a2391dd)" d="M 361.914923 66.664842 
L 358.914923 72.664842 
L 364.914923 72.664842 
z
" style="fill:none;stroke:#000000;"/>
    <path clip-path="url(#pba3a2391dd)" d="M 374.035077 66.664842 
L 371.035077 72.664842 
L 377.035077 72.664842 
z
" style="fill:none;stroke:#000000;"/>
    <path clip-path="url(#pba3a2391dd)" d="M 386.15523 66.664842 
L 383.15523 72.664842 
L 389.15523 72.664842 
z
" style="fill:none;stroke:#000000;"/>
    <path clip-path="url(#pba3a2391dd)" d="M 398.275384 66.664842 
L 395.275384 72.664842 
L 401.275384 72.664842 
z
" style="fill:none;stroke:#000000;"/>
    <path clip-path="url(#pba3a2391dd)" d="M 410.395537 66.664842 
L 407.395537 72.664842 
L 413.395537 72.664842 
z
" style="fill:none;stroke:#000000;"/>
    <path clip-path="url(#pba3a2391dd)" d="M 422.51569 66.664842 
L 419.51569 72.664842 
L 425.51569 72.664842 
z
" style="fill:none;stroke:#000000;"/>
    <path clip-path="url(#pba3a2391dd)" d="M 434.635844 66.664842 
L 431.635844 72.664842 
L 437.635844 72.664842 
z
" style="fill:none;stroke:#000000;"/>
    <path clip-path="url(#pba3a2391dd)" d="M 446.755997 66.664842 
L 443.755997 72.664842 
L 449.755997 72.664842 
z
" style="fill:none;stroke:#000000;"/>
    <path clip-path="url(#pba3a2391dd)" d="M 458.876151 66.664842 
L 455.876151 72.664842 
L 461.876151 72.664842 
z
" style="fill:none;stroke:#000000;"/>
    <path clip-path="url(#pba3a2391dd)" d="M 470.996304 66.664842 
L 467.996304 72.664842 
L 473.996304 72.664842 
z
" style="fill:none;stroke:#000000;"/>
    <path clip-path="url(#pba3a2391dd)" d="M 483.116457 66.664842 
L 480.116457 72.664842 
L 486.116457 72.664842 
z
" style="fill:none;stroke:#000000;"/>
   </g>
   <g id="PathCollection_4">
    <path clip-path="url(#pba3a2391dd)" d="M 107.391702 66.664842 
L 104.391702 72.664842 
L 110.391702 72.664842 
z
" style="fill:none;stroke:#000000;"/>
    <path clip-path="url(#pba3a2391dd)" d="M 119.511855 66.664842 
L 116.511855 72.664842 
L 122.511855 72.664842 
z
" style="fill:none;stroke:#000000;"/>
    <path clip-path="url(#pba3a2391dd)" d="M 131.632009 66.664842 
L 128.632009 72.664842 
L 134.632009 72.664842 
z
" style="fill:none;stroke:#000000;"/>
    <path clip-path="url(#pba3a2391dd)" d="M 143.752162 66.664842 
L 140.752162 72.664842 
L 146.752162 72.664842 
z
" style="fill:none;stroke:#000000;"/>
    <path clip-path="url(#pba3a2391dd)" d="M 155.872315 66.664842 
L 152.872315 72.664842 
L 158.872315 72.664842 
z
" style="fill:none;stroke:#000000;"/>
    <path clip-path="url(#pba3a2391dd)" d="M 167.992469 66.664842 
L 164.992469 72.664842 
L 170.992469 72.664842 
z
" style="fill:none;stroke:#000000;"/>
    <path clip-path="url(#pba3a2391dd)" d="M 180.112622 66.664842 
L 177.112622 72.664842 
L 183.112622 72.664842 
z
" style="fill:none;stroke:#000000;"/>
    <path clip-path="url(#pba3a2391dd)" d="M 192.232776 66.664842 
L 189.232776 72.664842 
L 195.232776 72.664842 
z
" style="fill:none;stroke:#000000;"/>
    <path clip-path="url(#pba3a2391dd)" d="M 204.352929 66.664842 
L 201.352929 72.664842 
L 207.352929 72.664842 
z
" style="fill:none;stroke:#000000;"/>
    <path clip-path="url(#pba3a2391dd)" d="M 216.473082 66.664842 
L 213.473082 72.664842 
L 219.473082 72.664842 
z
" style="fill:none;stroke:#000000;"/>
    <path clip-path="url(#pba3a2391dd)" d="M 228.593236 66.664842 
L 225.593236 72.664842 
L 231.593236 72.664842 
z
" style="fill:none;stroke:#000000;"/>
    <path clip-path="url(#pba3a2391dd)" d="M 240.713389 66.664842 
L 237.713389 72.664842 
L 243.713389 72.664842 
z
" style="fill:none;stroke:#000000;"/>
    <path clip-path="url(#pba3a2391dd)" d="M 252.833543 66.664842 
L 249.833543 72.664842 
L 255.833543 72.664842 
z
" style="fill:none;stroke:#000000;"/>
    <path clip-path="url(#pba3a2391dd)" d="M 264.953696 66.664842 
L 261.953696 72.664842 
L 267.953696 72.664842 
z
" style="fill:none;stroke:#000000;"/>
    <path clip-path="url(#pba3a2391dd)" d="M 277.073849 66.664842 
L 274.073849 72.664842 
L 280.073849 72.664842 
z
" style="fill:none;stroke:#000000;"/>
    <path clip-path="url(#pba3a2391dd)" d="M 289.194003 66.664842 
L 286.194003 72.664842 
L 292.194003 72.664842 
z
" style="fill:none;stroke:#000000;"/>
    <path clip-path="url(#pba3a2391dd)" d="M 301.314156 66.664842 
L 298.314156 72.664842 
L 304.314156 72.664842 
z
" style="fill:none;stroke:#000000;"/>
    <path clip-path="url(#pba3a2391dd)" d="M 313.43431 66.664842 
L 310.43431 72.664842 
L 316.43431 72.664842 
z
" style="fill:none;stroke:#000000;"/>
    <path clip-path="url(#pba3a2391dd)" d="M 325.554463 66.664842 
L 322.554463 72.664842 
L 328.554463 72.664842 
z
" style="fill:none;stroke:#000000;"/>
    <path clip-path="url(#pba3a2391dd)" d="M 337.674617 66.664842 
L 334.674617 72.664842 
L 340.674617 72.664842 
z
" style="fill:none;stroke:#000000;"/>
    <path clip-path="url(#pba3a2391dd)" d="M 349.79477 66.664842 
L 346.79477 72.664842 
L 352.79477 72.664842 
z
" style="fill:none;stroke:#000000;"/>
    <path clip-path="url(#pba3a2391dd)" d="M 361.914923 66.664842 
L 358.914923 72.664842 
L 364.914923 72.664842 
z
" style="fill:none;stroke:#000000;"/>
    <path clip-path="url(#pba3a2391dd)" d="M 374.035077 66.664842 
L 371.035077 72.664842 
L 377.035077 72.664842 
z
" style="fill:none;stroke:#000000;"/>
    <path clip-path="url(#pba3a2391dd)" d="M 386.15523 66.664842 
L 383.15523 72.664842 
L 389.15523 72.664842 
z
" style="fill:none;stroke:#000000;"/>
    <path clip-path="url(#pba3a2391dd)" d="M 398.275384 66.664842 
L 395.275384 72.664842 
L 401.275384 72.664842 
z
" style="fill:none;stroke:#000000;"/>
    <path clip-path="url(#pba3a2391dd)" d="M 410.395537 66.664842 
L 407.395537 72.664842 
L 413.395537 72.664842 
z
" style="fill:none;stroke:#000000;"/>
    <path clip-path="url(#pba3a2391dd)" d="M 422.51569 66.664842 
L 419.51569 72.664842 
L 425.51569 72.664842 
z
" style="fill:none;stroke:#000000;"/>
    <path clip-path="url(#pba3a2391dd)" d="M 434.635844 66.664842 
L 431.635844 72.664842 
L 437.635844 72.664842 
z
" style="fill:none;stroke:#000000;"/>
    <path clip-path="url(#pba3a2391dd)" d="M 446.755997 66.664842 
L 443.755997 72.664842 
L 449.755997 72.664842 
z
" style="fill:none;stroke:#000000;"/>
    <path clip-path="url(#pba3a2391dd)" d="M 458.876151 66.664842 
L 455.876151 72.664842 
L 461.876151 72.664842 
z
" style="fill:none;stroke:#000000;"/>
    <path clip-path="url(#pba3a2391dd)" d="M 470.996304 66.664842 
L 467.996304 72.664842 
L 473.996304 72.664842 
z
" style="fill:none;stroke:#000000;"/>
    <path clip-path="url(#pba3a2391dd)" d="M 483.116457 66.664842 
L 480.116457 72.664842 
L 486.116457 72.664842 
z
" style="fill:none;stroke:#000000;"/>
    <path clip-path="url(#pba3a2391dd)" d="M 495.236611 66.664842 
L 492.236611 72.664842 
L 498.236611 72.664842 
z
" style="fill:none;stroke:#000000;"/>
   </g>
   <g id="PathCollection_5">
    <defs>
     <path d="M 0 3 
C 0.795609 3 1.55874 2.683901 2.12132 2.12132 
C 2.683901 1.55874 3 0.795609 3 0 
C 3 -0.795609 2.683901 -1.55874 2.12132 -2.12132 
C 1.55874 -2.683901 0.795609 -3 0 -3 
C -0.795609 -3 -1.55874 -2.683901 -2.12132 -2.12132 
C -2.683901 -1.55874 -3 -0.795609 -3 0 
C -3 0.795609 -2.683901 1.55874 -2.12132 2.12132 
C -1.55874 2.683901 -0.795609 3 0 3 
z
" id="C0_0_a81a06934d"/>
    </defs>
    <g clip-path="url(#pba3a2391dd)">
     <use style="fill:none;stroke:#000000;" x="95.271548" xlink:href="#C0_0_a81a06934d" y="69.664842"/>
    </g>
    <g clip-path="url(#pba3a2391dd)">
     <use style="fill:none;stroke:#000000;" x="107.391702" xlink:href="#C0_0_a81a06934d" y="69.664842"/>
    </g>
    <g clip-path="url(#pba3a2391dd)">
     <use style="fill:none;stroke:#000000;" x="119.511855" xlink:href="#C0_0_a81a06934d" y="69.664842"/>
    </g>
    <g clip-path="url(#pba3a2391dd)">
     <use style="fill:none;stroke:#000000;" x="131.632009" xlink:href="#C0_0_a81a06934d" y="69.664842"/>
    </g>
    <g clip-path="url(#pba3a2391dd)">
     <use style="fill:none;stroke:#000000;" x="143.752162" xlink:href="#C0_0_a81a06934d" y="69.664842"/>
    </g>
    <g clip-path="url(#pba3a2391dd)">
     <use style="fill:none;stroke:#000000;" x="155.872315" xlink:href="#C0_0_a81a06934d" y="69.664842"/>
    </g>
    <g clip-path="url(#pba3a2391dd)">
     <use style="fill:none;stroke:#000000;" x="167.992469" xlink:href="#C0_0_a81a06934d" y="69.664842"/>
    </g>
    <g clip-path="url(#pba3a2391dd)">
     <use style="fill:none;stroke:#000000;" x="180.112622" xlink:href="#C0_0_a81a06934d" y="69.664842"/>
    </g>
    <g clip-path="url(#pba3a2391dd)">
     <use style="fill:none;stroke:#000000;" x="192.232776" xlink:href="#C0_0_a81a06934d" y="69.664842"/>
    </g>
    <g clip-path="url(#pba3a2391dd)">
     <use style="fill:none;stroke:#000000;" x="204.352929" xlink:href="#C0_0_a81a06934d" y="69.664842"/>
    </g>
    <g clip-path="url(#pba3a2391dd)">
     <use style="fill:none;stroke:#000000;" x="216.473082" xlink:href="#C0_0_a81a06934d" y="360.174552"/>
    </g>
   </g>
   <g id="PathCollection_6">
    <path clip-path="url(#pba3a2391dd)" d="M 216.473082 363.174552 
C 217.268692 363.174552 218.031822 362.858453 218.594403 362.295872 
C 219.156983 361.733291 219.473082 360.970161 219.473082 360.174552 
C 219.473082 359.378942 219.156983 358.615812 218.594403 358.053231 
C 218.031822 357.490651 217.268692 357.174552 216.473082 357.174552 
C 215.677473 357.174552 214.914343 357.490651 214.351762 358.053231 
C 213.789181 358.615812 213.473082 359.378942 213.473082 360.174552 
C 213.473082 360.970161 213.789181 361.733291 214.351762 362.295872 
C 214.914343 362.858453 215.677473 363.174552 216.473082 363.174552 
z
" style="fill:none;stroke:#000000;"/>
   </g>
   <g id="line2d_15">
    <path clip-path="url(#pba3a2391dd)" d="M 95.271548 69.664842 
L 143.752162 69.664842 
" style="fill:none;opacity:0.7;stroke:#000000;stroke-dasharray:5.55,2.4;stroke-dashoffset:0;stroke-width:1.5;"/>
   </g>
   <g id="line2d_16">
    <path clip-path="url(#pba3a2391dd)" d="M 143.752162 69.664842 
L 143.752162 360.174552 
" style="fill:none;opacity:0.7;stroke:#000000;stroke-dasharray:5.55,2.4;stroke-dashoffset:0;stroke-width:1.5;"/>
   </g>
   <g id="line2d_17">
    <path clip-path="url(#pba3a2391dd)" d="M 95.271548 69.664842 
L 495.236611 69.664842 
" style="fill:none;opacity:0.7;stroke:#000000;stroke-dasharray:1.5,2.475;stroke-dashoffset:0;stroke-width:1.5;"/>
   </g>
   <g id="line2d_18">
    <path clip-path="url(#pba3a2391dd)" d="M 95.271548 69.664842 
L 216.473082 69.664842 
" style="fill:none;opacity:0.7;stroke:#000000;stroke-dasharray:9.6,2.4,1.5,2.4;stroke-dashoffset:0;stroke-width:1.5;"/>
   </g>
   <g id="line2d_19">
    <path clip-path="url(#pba3a2391dd)" d="M 216.473082 69.664842 
L 216.473082 360.174552 
" style="fill:none;opacity:0.7;stroke:#000000;stroke-dasharray:9.6,2.4,1.5,2.4;stroke-dashoffset:0;stroke-width:1.5;"/>
   </g>
   <g id="patch_3">
    <path d="M 72 378 
L 72 51.84 
" style="fill:none;stroke:#262626;stroke-linecap:square;stroke-linejoin:miter;stroke-width:1.25;"/>
   </g>
   <g id="patch_4">
    <path d="M 518.4 378 
L 518.4 51.84 
" style="fill:none;stroke:#262626;stroke-linecap:square;stroke-linejoin:miter;stroke-width:1.25;"/>
   </g>
   <g id="patch_5">
    <path d="M 72 378 
L 518.4 378 
" style="fill:none;stroke:#262626;stroke-linecap:square;stroke-linejoin:miter;stroke-width:1.25;"/>
   </g>
   <g id="patch_6">
    <path d="M 72 51.84 
L 518.4 51.84 
" style="fill:none;stroke:#262626;stroke-linecap:square;stroke-linejoin:miter;stroke-width:1.25;"/>
   </g>
   <g id="text_16">
    <!-- T. congolense -->
    <defs>
     <path d="M 25.6875 0 
L 25.6875 63.1875 
L 25.6875 63.1875 
L 1.421875 63.1875 
L 1.421875 63.1875 
L 1.421875 67.484375 
L 1.421875 71.78125 
L 1.421875 71.78125 
L 59.671875 71.78125 
L 59.671875 71.78125 
L 59.671875 67.484375 
L 59.671875 63.1875 
L 59.671875 63.1875 
L 35.40625 63.1875 
L 35.40625 63.1875 
L 35.40625 0 
L 35.40625 0 
L 30.5625 0 
L 25.6875 0 
z
" id="Helvetica-54"/>
     <path d="M 8.6875 10.59375 
L 19.140625 10.59375 
L 19.140625 0 
L 8.6875 0 
z
" id="Helvetica-2e"/>
     <path d="M 47.703125 18.796875 
L 47.703125 18.796875 
Q 46.34375 8.9375 40.71875 3.75 
Q 35.109375 -1.421875 25.78125 -1.421875 
Q 15.375 -1.421875 9.171875 6.046875 
Q 2.984375 13.53125 2.984375 26.171875 
Q 2.984375 38.8125 9.40625 46.3125 
Q 15.828125 53.8125 26.65625 53.8125 
Q 36.078125 53.8125 41.6875 48.65625 
Q 47.3125 43.5 47.703125 34.46875 
L 47.703125 34.46875 
L 39.265625 34.46875 
L 39.265625 34.46875 
Q 38.71875 40.09375 35.34375 43.15625 
Q 31.984375 46.234375 26.375 46.234375 
Q 19.734375 46.234375 15.9375 40.890625 
Q 12.15625 35.546875 12.15625 26.171875 
Q 12.15625 16.21875 15.671875 11.1875 
Q 19.1875 6.15625 26.125 6.15625 
Q 31.25 6.15625 34.6875 9.453125 
Q 38.140625 12.75 39.265625 18.796875 
L 39.265625 18.796875 
z
" id="Helvetica-63"/>
     <path d="M 27.78125 -1.421875 
Q 16.9375 -1.421875 10.21875 6.1875 
Q 3.515625 13.8125 3.515625 26.171875 
Q 3.515625 38.578125 10.21875 46.1875 
Q 16.9375 53.8125 27.78125 53.8125 
Q 38.71875 53.8125 45.40625 46.1875 
Q 52.09375 38.578125 52.09375 26.171875 
Q 52.09375 13.8125 45.40625 6.1875 
Q 38.71875 -1.421875 27.78125 -1.421875 
z
M 27.78125 6.15625 
Q 34.71875 6.15625 38.8125 11.578125 
Q 42.921875 17 42.921875 26.171875 
Q 42.921875 35.359375 38.8125 40.796875 
Q 34.71875 46.234375 27.78125 46.234375 
Q 20.84375 46.234375 16.765625 40.796875 
Q 12.703125 35.359375 12.703125 26.171875 
Q 12.703125 17 16.765625 11.578125 
Q 20.84375 6.15625 27.78125 6.15625 
z
" id="Helvetica-6f"/>
     <path d="M 6.5 0 
L 6.5 52.25 
L 6.5 52.25 
L 10.640625 52.25 
L 14.84375 52.25 
L 14.84375 52.25 
L 14.84375 44.53125 
L 14.84375 44.53125 
L 14.84375 44.53125 
L 16.796875 47.125 
Q 22.515625 53.8125 31.109375 53.8125 
Q 39.75 53.8125 44.4375 49.125 
Q 49.125 44.4375 49.125 35.796875 
L 49.125 0 
L 49.125 0 
L 44.734375 0 
L 40.328125 0 
L 40.328125 0 
L 40.328125 32.8125 
Q 40.328125 39.703125 37.671875 42.75 
Q 35.015625 45.796875 29.046875 45.796875 
Q 22.703125 45.796875 18.984375 40.984375 
Q 15.28125 36.1875 15.28125 27.984375 
L 15.28125 27.984375 
L 15.28125 0 
L 15.28125 0 
L 10.890625 0 
L 6.5 0 
z
" id="Helvetica-6e"/>
     <path d="M 25.640625 -14.796875 
Q 33.203125 -14.796875 37.15625 -10.03125 
Q 41.109375 -5.28125 41.109375 3.859375 
L 41.109375 5.5625 
L 41.0625 5.515625 
Q 35.640625 -1.421875 26.90625 -1.421875 
Q 16.40625 -1.421875 10.203125 6.421875 
Q 4 14.265625 4 27.59375 
Q 4 39.359375 10.109375 46.578125 
Q 16.21875 53.8125 26.078125 53.8125 
Q 35.5 53.8125 41.015625 45.65625 
L 41.65625 44.734375 
L 41.65625 44.734375 
L 41.65625 52.25 
L 41.65625 52.25 
L 49.90625 52.25 
L 49.90625 3.859375 
Q 49.859375 -9.375 43.9375 -15.71875 
Q 38.03125 -22.078125 25.78125 -22.078125 
Q 16.890625 -22.078125 11.671875 -17.96875 
Q 6.453125 -13.875 5.375 -6.0625 
L 5.375 -6.0625 
L 14.359375 -6.0625 
L 14.359375 -6.0625 
Q 15.140625 -10.25 18.09375 -12.515625 
Q 21.046875 -14.796875 25.640625 -14.796875 
z
M 27.34375 45.796875 
Q 19.96875 45.796875 16.578125 41.109375 
Q 13.1875 36.421875 13.1875 26.21875 
Q 13.1875 16.609375 16.875 11.40625 
Q 20.5625 6.203125 27.34375 6.203125 
Q 33.734375 6.203125 37.640625 10.984375 
Q 41.546875 15.765625 41.546875 23.640625 
Q 41.546875 34.71875 38 40.25 
Q 34.46875 45.796875 27.34375 45.796875 
z
" id="Helvetica-67"/>
     <path d="M 27.78125 -1.421875 
Q 16.703125 -1.421875 10.34375 5.609375 
Q 4 12.640625 4 25.046875 
Q 4 38.234375 10.71875 46.015625 
Q 17.4375 53.8125 28.765625 53.8125 
Q 39.015625 53.8125 45.3125 46.1875 
Q 51.609375 38.578125 51.609375 26.171875 
L 51.515625 23.046875 
L 51.515625 23.046875 
L 13.328125 23.046875 
L 13.328125 23.046875 
Q 13.875 15.234375 16.890625 11.140625 
Q 20.609375 6.15625 28.609375 6.15625 
Q 33.640625 6.15625 37.390625 8.984375 
Q 41.15625 11.8125 42 16.21875 
L 42 16.21875 
L 50.6875 16.21875 
L 50.6875 16.21875 
Q 48.734375 7.625 42.875 3.09375 
Q 37.015625 -1.421875 27.78125 -1.421875 
z
M 42.4375 30.125 
L 42.4375 30.125 
Q 42.046875 37.40625 38.8125 41.453125 
Q 35.25 45.953125 28.375 45.953125 
Q 21.4375 45.953125 17.28125 40.765625 
Q 14.015625 36.71875 13.328125 30.125 
L 13.328125 30.125 
z
" id="Helvetica-65"/>
    </defs>
    <g style="fill:#262626;" transform="translate(244.95 45.84)scale(0.16 -0.16)">
     <use xlink:href="#Helvetica-54"/>
     <use x="61.083984" xlink:href="#Helvetica-2e"/>
     <use x="88.867188" xlink:href="#Helvetica-20"/>
     <use x="116.650391" xlink:href="#Helvetica-63"/>
     <use x="166.650391" xlink:href="#Helvetica-6f"/>
     <use x="222.265625" xlink:href="#Helvetica-6e"/>
     <use x="277.880859" xlink:href="#Helvetica-67"/>
     <use x="333.496094" xlink:href="#Helvetica-6f"/>
     <use x="389.111328" xlink:href="#Helvetica-6c"/>
     <use x="411.328125" xlink:href="#Helvetica-65"/>
     <use x="466.943359" xlink:href="#Helvetica-6e"/>
     <use x="522.558594" xlink:href="#Helvetica-73"/>
     <use x="572.558594" xlink:href="#Helvetica-65"/>
    </g>
   </g>
   <g id="legend_1">
    <g id="PathCollection_7">
     <path d="M 534.40006 199.43869 
L 540.40006 199.43869 
L 540.40006 193.43869 
L 534.40006 193.43869 
z
" style="fill:none;stroke:#000000;"/>
    </g>
    <g id="text_17">
     <!-- Control -->
     <defs>
      <path d="M 68.109375 26.421875 
L 68.109375 26.421875 
Q 66.265625 13.140625 57.9375 5.59375 
Q 49.609375 -1.953125 36.859375 -1.953125 
Q 22.015625 -1.953125 13.203125 8.265625 
Q 4.390625 18.5 4.390625 35.84375 
Q 4.390625 53.171875 13.546875 63.453125 
Q 22.703125 73.734375 38.140625 73.734375 
Q 50.296875 73.734375 58.109375 67.484375 
Q 65.921875 61.234375 67.484375 50.25 
L 67.484375 50.25 
L 58.109375 50.25 
L 58.109375 50.25 
Q 56.734375 57.375 51.484375 61.25 
Q 46.234375 65.140625 37.984375 65.140625 
Q 27.203125 65.140625 20.796875 57.203125 
Q 14.40625 49.265625 14.40625 35.84375 
Q 14.40625 21.578125 20.328125 14.109375 
Q 26.265625 6.640625 37.546875 6.640625 
Q 45.90625 6.640625 51.421875 11.78125 
Q 56.9375 16.9375 58.734375 26.421875 
L 58.734375 26.421875 
z
" id="Helvetica-43"/>
      <path d="M 25.6875 0.046875 
Q 21.1875 -0.640625 19.140625 -0.640625 
Q 13.375 -0.640625 11 1.890625 
Q 8.640625 4.4375 8.640625 10.640625 
L 8.640625 45.0625 
L 8.640625 45.0625 
L 1.421875 45.0625 
L 1.421875 52.25 
L 8.640625 52.25 
L 8.640625 52.25 
L 8.640625 66.890625 
L 17.4375 66.890625 
L 17.4375 52.25 
L 17.4375 52.25 
L 25.6875 52.25 
L 25.6875 45.0625 
L 17.4375 45.0625 
L 17.4375 45.0625 
L 17.4375 10.640625 
Q 17.4375 8.890625 18.828125 7.859375 
Q 20.21875 6.84375 22.5625 6.84375 
L 25.6875 6.84375 
z
" id="Helvetica-74"/>
     </defs>
     <g style="fill:#262626;" transform="translate(555.4 199.06375)scale(0.16 -0.16)">
      <use xlink:href="#Helvetica-43"/>
      <use x="72.216797" xlink:href="#Helvetica-6f"/>
      <use x="127.832031" xlink:href="#Helvetica-6e"/>
      <use x="183.447266" xlink:href="#Helvetica-74"/>
      <use x="211.230469" xlink:href="#Helvetica-72"/>
      <use x="244.53125" xlink:href="#Helvetica-6f"/>
      <use x="300.146484" xlink:href="#Helvetica-6c"/>
     </g>
    </g>
    <g id="PathCollection_8">
     <path d="M 537.4 213.22875 
L 534.4 219.22875 
L 540.4 219.22875 
z
" style="fill:none;stroke:#000000;"/>
    </g>
    <g id="text_18">
     <!-- Diaminazene -->
     <defs>
      <path d="M 6.5 0 
L 6.5 52.25 
L 6.5 52.25 
L 10.640625 52.25 
L 14.84375 52.25 
L 14.84375 52.25 
L 14.84375 44.484375 
L 14.84375 44.484375 
L 14.84375 44.484375 
L 16.65625 46.828125 
Q 22.5625 53.8125 30.765625 53.8125 
Q 37.796875 53.8125 41.9375 49.65625 
Q 43.796875 47.796875 44.828125 45.40625 
L 44.828125 45.40625 
L 46.234375 47.21875 
Q 51.90625 53.8125 59.765625 53.8125 
Q 67.96875 53.8125 72.4375 49.34375 
Q 76.90625 44.875 76.90625 36.671875 
L 76.90625 0 
L 76.90625 0 
L 72.515625 0 
L 68.109375 0 
L 68.109375 0 
L 68.109375 33.6875 
Q 68.109375 39.65625 65.671875 42.71875 
Q 63.234375 45.796875 58.546875 45.796875 
Q 52.828125 45.796875 49.453125 41.359375 
Q 46.09375 36.921875 46.09375 29.34375 
L 46.09375 29.34375 
L 46.09375 0 
L 46.09375 0 
L 41.703125 0 
L 37.3125 0 
L 37.3125 0 
L 37.3125 35.796875 
Q 37.3125 40.671875 35.078125 43.234375 
Q 32.859375 45.796875 28.609375 45.796875 
Q 22.75 45.796875 19.015625 40.8125 
Q 15.28125 35.84375 15.28125 27.984375 
L 15.28125 27.984375 
L 15.28125 0 
L 15.28125 0 
L 10.890625 0 
L 6.5 0 
z
" id="Helvetica-6d"/>
      <path d="M 3.078125 6.890625 
L 34.421875 44.921875 
L 34.421875 44.921875 
L 5.421875 44.921875 
L 5.421875 44.921875 
L 5.421875 48.578125 
L 5.421875 52.25 
L 5.421875 52.25 
L 46.1875 52.25 
L 46.1875 48.828125 
L 46.1875 45.359375 
L 14.84375 7.328125 
L 14.84375 7.328125 
L 46.921875 7.328125 
L 46.921875 7.328125 
L 46.921875 3.65625 
L 46.921875 0 
L 46.921875 0 
L 3.078125 0 
L 3.078125 3.421875 
z
" id="Helvetica-7a"/>
     </defs>
     <g style="fill:#262626;" transform="translate(555.4 218.85375)scale(0.16 -0.16)">
      <use xlink:href="#Helvetica-44"/>
      <use x="72.216797" xlink:href="#Helvetica-69"/>
      <use x="94.433594" xlink:href="#Helvetica-61"/>
      <use x="150.048828" xlink:href="#Helvetica-6d"/>
      <use x="233.349609" xlink:href="#Helvetica-69"/>
      <use x="255.566406" xlink:href="#Helvetica-6e"/>
      <use x="311.181641" xlink:href="#Helvetica-61"/>
      <use x="366.796875" xlink:href="#Helvetica-7a"/>
      <use x="416.796875" xlink:href="#Helvetica-65"/>
      <use x="472.412109" xlink:href="#Helvetica-6e"/>
      <use x="528.027344" xlink:href="#Helvetica-65"/>
     </g>
    </g>
    <g id="PathCollection_9">
     <path d="M 537.4 239.33125 
C 538.195609 239.33125 538.95874 239.015151 539.52132 238.45257 
C 540.083901 237.88999 540.4 237.126859 540.4 236.33125 
C 540.4 235.535641 540.083901 234.77251 539.52132 234.20993 
C 538.95874 233.647349 538.195609 233.33125 537.4 233.33125 
C 536.604391 233.33125 535.84126 233.647349 535.27868 234.20993 
C 534.716099 234.77251 534.4 235.535641 534.4 236.33125 
C 534.4 237.126859 534.716099 237.88999 535.27868 238.45257 
C 535.84126 239.015151 536.604391 239.33125 537.4 239.33125 
z
" style="fill:none;stroke:#000000;"/>
    </g>
    <g id="text_19">
     <!-- Compound 25 -->
     <defs>
      <path d="M 5.8125 52.25 
L 5.8125 52.25 
L 9.96875 52.25 
L 14.15625 52.25 
L 14.15625 52.25 
L 14.15625 44.828125 
L 14.15625 44.828125 
L 14.59375 45.453125 
Q 20.265625 53.8125 29.5 53.8125 
Q 39.75 53.8125 45.71875 46.75 
Q 51.703125 39.703125 51.703125 27.6875 
Q 51.703125 14.0625 45.671875 6.3125 
Q 39.65625 -1.421875 28.953125 -1.421875 
Q 20.125 -1.421875 14.890625 5.375 
L 14.59375 5.765625 
L 14.59375 5.765625 
L 14.59375 -20.65625 
L 14.59375 -20.65625 
L 10.203125 -20.65625 
L 5.8125 -20.65625 
L 5.8125 -20.65625 
z
M 28.515625 6.203125 
Q 35.40625 6.203125 38.96875 11.40625 
Q 42.53125 16.609375 42.53125 26.5625 
Q 42.53125 36.375 39.109375 41.078125 
Q 35.6875 45.796875 28.5625 45.796875 
Q 21.296875 45.796875 17.9375 40.46875 
Q 14.59375 35.15625 14.59375 23.640625 
L 14.59375 23.640625 
L 14.59375 23.640625 
L 14.59375 23.640625 
Q 14.59375 15.28125 18.203125 10.734375 
Q 21.828125 6.203125 28.515625 6.203125 
z
" id="Helvetica-70"/>
      <path d="M 26.421875 -1.421875 
Q 15.921875 -1.421875 9.71875 6.421875 
Q 3.515625 14.265625 3.515625 27.59375 
Q 3.515625 39.359375 9.515625 46.578125 
Q 15.53125 53.8125 25.203125 53.8125 
Q 34.8125 53.8125 40.4375 45.65625 
L 41.109375 44.671875 
L 41.109375 44.671875 
L 41.109375 71.78125 
L 41.109375 71.78125 
L 45.515625 71.78125 
L 49.90625 71.78125 
L 49.90625 71.78125 
L 49.90625 0 
L 49.90625 0 
L 45.84375 0 
L 41.75 0 
L 41.75 0 
L 41.75 7.125 
L 41.75 7.125 
L 40.625 5.515625 
Q 35.203125 -1.421875 26.421875 -1.421875 
z
M 26.90625 45.90625 
Q 19.53125 45.90625 16.109375 41.1875 
Q 12.703125 36.46875 12.703125 26.21875 
Q 12.703125 16.546875 16.375 11.328125 
Q 20.0625 6.109375 26.90625 6.109375 
Q 33.296875 6.109375 37.203125 10.90625 
Q 41.109375 15.71875 41.109375 23.640625 
Q 41.109375 34.328125 37.421875 40.109375 
Q 33.734375 45.90625 26.90625 45.90625 
z
" id="Helvetica-64"/>
     </defs>
     <g style="fill:#262626;" transform="translate(555.4 238.95625)scale(0.16 -0.16)">
      <use xlink:href="#Helvetica-43"/>
      <use x="72.216797" xlink:href="#Helvetica-6f"/>
      <use x="127.832031" xlink:href="#Helvetica-6d"/>
      <use x="211.132812" xlink:href="#Helvetica-70"/>
      <use x="266.748047" xlink:href="#Helvetica-6f"/>
      <use x="322.363281" xlink:href="#Helvetica-75"/>
      <use x="377.978516" xlink:href="#Helvetica-6e"/>
      <use x="433.59375" xlink:href="#Helvetica-64"/>
      <use x="489.208984" xlink:href="#Helvetica-20"/>
      <use x="516.992188" xlink:href="#Helvetica-32"/>
      <use x="572.607422" xlink:href="#Helvetica-35"/>
     </g>
    </g>
   </g>
  </g>
 </g>
 <defs>
  <clipPath id="pba3a2391dd">
   <rect height="326.16" width="446.4" x="72" y="51.84"/>
  </clipPath>
 </defs>
</svg>
